SplineFontDB: 3.0
FontName: AdventPro-Medium
FullName: Advent Pro Medium
FamilyName: Advent Pro
Weight: Medium
Copyright: Copyright (c) 2008 Andreas Kalpakidis (hello@inderesting.com), with Reserved Font Name "Advent Pro"
Version: 001.001
ItalicAngle: 0
UnderlinePosition: -50
UnderlineWidth: 50
Ascent: 800
Descent: 200
sfntRevision: 0x00020083
LayerCount: 2
Layer: 0 1 "Back"  1
Layer: 1 1 "Fore"  0
NeedsXUIDChange: 1
XUID: [1021 288 713564382 1891519]
FSType: 0
OS2Version: 2
OS2_WeightWidthSlopeOnly: 0
OS2_UseTypoMetrics: 1
CreationTime: 1322417982
ModificationTime: 1322447161
PfmFamily: 17
TTFWeight: 500
TTFWidth: 5
LineGap: 0
VLineGap: 0
Panose: 2 0 5 6 4 0 0 2 0 4
OS2TypoAscent: 162
OS2TypoAOffset: 1
OS2TypoDescent: -32
OS2TypoDOffset: 1
OS2TypoLinegap: 0
OS2WinAscent: -1
OS2WinAOffset: 1
OS2WinDescent: 13
OS2WinDOffset: 1
HheadAscent: 1
HheadAOffset: 1
HheadDescent: -13
HheadDOffset: 1
OS2SubXSize: 650
OS2SubYSize: 600
OS2SubXOff: 0
OS2SubYOff: 75
OS2SupXSize: 650
OS2SupYSize: 600
OS2SupXOff: 0
OS2SupYOff: 350
OS2StrikeYSize: 50
OS2StrikeYPos: 250
OS2Vendor: 'ADBE'
OS2CodePages: 0000009b.00000000
OS2UnicodeRanges: 800000af.4000004a.00000000.00000000
Lookup: 258 0 0 "'kern' Horizontal Kerning lookup 0"  {"'kern' Horizontal Kerning lookup 0 subtable"  } ['kern' ('DFLT' <'dflt' > 'grek' <'dflt' > 'latn' <'dflt' > ) ]
MarkAttachClasses: 1
DEI: 91125
TtTable: prep
PUSHW_1
 511
SCANCTRL
PUSHB_1
 4
SCANTYPE
EndTTInstrs
LangName: 1033 "" "" "" "AndreasKalpakidis: Advent Pro Medium: 2008" "AdventPro-Medium" "Version 2.002 2008" "" "Advent Pro Thin is a trademark of INDE Andreas Kalpakidis." "Andreas Kalpakidis" "Andreas Kalpakidis" "" "www.inderesting.com" "www.inderesting.com" "This Font Software is licensed under the SIL Open Font License, Version 1.1. This license is available with a FAQ at: http://scripts.sil.org/OFL" "http://scripts.sil.org/OFL" 
GaspTable: 1 65535 15
Encoding: UnicodeBmp
UnicodeInterp: none
NameList: Adobe Glyph List
DisplaySize: -36
AntiAlias: 1

StartChar: .notdef
Encoding: 65536 -1 0
Width: 500
Flags: HMW
HStem: 0 650<50 450 50 500 0 450> 50 650<50 450 450 450>
VStem: 0 450<50 650 50 700 50 700> 50 450<50 650 50 50>
LayerCount: 2
Fore
SplineSet
500 0 m 1,0,-1
 0 0 l 1,1,-1
 0 700 l 1,2,-1
 500 700 l 1,3,-1
 500 0 l 1,0,-1
450 50 m 1,4,-1
 450 650 l 1,5,-1
 50 650 l 1,6,-1
 50 50 l 1,7,-1
 450 50 l 1,4,-1
425 133 m 1,8,-1
 386 101 l 1,9,-1
 250 305 l 1,10,-1
 113 100 l 1,11,-1
 73 129 l 1,12,-1
 220 350 l 1,13,-1
 73 571 l 1,14,-1
 113 600 l 1,15,-1
 250 395 l 1,16,-1
 386 599 l 1,17,-1
 425 567 l 1,18,-1
 280 350 l 1,19,-1
 425 133 l 1,8,-1
EndSplineSet
EndChar

StartChar: numbersign
Encoding: 35 35 4
Width: 613
Flags: HMW
HStem: 0 21G<95 165 95 95 284 356 284 284> 183 69<34 137 34 154 224 326 34 207 415 582> 396 73<34 188 34 205 34 258 275 377 467 582>
VStem: 34 548<183 252 183 252 396 469 183 469> 95 70<0 0> 259 70<700 700> 284 72<0 0> 448 73<700 700>
LayerCount: 2
Fore
SplineSet
582 183 m 1,0,-1
 399 183 l 1,1,-1
 356 0 l 1,2,-1
 284 0 l 1,3,-1
 326 183 l 1,4,-1
 207 183 l 1,5,-1
 165 0 l 1,6,-1
 95 0 l 1,7,-1
 137 183 l 1,8,-1
 34 183 l 1,9,-1
 34 252 l 1,10,-1
 154 252 l 1,11,-1
 188 396 l 1,12,-1
 34 396 l 1,13,-1
 34 469 l 1,14,-1
 205 469 l 1,15,-1
 259 700 l 1,16,-1
 329 700 l 1,17,-1
 275 469 l 1,18,-1
 394 469 l 1,19,-1
 448 700 l 1,20,-1
 521 700 l 1,21,-1
 467 469 l 1,22,-1
 582 469 l 1,23,-1
 582 396 l 1,24,-1
 449 396 l 1,25,-1
 415 252 l 1,26,-1
 582 252 l 1,27,-1
 582 183 l 1,0,-1
342 252 m 1,28,-1
 377 396 l 1,29,-1
 258 396 l 1,30,-1
 224 252 l 1,31,-1
 342 252 l 1,28,-1
EndSplineSet
EndChar

StartChar: dollar
Encoding: 36 36 5
Width: 540
Flags: HMW
HStem: -17 21G -17 80 178 155 710 20G
VStem: 34 57 34 75<178 183> 52 76 235 72<-114 -9 63 323 432 634 634 634 709 817> 243 56 307 202<-114 255 62 255 140 255 140 323 140 403 140 636> 401 22 406 17 449 60
LayerCount: 2
Fore
SplineSet
307 -114 m 1,0,-1
 235 -114 l 1,1,-1
 235 -9 l 1,2,3
 142 1 142 1 89 56 c 128,-1,4
 36 111 36 111 34 178 c 1,5,-1
 109 183 l 1,6,7
 113 140 113 140 147 105.5 c 128,-1,8
 181 71 181 71 235 63 c 1,9,-1
 235 353 l 1,10,11
 156.474358974 381.044871795 156.474358974 381.044871795 118.737179487 409.022435897 c 128,-1,12
 81 437 81 437 66.5 467.5 c 128,-1,13
 52 498 52 498 52 538 c 0,14,15
 52 599 52 599 99 647.5 c 128,-1,16
 146 696 146 696 235 707 c 1,17,-1
 235 817 l 1,18,-1
 307 817 l 1,19,-1
 307 709 l 1,20,21
 369 705 369 705 423 680 c 1,22,23
 423 678 423 678 401 612 c 1,24,25
 356 633 356 633 307 636 c 1,26,-1
 307 403 l 1,27,28
 352 386 352 386 381.5 371 c 128,-1,29
 411 356 411 356 443.5 331 c 0,30,31
 509 280.615384615 509 280.615384615 509 194.307692308 c 128,-1,32
 509 108 509 108 459.5 54 c 128,-1,33
 410 0 410 0 307 -9 c 1,34,-1
 307 -114 l 1,0,-1
307 323 m 1,35,-1
 307 62 l 1,36,37
 363 71 363 71 397 102 c 128,-1,38
 431 133 431 133 431 185 c 128,-1,39
 431 237 431 237 399 267 c 128,-1,40
 367 297 367 297 307 323 c 1,35,-1
235 432 m 1,41,-1
 235 634 l 1,42,43
 184 626 184 626 155.983050847 600.440677966 c 128,-1,44
 127.966101695 574.881355932 127.966101695 574.881355932 127.966101695 536.373035439 c 128,-1,45
 127.966101695 497.864714946 127.966101695 497.864714946 155.983050847 474.432357473 c 128,-1,46
 184 451 184 451 235 432 c 1,41,-1
EndSplineSet
EndChar

StartChar: percent
Encoding: 37 37 6
Width: 676
Flags: HMW
HStem: 49 84 57 76 308 55 507 76 583 76 654 55 702 20G 711 20G
VStem: 109 76 185 77 197 393 339 106 420 76 496 76
LayerCount: 2
Fore
SplineSet
83 0 m 1,0,-1
 34 49 l 1,1,-1
 590 741 l 1,2,-1
 645 693 l 1,3,-1
 83 0 l 1,0,-1
496 -11 m 128,-1,5
 436 -11 436 -11 394 31 c 128,-1,6
 352 73 352 73 352 133 c 128,-1,7
 352 193 352 193 394 235 c 128,-1,8
 436 277 436 277 496 277 c 128,-1,9
 556 277 556 277 598 235 c 128,-1,10
 640 193 640 193 640 133 c 128,-1,11
 640 73 640 73 598 31 c 128,-1,4
 556 -11 556 -11 496 -11 c 128,-1,5
572 133 m 128,-1,13
 572 163 572 163 551 186 c 128,-1,14
 530 209 530 209 496 209 c 128,-1,15
 462 209 462 209 441 186 c 128,-1,16
 420 163 420 163 420 133 c 128,-1,17
 420 103 420 103 441 80 c 128,-1,18
 462 57 462 57 496 57 c 128,-1,19
 530 57 530 57 551 80 c 128,-1,12
 572 103 572 103 572 133 c 128,-1,13
185 439 m 128,-1,21
 125 439 125 439 83 481 c 128,-1,22
 41 523 41 523 41 583 c 128,-1,23
 41 643 41 643 83 685 c 128,-1,24
 125 727 125 727 185 727 c 128,-1,25
 245 727 245 727 287 685 c 128,-1,26
 329 643 329 643 329 583 c 128,-1,27
 329 523 329 523 287 481 c 128,-1,20
 245 439 245 439 185 439 c 128,-1,21
262 583 m 128,-1,29
 262 613 262 613 240.5 636 c 128,-1,30
 219 659 219 659 185 659 c 128,-1,31
 151 659 151 659 130 636 c 128,-1,32
 109 613 109 613 109 583 c 128,-1,33
 109 553 109 553 130 530 c 128,-1,34
 151 507 151 507 185 507 c 128,-1,35
 219 507 219 507 240.5 530 c 128,-1,28
 262 553 262 553 262 583 c 128,-1,29
EndSplineSet
EndChar

StartChar: ampersand
Encoding: 38 38 7
Width: 552
Flags: HMW
HStem: -12 75 0 21G 383 21G
VStem: 36 184 221 138 432 89<154 430 430 609 430 484>
LayerCount: 2
Fore
SplineSet
498 45 m 1,0,-1
 482 -11 l 1,1,2
 398 8 398 8 374 73 c 1,3,4
 323 -11 323 -11 213 -11 c 0,5,6
 123 -11 123 -11 75.5 52.5 c 0,7,8
 34.8468468468 106.846846847 34.8468468468 106.846846847 34.8468468468 179.139680221 c 0,9,10
 34.8468468468 240.993847506 34.8468468468 240.993847506 58.4234234234 286.996923753 c 128,-1,11
 82 333 82 333 115 359 c 0,12,13
 168.25 400.954545455 168.25 400.954545455 232 428 c 1,14,15
 199 436 199 436 175 469.5 c 0,16,17
 147.590909091 507.758522727 147.590909091 507.758522727 147.590909091 552.367897727 c 128,-1,18
 147.590909091 596.977272727 147.590909091 596.977272727 165.295454545 630.988636364 c 0,19,20
 199.689058524 697.060559796 199.689058524 697.060559796 293.5 710 c 0,21,22
 304.847826087 711.565217391 304.847826087 711.565217391 326.663043478 711.565217391 c 128,-1,23
 348.47826087 711.565217391 348.47826087 711.565217391 381 699 c 1,24,-1
 340 638 l 1,25,26
 321.714285714 644.095238095 321.714285714 644.095238095 299.904761905 644.095238095 c 128,-1,27
 278.095238095 644.095238095 278.095238095 644.095238095 255.5 628 c 0,28,29
 219 602 219 602 220.5 554.5 c 128,-1,30
 222 507 222 507 260.5 483.5 c 0,31,32
 289.222222222 465.968253968 289.222222222 465.968253968 308.285714286 465.968253968 c 128,-1,33
 327.349206349 465.968253968 327.349206349 465.968253968 337 468 c 2,34,-1
 359 472 l 1,35,-1
 359 605 l 1,36,-1
 432 609 l 1,37,-1
 432 484 l 1,38,-1
 505 500 l 1,39,-1
 521 430 l 1,40,-1
 432 411 l 1,41,-1
 432 154 l 2,42,43
 432 67 432 67 498 45 c 1,0,-1
359 220 m 2,44,-1
 359 395 l 1,45,46
 233.960474308 367.213438735 233.960474308 367.213438735 171.5 317.5 c 0,47,48
 147 298 147 298 128.5 267.5 c 0,49,50
 106 230.405405405 106 230.405405405 106 181.411036036 c 128,-1,51
 106 132.416666667 106 132.416666667 133.5 96.2083333333 c 128,-1,52
 161 60 161 60 222 60 c 128,-1,53
 283 60 283 60 321 109 c 128,-1,54
 359 158 359 158 359 220 c 2,44,-1
EndSplineSet
EndChar

StartChar: quoteright
Encoding: 8217 8217 8
Width: 114
Flags: HMW
HStem: 456 50 603 111 633 111
VStem: -11 104 33 81<669.5 673>
LayerCount: 2
Fore
SplineSet
49 549 m 1,0,-1
 0 577 l 1,1,2
 40.32 600.04 40.32 600.04 66 630 c 1,3,-1
 55 633 l 1,4,5
 33 646 33 646 33.5 667.5 c 128,-1,6
 34 689 34 689 45.4782608696 699.043478261 c 128,-1,7
 56.9565217391 709.086956522 56.9565217391 709.086956522 65.2391304348 709.086956522 c 0,8,9
 90.1071428571 709.086956522 90.1071428571 709.086956522 102.053571429 694.543478261 c 128,-1,10
 114 680 114 680 114 665 c 0,11,12
 114 605 114 605 49 549 c 1,0,-1
EndSplineSet
EndChar

StartChar: parenleft
Encoding: 40 40 9
Width: 297
Flags: HMW
HStem: -198 21G 522 40 711 20G
VStem: 78 72<71 627>
LayerCount: 2
Fore
SplineSet
217 -68 m 1,0,-1
 187 -118 l 1,1,2
 129 -84 129 -84 103.5 -45 c 128,-1,3
 78 -6 78 -6 78 71 c 2,4,-1
 78 627 l 2,5,6
 78 704 78 704 103.5 743.5 c 128,-1,7
 129 783 129 783 187 817 c 1,8,-1
 216 765 l 1,9,10
 150 725 150 725 150 627 c 2,11,-1
 150 71 l 2,12,13
 150 12 150 12 167 -16.5 c 128,-1,14
 184 -45 184 -45 217 -68 c 1,0,-1
EndSplineSet
EndChar

StartChar: parenright
Encoding: 41 41 10
Width: 297
Flags: HMW
HStem: -198 21G 711 20G
VStem: 124 56
LayerCount: 2
Fore
SplineSet
107 -118 m 1,0,-1
 78 -68 l 1,1,2
 111 -45 111 -45 128 -16.5 c 128,-1,3
 145 12 145 12 145 71 c 2,4,-1
 145 627 l 2,5,6
 145 724 145 724 78 765 c 1,7,-1
 107 817 l 1,8,9
 165 783 165 783 191 743.5 c 128,-1,10
 217 704 217 704 217 627 c 2,11,-1
 217 71 l 2,12,13
 217 -6 217 -6 191.5 -45 c 128,-1,14
 166 -84 166 -84 107 -118 c 1,0,-1
EndSplineSet
EndChar

StartChar: asterisk
Encoding: 42 42 11
Width: 352
Flags: HMW
HStem: 694 20G
VStem: 138 73<700 700>
LayerCount: 2
Fore
SplineSet
294 454 m 1,0,-1
 234 412 l 1,1,-1
 175 515 l 1,2,-1
 118 412 l 1,3,-1
 57 455 l 1,4,-1
 130 541 l 1,5,-1
 21 571 l 1,6,-1
 45 635 l 1,7,-1
 148 587 l 1,8,-1
 138 700 l 1,9,-1
 211 700 l 1,10,-1
 201 587 l 1,11,-1
 304 636 l 1,12,-1
 332 570 l 1,13,-1
 219 541 l 1,14,-1
 294 454 l 1,0,-1
EndSplineSet
EndChar

StartChar: plus
Encoding: 43 43 12
Width: 385
Flags: HMW
HStem: 0 21G 112 321
VStem: 34 320<343 413 343 413> 158 72<216 343 413 545>
LayerCount: 2
Fore
SplineSet
230 216 m 1,0,-1
 158 216 l 1,1,-1
 158 343 l 1,2,-1
 34 343 l 1,3,-1
 34 413 l 1,4,-1
 158 413 l 1,5,-1
 158 545 l 1,6,-1
 230 545 l 1,7,-1
 230 413 l 1,8,-1
 354 413 l 1,9,-1
 354 343 l 1,10,-1
 230 343 l 1,11,-1
 230 216 l 1,0,-1
EndSplineSet
EndChar

StartChar: comma
Encoding: 44 44 13
Width: 165
Flags: HMW
HStem: 0 111
VStem: 41 81<36.5 40>
LayerCount: 2
Fore
SplineSet
57 -84 m 1,0,-1
 8 -56 l 1,1,2
 51.4736842105 -31.1578947368 51.4736842105 -31.1578947368 74 -3 c 1,3,-1
 63 0 l 1,4,5
 41 13 41 13 41.5 34.5 c 128,-1,6
 42 56 42 56 53.4782608696 66.0434782609 c 128,-1,7
 64.9565217391 76.0869565217 64.9565217391 76.0869565217 73.2391304348 76.0869565217 c 0,8,9
 98.1071428571 76.0869565217 98.1071428571 76.0869565217 110.053571429 61.5434782609 c 128,-1,10
 122 47 122 47 122 32 c 0,11,12
 122 -28 122 -28 57 -84 c 1,0,-1
EndSplineSet
EndChar

StartChar: hyphen
Encoding: 45 45 14
Width: 410
Flags: HMW
HStem: 238 80
VStem: 45 320<343 413 343 413>
LayerCount: 2
Fore
SplineSet
365 343 m 1,0,-1
 45 343 l 1,1,-1
 45 413 l 1,2,-1
 365 413 l 1,3,-1
 365 343 l 1,0,-1
EndSplineSet
EndChar

StartChar: period
Encoding: 46 46 15
Width: 127
Flags: HMW
HStem: 0 111
VStem: 8 76<27.5 48.5>
LayerCount: 2
Fore
SplineSet
46 0 m 128,-1,1
 30 0 30 0 19 11 c 128,-1,2
 8 22 8 22 8 38 c 128,-1,3
 8 54 8 54 19 65 c 128,-1,4
 30 76 30 76 46 76 c 128,-1,5
 62 76 62 76 73 65 c 128,-1,6
 84 54 84 54 84 38 c 128,-1,7
 84 22 84 22 73 11 c 128,-1,0
 62 0 62 0 46 0 c 128,-1,1
EndSplineSet
EndChar

StartChar: slash
Encoding: 47 47 16
Width: 441
Flags: HMW
HStem: 711 20G
VStem: -19 456
LayerCount: 2
Fore
SplineSet
98 -114 m 1,0,-1
 21 -114 l 1,1,-1
 345 817 l 1,2,-1
 421 817 l 1,3,-1
 98 -114 l 1,0,-1
EndSplineSet
EndChar

StartChar: zero
Encoding: 48 48 17
Width: 549
Flags: HMW
HStem: -12 75 634 75 643 73<229 317.5>
VStem: 63 72<185 191 191 502> 66 53 154 49 364 53 411 72<193 502 502 506>
LayerCount: 2
Fore
SplineSet
483 506 m 2,0,-1
 483 185 l 2,1,2
 483 84 483 84 421.5 36.5 c 128,-1,3
 360 -11 360 -11 274 -11 c 128,-1,4
 188 -11 188 -11 125.5 36.5 c 128,-1,5
 63 84 63 84 63 185 c 2,6,-1
 63 507 l 2,7,8
 63 610 63 610 119.5 663 c 128,-1,9
 176 716 176 716 275 716 c 128,-1,10
 374 716 374 716 428.5 660 c 128,-1,11
 483 604 483 604 483 506 c 2,0,-1
411 193 m 2,12,-1
 411 502 l 2,13,14
 411 571 411 571 375.5 607 c 128,-1,15
 340 643 340 643 273 643 c 0,16,17
 135 643 135 643 135 502 c 2,18,-1
 135 191 l 2,19,20
 135 127 135 127 173 93.5 c 128,-1,21
 211 60 211 60 273 60 c 128,-1,22
 335 60 335 60 373 93.5 c 128,-1,23
 411 127 411 127 411 193 c 2,12,-1
EndSplineSet
EndChar

StartChar: one
Encoding: 49 49 18
Width: 221
Flags: HMW
HStem: 0 21G<128 201 128 128> 508 68
VStem: 128 73<0 608 608 608>
LayerCount: 2
Fore
SplineSet
201 0 m 1,0,-1
 128 0 l 1,1,-1
 128 608 l 1,2,3
 101.977099237 585.694656489 101.977099237 585.694656489 54 574.5 c 2,4,-1
 39 571 l 1,5,-1
 21 637 l 1,6,7
 42.09375 637 42.09375 637 75.046875 655.5 c 128,-1,8
 108 674 108 674 128 700 c 1,9,-1
 201 700 l 1,10,-1
 201 0 l 1,0,-1
EndSplineSet
EndChar

StartChar: two
Encoding: 50 50 19
Width: 399
Flags: HMW
HStem: 0 75 634 75
VStem: 21 84<0 67 67 67> 311 62
LayerCount: 2
Fore
SplineSet
379 0 m 1,0,-1
 21 0 l 1,1,-1
 21 67 l 1,2,-1
 267 438 l 1,3,4
 302.372093023 494.23255814 302.372093023 494.23255814 302.372093023 536.069497025 c 0,5,6
 302.372093023 585.155573376 302.372093023 585.155573376 271.186046512 612.577786688 c 128,-1,7
 240 640 240 640 202.5 640 c 128,-1,8
 165 640 165 640 138 617.5 c 128,-1,9
 111 595 111 595 100 560 c 1,10,-1
 35 590 l 1,11,12
 54 642 54 642 97 676 c 128,-1,13
 140 710 140 710 208 710 c 128,-1,14
 276 710 276 710 324 667 c 0,15,16
 376.307692308 620.141025641 376.307692308 620.141025641 376.307692308 551.993589744 c 128,-1,17
 376.307692308 483.846153846 376.307692308 483.846153846 332 410 c 1,18,-1
 105 67 l 1,19,-1
 379 67 l 1,20,-1
 379 0 l 1,0,-1
EndSplineSet
EndChar

StartChar: three
Encoding: 51 51 20
Width: 431
Flags: HMW
HStem: -12 75 634 75
VStem: 21 53<83 127> 94 199 338 73<162.5 241.5>
LayerCount: 2
Fore
SplineSet
21 83 m 1,0,-1
 74 127 l 1,1,2
 93 96 93 96 126 77.5 c 128,-1,3
 159 59 159 59 197 59 c 0,4,5
 258 59 258 59 298 100.5 c 128,-1,6
 338 142 338 142 338 201.5 c 0,7,8
 338 261 338 261 295.5 300.5 c 128,-1,9
 253 340 253 340 189 343 c 1,10,-1
 79 343 l 1,11,-1
 271 628 l 1,12,-1
 66 628 l 1,13,-1
 66 700 l 1,14,-1
 354 700 l 1,15,-1
 354 633 l 1,16,-1
 207 413 l 1,17,-1
 210 413 l 1,18,19
 293 409 293 409 352 348.5 c 128,-1,20
 411 288 411 288 411 200 c 0,21,22
 411 112 411 112 348.5 50 c 128,-1,23
 286 -12 286 -12 198 -12 c 0,24,25
 144 -12 144 -12 97 13.5 c 128,-1,26
 50 39 50 39 21 83 c 1,0,-1
EndSplineSet
EndChar

StartChar: four
Encoding: 52 52 21
Width: 500
Flags: HMW
HStem: 0 21G<336 408 336 336> 166 75
VStem: 336 72<0 343 413 700>
LayerCount: 2
Fore
SplineSet
408 0 m 1,0,-1
 336 0 l 1,1,-1
 336 343 l 1,2,-1
 21 343 l 1,3,-1
 214 700 l 1,4,-1
 289 700 l 1,5,-1
 141 413 l 1,6,-1
 336 413 l 1,7,-1
 336 700 l 1,8,-1
 408 700 l 1,9,-1
 408 413 l 1,10,-1
 480 413 l 1,11,-1
 461 343 l 1,12,-1
 408 343 l 1,13,-1
 408 0 l 1,0,-1
EndSplineSet
EndChar

StartChar: five
Encoding: 53 53 22
Width: 431
Flags: HMW
HStem: -12 75 392 75 622 75
VStem: 21 53<83 128> 338 73<163 241.5>
LayerCount: 2
Fore
SplineSet
21 83 m 1,0,-1
 74 128 l 1,1,2
 121 60 121 60 198 60 c 0,3,4
 260 60 260 60 299 101 c 128,-1,5
 338 142 338 142 338 202 c 0,6,7
 338 262 338 262 294 302.5 c 128,-1,8
 250 343 250 343 185 343 c 2,9,-1
 51 343 l 1,10,-1
 89 700 l 1,11,-1
 355 700 l 1,12,-1
 355 628 l 1,13,-1
 155 628 l 1,14,-1
 132 413 l 1,15,-1
 198 413 l 2,16,17
 287 413 287 413 349 351 c 128,-1,18
 411 289 411 289 411 200.5 c 0,19,20
 411 112 411 112 348.5 50 c 128,-1,21
 286 -12 286 -12 198 -12 c 0,22,23
 144 -12 144 -12 97 13.5 c 128,-1,24
 50 39 50 39 21 83 c 1,0,-1
EndSplineSet
EndChar

StartChar: six
Encoding: 54 54 23
Width: 466
Flags: HMW
HStem: -12 213<21 292>
VStem: 21 71<201 206 348 450> 233 67 233 213
LayerCount: 2
Fore
SplineSet
21 201 m 2,0,-1
 21 461 l 2,1,2
 21 544.037735849 21 544.037735849 71.5 615.5 c 0,3,4
 98 653 98 653 148 676.5 c 128,-1,5
 198 700 198 700 265 700 c 2,6,-1
 300 700 l 1,7,-1
 300 628 l 1,8,-1
 265 628 l 2,9,10
 193 628 193 628 142.5 585.5 c 128,-1,11
 92 543 92 543 92 450 c 2,12,-1
 92 348 l 1,13,14
 112 378 112 378 151 395.5 c 128,-1,15
 190 413 190 413 233 413 c 0,16,17
 322 413 322 413 384 351 c 128,-1,18
 446 289 446 289 446 200.5 c 128,-1,19
 446 112 446 112 384 50 c 128,-1,20
 322 -12 322 -12 233.5 -12 c 128,-1,21
 145 -12 145 -12 83 50 c 128,-1,22
 21 112 21 112 21 201 c 2,0,-1
92 206 m 1,23,-1
 92 201 l 2,24,25
 92 142 92 142 133 100.5 c 128,-1,26
 174 59 174 59 233 59 c 128,-1,27
 292 59 292 59 333 100.5 c 128,-1,28
 374 142 374 142 374 201 c 128,-1,29
 374 260 374 260 333 300.5 c 128,-1,30
 292 341 292 341 233.5 341 c 128,-1,31
 175 341 175 341 134 302 c 128,-1,32
 93 263 93 263 92 206 c 1,23,-1
EndSplineSet
EndChar

StartChar: seven
Encoding: 55 55 24
Width: 441
Flags: HMW
HStem: 0 21G<30 109 30 30> 628 72<26 339 26 420 26 420>
VStem: 26 394<628 700 628 700>
LayerCount: 2
Fore
SplineSet
109 0 m 1,0,-1
 30 0 l 1,1,-1
 339 628 l 1,2,-1
 26 628 l 1,3,-1
 26 700 l 1,4,-1
 420 700 l 1,5,-1
 420 628 l 1,6,-1
 109 0 l 1,0,-1
EndSplineSet
EndChar

StartChar: eight
Encoding: 56 56 25
Width: 467
Flags: HMW
HStem: -12 75 342 87 381 21G 634 75
VStem: 21 353<162 239.5 162 242> 60 33 230 181 235 212
LayerCount: 2
Fore
SplineSet
134 101 m 128,-1,1
 175 60 175 60 233.5 60 c 128,-1,2
 292 60 292 60 333 101 c 128,-1,3
 374 142 374 142 374 201 c 128,-1,4
 374 260 374 260 333.5 300.5 c 128,-1,5
 293 341 293 341 228 342 c 1,6,7
 171 341 171 341 132 300 c 128,-1,8
 93 259 93 259 93 200.5 c 128,-1,0
 93 142 93 142 134 101 c 128,-1,1
334 388 m 1,9,10
 385 360 385 360 416 310.5 c 128,-1,11
 447 261 447 261 447 201 c 0,12,13
 447 112 447 112 384.5 50 c 128,-1,14
 322 -12 322 -12 234 -12 c 128,-1,15
 146 -12 146 -12 83.5 50 c 128,-1,16
 21 112 21 112 21 201 c 0,17,18
 21 262 21 262 52 312 c 128,-1,19
 83 362 83 362 135 389 c 1,20,21
 60 440 60 440 60 533 c 0,22,23
 60 606 60 606 111 657.5 c 128,-1,24
 162 709 162 709 235 709 c 128,-1,25
 308 709 308 709 359.5 657.5 c 128,-1,26
 411 606 411 606 411 533 c 0,27,28
 411 439 411 439 334 388 c 1,9,10
230 429 m 1,29,30
 276 429 276 429 308 459 c 128,-1,31
 340 489 340 489 340 533 c 128,-1,32
 340 577 340 577 309 608 c 128,-1,33
 278 639 278 639 234.5 639 c 128,-1,34
 191 639 191 639 159.5 608 c 128,-1,35
 128 577 128 577 128 533.5 c 128,-1,36
 128 490 128 490 157.5 460.5 c 128,-1,37
 187 431 187 431 230 429 c 1,29,30
EndSplineSet
EndChar

StartChar: nine
Encoding: 57 57 26
Width: 466
Flags: HMW
HStem: -12 75 241 75 634 75
VStem: 21 213 167 67 374 72<251 342 342 342 458.5 497>
LayerCount: 2
Fore
SplineSet
202 0 m 2,0,-1
 167 0 l 1,1,-1
 167 69 l 1,2,-1
 206 69 l 2,3,4
 277 69 277 69 325.5 116.5 c 128,-1,5
 374 164 374 164 374 251 c 2,6,-1
 374 342 l 1,7,8
 319 285 319 285 232 285 c 128,-1,9
 145 285 145 285 83 347 c 128,-1,10
 21 409 21 409 21 497.5 c 128,-1,11
 21 586 21 586 83.5 648 c 128,-1,12
 146 710 146 710 234 710 c 128,-1,13
 322 710 322 710 384 648 c 128,-1,14
 446 586 446 586 446 497 c 2,15,-1
 446 239 l 2,16,17
 446 155.962264151 446 155.962264151 395.5 84.5 c 0,18,19
 369 47 369 47 319 23.5 c 128,-1,20
 269 0 269 0 202 0 c 2,0,-1
133.5 397 m 128,-1,22
 175 356 175 356 233.5 356 c 128,-1,23
 292 356 292 356 333 397 c 128,-1,24
 374 438 374 438 374 498.5 c 128,-1,25
 374 559 374 559 332.5 599 c 128,-1,26
 291 639 291 639 233 639 c 128,-1,27
 175 639 175 639 133.5 597.5 c 128,-1,28
 92 556 92 556 92 497 c 128,-1,21
 92 438 92 438 133.5 397 c 128,-1,22
EndSplineSet
EndChar

StartChar: colon
Encoding: 58 58 27
Width: 121
Flags: HMW
HStem: 0 111 406 111
VStem: 11 45 21 79<139.5 161 368 389.5>
LayerCount: 2
Fore
SplineSet
88.5 351 m 128,-1,1
 77 339 77 339 60.5 339 c 128,-1,2
 44 339 44 339 32.5 350.5 c 128,-1,3
 21 362 21 362 21 378.5 c 128,-1,4
 21 395 21 395 33 406.5 c 128,-1,5
 45 418 45 418 61 418 c 128,-1,6
 77 418 77 418 88.5 406.5 c 128,-1,7
 100 395 100 395 100 379 c 128,-1,0
 100 363 100 363 88.5 351 c 128,-1,1
100 150 m 128,-1,9
 100 134 100 134 88 122.5 c 128,-1,10
 76 111 76 111 60 111 c 128,-1,11
 44 111 44 111 32.5 122.5 c 128,-1,12
 21 134 21 134 21 150 c 128,-1,13
 21 166 21 166 32.5 178 c 128,-1,14
 44 190 44 190 60 190 c 128,-1,15
 76 190 76 190 88 178 c 128,-1,8
 100 166 100 166 100 150 c 128,-1,9
EndSplineSet
EndChar

StartChar: semicolon
Encoding: 59 59 28
Width: 155
Flags: HMW
HStem: 0 111 406 111
VStem: 56 77<257.5 279>
LayerCount: 2
Fore
SplineSet
95 230 m 128,-1,1
 79 230 79 230 67.5 241 c 128,-1,2
 56 252 56 252 56 268 c 128,-1,3
 56 284 56 284 67 295.5 c 128,-1,4
 78 307 78 307 94.5 307 c 128,-1,5
 111 307 111 307 122 295.5 c 128,-1,6
 133 284 133 284 133 268 c 128,-1,7
 133 252 133 252 122 241 c 128,-1,0
 111 230 111 230 95 230 c 128,-1,1
69 -84 m 1,8,-1
 21 -56 l 1,9,10
 65.9836065574 -30.2950819672 65.9836065574 -30.2950819672 80.5 -10.5 c 2,11,-1
 86 -3 l 1,12,-1
 76 0 l 1,13,14
 54 13 54 13 54.5 34.5 c 128,-1,15
 55 56 55 56 66.4782608696 66.0434782609 c 128,-1,16
 77.9565217391 76.0869565217 77.9565217391 76.0869565217 85.7826086957 76.0869565217 c 0,17,18
 111.145962733 76.0869565217 111.145962733 76.0869565217 122.580444053 61.5339802961 c 128,-1,19
 134.014925373 46.9810040706 134.014925373 46.9810040706 134.014925373 30.2686567164 c 0,20,21
 134.014925373 -26.8656716418 134.014925373 -26.8656716418 69 -84 c 1,8,-1
EndSplineSet
EndChar

StartChar: less
Encoding: 60 60 29
Width: 369
Flags: HMW
HStem: -8 21G
VStem: 21 327<126 359 126 359>
LayerCount: 2
Fore
SplineSet
348 126 m 1,0,-1
 299 80 l 1,1,-1
 21 358 l 1,2,-1
 21 359 l 1,3,-1
 299 637 l 1,4,-1
 348 589 l 1,5,-1
 116 358 l 1,6,-1
 348 126 l 1,0,-1
EndSplineSet
EndChar

StartChar: equal
Encoding: 61 61 30
Width: 361
Flags: HMW
HStem: 133 80 253 80
VStem: 21 320<238 308 238 308 358 428 238 428>
LayerCount: 2
Fore
SplineSet
341 358 m 1,0,-1
 21 358 l 1,1,-1
 21 428 l 1,2,-1
 341 428 l 1,3,-1
 341 358 l 1,0,-1
341 238 m 1,4,-1
 21 238 l 1,5,-1
 21 308 l 1,6,-1
 341 308 l 1,7,-1
 341 238 l 1,4,-1
EndSplineSet
EndChar

StartChar: greater
Encoding: 62 62 31
Width: 369
Flags: HMW
HStem: -8 21G
VStem: -42 313 21 327<126 359 358 589>
LayerCount: 2
Fore
SplineSet
70 80 m 1,0,-1
 21 126 l 1,1,-1
 253 358 l 1,2,-1
 21 589 l 1,3,-1
 70 637 l 1,4,-1
 348 359 l 1,5,-1
 348 358 l 1,6,-1
 70 80 l 1,0,-1
EndSplineSet
EndChar

StartChar: question
Encoding: 63 63 32
Width: 401
Flags: HMW
HStem: 76 43<175.5 196.5> 656 75
VStem: 21 72<532 568 532 578.5> 152 69<119 144.5 144.5 182 119 212 119 277.5> 317 59
LayerCount: 2
Fore
SplineSet
221 119 m 1,0,-1
 152 119 l 1,1,-1
 152 212 l 2,2,3
 152 258 152 258 166 296 c 128,-1,4
 180 334 180 334 196 354 c 128,-1,5
 212 374 212 374 238 402.5 c 128,-1,6
 264 431 264 431 275 447 c 0,7,8
 304.432432432 493.378378378 304.432432432 493.378378378 304.432432432 532.199780862 c 0,9,10
 304.432432432 579.792945488 304.432432432 579.792945488 272.716216216 609.896472744 c 128,-1,11
 241 640 241 640 197.5 640 c 128,-1,12
 154 640 154 640 123.5 612 c 128,-1,13
 93 584 93 584 93 532 c 1,14,-1
 21 532 l 1,15,16
 21 607 21 607 67.5 658 c 128,-1,17
 114 709 114 709 199 709 c 0,18,19
 251 709 251 709 293.5 682 c 0,20,21
 378.75 627.841176471 378.75 627.841176471 378.75 531.475 c 0,22,23
 378.75 472 378.75 472 343 420 c 0,24,25
 324 393 324 393 297.5 365.5 c 128,-1,26
 271 338 271 338 257.5 322.5 c 128,-1,27
 244 307 244 307 233 271.5 c 128,-1,28
 222 236 222 236 221 182 c 1,29,-1
 221 119 l 1,0,-1
224 38 m 128,-1,31
 224 22 224 22 213 11 c 128,-1,32
 202 0 202 0 186 0 c 128,-1,33
 170 0 170 0 159 11 c 128,-1,34
 148 22 148 22 148 38 c 128,-1,35
 148 54 148 54 159 65 c 128,-1,36
 170 76 170 76 186 76 c 128,-1,37
 202 76 202 76 213 65 c 128,-1,30
 224 54 224 54 224 38 c 128,-1,31
EndSplineSet
EndChar

StartChar: at
Encoding: 64 64 33
Width: 726
Flags: HMW
HStem: -17 55 131 68 133 55 505 68 676 55
VStem: 35 68 178 75 449 74 678 68
LayerCount: 2
Fore
SplineSet
536 91 m 1,0,1
 395.210702341 52.8695652174 395.210702341 52.8695652174 324.630434783 52.8695652174 c 0,2,3
 269.565217391 52.8695652174 269.565217391 52.8695652174 220.5 77 c 0,4,5
 156.985200846 108.236786469 156.985200846 108.236786469 151 204 c 1,6,-1
 151 305 l 2,7,8
 151 416 151 416 239 449 c 0,9,10
 274 461.894736842 274 461.894736842 313.479224377 461.894736842 c 0,11,12
 381.157894737 461.894736842 381.157894737 461.894736842 462 424 c 1,13,14
 456 474 456 474 418 497.5 c 128,-1,15
 380 521 380 521 329.5 521 c 128,-1,16
 279 521 279 521 238.5 512 c 128,-1,17
 198 503 198 503 163.5 483 c 0,18,19
 90 440.391304348 90 440.391304348 90 338 c 2,20,-1
 90 190 l 2,21,22
 90 120 90 120 126.5 74 c 128,-1,23
 163 28 163 28 214.5 11 c 128,-1,24
 266 -6 266 -6 334 -6 c 128,-1,25
 402 -6 402 -6 461 11 c 128,-1,26
 520 28 520 28 559.5 67.5 c 128,-1,27
 599 107 599 107 599 162 c 2,28,-1
 599 341 l 2,29,30
 599 420.090909091 599 420.090909091 606.5 433.045454545 c 128,-1,31
 614 446 614 446 623 460 c 0,32,33
 637.625 482.75 637.625 482.75 684 496 c 1,34,-1
 705 442 l 1,35,36
 668 427 668 427 668 370 c 2,37,-1
 669 173 l 2,38,39
 669 105 669 105 636.5 54.5 c 128,-1,40
 604 4 604 4 551 -22 c 0,41,42
 444.88096575 -74.0583941606 444.88096575 -74.0583941606 321.133913532 -74.0583941606 c 128,-1,43
 197.386861314 -74.0583941606 197.386861314 -74.0583941606 109.193430657 -8.52919708029 c 128,-1,44
 21 57 21 57 21 183 c 2,45,-1
 21 342 l 2,46,47
 21 398 21 398 39.5 441.5 c 128,-1,48
 58 485 58 485 88.5 511.5 c 0,49,50
 145.307636364 560.857454545 145.307636364 560.857454545 214 575 c 1,51,52
 254.8 586.2 254.8 586.2 282.5 586.2 c 128,-1,53
 310.2 586.2 310.2 586.2 344.1 584.1 c 128,-1,54
 378 582 378 582 425.5 567 c 128,-1,55
 473 552 473 552 504.5 508.5 c 128,-1,56
 536 465 536 465 536 399 c 1,57,-1
 573 383 l 1,58,-1
 573 317 l 1,59,-1
 536 333 l 1,60,-1
 536 91 l 1,0,1
464 356 m 1,61,62
 390.111111111 394 390.111111111 394 311.5 394 c 0,63,64
 272 394 272 394 246.5 370.5 c 128,-1,65
 221 347 221 347 221 300 c 2,66,-1
 221 215 l 2,67,68
 221 148 221 148 279.5 126.5 c 0,69,70
 300.638655462 118.731092437 300.638655462 118.731092437 342.084033613 118.731092437 c 128,-1,71
 383.529411765 118.731092437 383.529411765 118.731092437 464 143 c 1,72,-1
 464 356 l 1,61,62
EndSplineSet
EndChar

StartChar: A
Encoding: 65 65 34
Width: 527
Flags: HMW
HStem: 0 21G<15 93 15 15 436 517 436 436> 280 20G<178 349 349 349>
VStem: 93 343<0 0>
LayerCount: 2
Fore
SplineSet
517 0 m 1,0,-1
 436 0 l 1,1,-1
 367 226 l 1,2,-1
 159 226 l 1,3,-1
 93 0 l 1,4,-1
 15 0 l 1,5,-1
 221 700 l 1,6,-1
 304 700 l 1,7,-1
 517 0 l 1,0,-1
349 300 m 1,8,-1
 262 584 l 1,9,-1
 178 300 l 1,10,-1
 349 300 l 1,8,-1
EndSplineSet
EndChar

StartChar: B
Encoding: 66 66 35
Width: 546
Flags: HMW
HStem: 67 0<150 150 289 289> 413 0<150 150 279 279> 647 67
VStem: 78 72<67 67 67 343 413 630> 150 325<67 587.5 413 587.5 508.5 587.5 508.5 630> 150 361<67 259 160.5 259 160.5 343 160.5 413 160.5 630>
LayerCount: 2
Fore
SplineSet
305 0 m 2,0,-1
 78 0 l 1,1,-1
 78 700 l 1,2,-1
 294 700 l 2,3,4
 376 700 376 700 425.5 657 c 128,-1,5
 475 614 475 614 475 525 c 128,-1,6
 475 436 475 436 409 391 c 0,7,8
 408 390 408 390 408 389 c 2,9,-1
 408 388 l 1,10,11
 452 368 452 368 481.5 323.5 c 128,-1,12
 511 279 511 279 511 208 c 0,13,14
 511 145.172413793 511 145.172413793 484.5 94 c 0,15,16
 435.821428571 -3.5527136788e-14 435.821428571 -3.5527136788e-14 305 0 c 2,0,-1
150 413 m 1,17,-1
 279 413 l 2,18,19
 396 413 396 413 396 523 c 0,20,21
 396 630 396 630 277 630 c 2,22,-1
 150 630 l 1,23,-1
 150 413 l 1,17,-1
150 67 m 1,24,-1
 289 67 l 2,25,26
 356 67 356 67 393.5 98 c 128,-1,27
 431 129 431 129 431 203 c 128,-1,28
 431 277 431 277 393.5 310 c 128,-1,29
 356 343 356 343 303 343 c 2,30,-1
 150 343 l 1,31,-1
 150 67 l 1,24,-1
EndSplineSet
EndChar

StartChar: C
Encoding: 67 67 36
Width: 434
Flags: HMW
HStem: -12 52 659 51
VStem: 66 72<183 185 185 504 504 513>
LayerCount: 2
Fore
SplineSet
138 185 m 2,0,1
 138 59.6074074074 138 59.6074074074 274.696899863 59.6074074074 c 0,2,3
 334.007407407 59.6074074074 334.007407407 59.6074074074 413 87 c 1,4,-1
 427 23 l 1,5,6
 341.745951417 -10.0576923077 341.745951417 -10.0576923077 265.350591716 -10.0576923077 c 0,7,8
 248.615384615 -10.0576923077 248.615384615 -10.0576923077 216.307692308 -7.02884615385 c 128,-1,9
 184 -4 184 -4 147.5 15.5 c 128,-1,10
 111 35 111 35 88.5 77.5 c 128,-1,11
 66 120 66 120 66 183 c 2,12,-1
 66 504 l 2,13,14
 66 580 66 580 87.5 619 c 128,-1,15
 109 658 109 658 153 685 c 1,16,17
 198.161290323 710.290322581 198.161290323 710.290322581 259.638917794 710.290322581 c 0,18,19
 336.529032258 710.290322581 336.529032258 710.290322581 402 677 c 1,20,-1
 381 620 l 1,21,22
 327 640 327 640 285 640 c 128,-1,23
 243 640 243 640 214.5 631.5 c 128,-1,24
 186 623 186 623 162 592.5 c 128,-1,25
 138 562 138 562 138 513 c 2,26,-1
 138 185 l 2,0,1
EndSplineSet
EndChar

StartChar: D
Encoding: 68 68 37
Width: 576
Flags: HMW
HStem: 0 632<150 276 150 286 78 276> 190 511<78 426>
VStem: 78 348<190 484 484 538 190 701 190 701> 270 228<65 200>
LayerCount: 2
Fore
SplineSet
286 0 m 2,0,-1
 78 0 l 1,1,-1
 78 701 l 1,2,-1
 266 701 l 2,3,4
 379 701 379 701 438.5 639 c 128,-1,5
 498 577 498 577 498 474 c 2,6,-1
 498 200 l 2,7,8
 498 0 498 0 286 0 c 2,0,-1
426 190 m 2,9,-1
 426 484 l 2,10,11
 426 559 426 559 382.5 595.5 c 128,-1,12
 339 632 339 632 276 632 c 2,13,-1
 150 632 l 1,14,-1
 150 65 l 1,15,-1
 270 65 l 2,16,17
 381.094339623 65 381.094339623 65 412 123.5 c 0,18,19
 426 150 426 150 426 190 c 2,9,-1
EndSplineSet
EndChar

StartChar: E
Encoding: 69 69 38
Width: 465
Flags: HMW
HStem: 0 65<150 410 150 410> 631 69<150 412 150 150>
VStem: 78 72<65 343 413 631>
LayerCount: 2
Fore
SplineSet
410 0 m 1,0,-1
 78 0 l 1,1,-1
 78 700 l 1,2,-1
 412 700 l 1,3,-1
 412 631 l 1,4,-1
 150 631 l 1,5,-1
 150 413 l 1,6,-1
 325 413 l 1,7,-1
 302 343 l 1,8,-1
 150 343 l 1,9,-1
 150 65 l 1,10,-1
 410 65 l 1,11,-1
 410 0 l 1,0,-1
EndSplineSet
EndChar

StartChar: F
Encoding: 70 70 39
Width: 447
Flags: HMW
HStem: 630 70<150 412 150 150>
VStem: 78 72<0 343 413 630> 421 48
LayerCount: 2
Fore
SplineSet
150 0 m 1,0,-1
 78 0 l 1,1,-1
 78 700 l 1,2,-1
 412 700 l 1,3,-1
 412 630 l 1,4,-1
 150 630 l 1,5,-1
 150 413 l 1,6,-1
 312 413 l 1,7,-1
 285 343 l 1,8,-1
 150 343 l 1,9,-1
 150 0 l 1,0,-1
EndSplineSet
EndChar

StartChar: G
Encoding: 71 71 40
Width: 537
Flags: HMW
HStem: -10 41 0 21G<416 476 416 416> 659 51
VStem: 65 72<189 503 503 512> 404 72<31 31>
LayerCount: 2
Fore
SplineSet
476 0 m 1,0,-1
 416 0 l 1,1,-1
 404 31 l 1,2,3
 356 -10 356 -10 272 -10 c 128,-1,4
 188 -10 188 -10 126.5 40 c 128,-1,5
 65 90 65 90 65 189 c 2,6,-1
 65 503 l 2,7,8
 65 631 65 631 152 684 c 1,9,10
 197.161290323 709.290322581 197.161290323 709.290322581 258.638917794 709.290322581 c 0,11,12
 335.529032258 709.290322581 335.529032258 709.290322581 401 676 c 1,13,-1
 380 620 l 1,14,15
 326 640 326 640 277 640 c 0,16,17
 137 640 137 640 137 512 c 2,18,-1
 137 187 l 2,19,20
 137 126 137 126 175 93.5 c 128,-1,21
 213 61 213 61 273 61 c 128,-1,22
 333 61 333 61 369.5 94 c 128,-1,23
 406 127 406 127 406 186 c 2,24,-1
 406 230 l 1,25,-1
 343 230 l 1,26,-1
 319 300 l 1,27,-1
 476 300 l 1,28,-1
 476 0 l 1,0,-1
EndSplineSet
EndChar

StartChar: H
Encoding: 72 72 41
Width: 588
Flags: HMW
VStem: 78 72<0 343 0 413 413 700> 175 47 436 72<0 343 343 343 413 700>
LayerCount: 2
Fore
SplineSet
508 0 m 1,0,-1
 436 0 l 1,1,-1
 436 343 l 1,2,-1
 150 343 l 1,3,-1
 150 0 l 1,4,-1
 78 0 l 1,5,-1
 78 700 l 1,6,-1
 150 700 l 1,7,-1
 150 413 l 1,8,-1
 436 413 l 1,9,-1
 436 700 l 1,10,-1
 508 700 l 1,11,-1
 508 0 l 1,0,-1
EndSplineSet
EndChar

StartChar: I
Encoding: 73 73 42
Width: 279
Flags: HMW
VStem: 130 72<0 632 632 632>
LayerCount: 2
Fore
SplineSet
202 0 m 1,0,-1
 130 0 l 1,1,-1
 130 632 l 1,2,-1
 64 634 l 1,3,-1
 64 700 l 1,4,-1
 202 700 l 1,5,-1
 202 0 l 1,0,-1
EndSplineSet
EndChar

StartChar: J
Encoding: 74 74 43
Width: 207
Flags: HMW
HStem: -17 80
VStem: 94 72<127 632 632 632> 294 47
LayerCount: 2
Fore
SplineSet
25 -37 m 1,0,-1
 5 17 l 1,1,2
 40 17 40 17 67 41.5 c 128,-1,3
 94 66 94 66 94 127 c 2,4,-1
 94 632 l 1,5,-1
 29 634 l 1,6,-1
 29 700 l 1,7,-1
 166 700 l 1,8,-1
 166 124 l 2,9,10
 166 -36 166 -36 25 -37 c 1,0,-1
EndSplineSet
EndChar

StartChar: K
Encoding: 75 75 44
Width: 492
Flags: HMW
HStem: 0 21G<79 154 79 79 404 492 404 404> 694 20G
VStem: 79 75<0 269 395 701>
LayerCount: 2
Fore
SplineSet
492 0 m 1,0,-1
 404 0 l 1,1,-1
 189 325 l 1,2,-1
 154 269 l 1,3,-1
 154 0 l 1,4,-1
 79 0 l 1,5,-1
 79 701 l 1,6,-1
 154 701 l 1,7,-1
 154 395 l 1,8,-1
 359 701 l 1,9,-1
 444 701 l 1,10,-1
 234 391 l 1,11,-1
 492 0 l 1,0,-1
EndSplineSet
EndChar

StartChar: L
Encoding: 76 76 45
Width: 440
Flags: HMW
HStem: 0 80 694 20G
VStem: 78 99
LayerCount: 2
Fore
SplineSet
439 0 m 1,0,-1
 78 0 l 1,1,-1
 78 700 l 1,2,-1
 150 700 l 1,3,-1
 150 65 l 1,4,-1
 439 65 l 1,5,-1
 439 0 l 1,0,-1
EndSplineSet
EndChar

StartChar: M
Encoding: 77 77 46
Width: 694
Flags: HMW
HStem: 0 21G<78 150 78 78 311 379 311 311 542 614 542 542> 0 131<345 345 345 379 311 345> 485 215<78 150>
VStem: 78 72<0 485 0 700> 542 72<0 485 485 485>
LayerCount: 2
Fore
SplineSet
614 0 m 1,0,-1
 542 0 l 1,1,-1
 542 485 l 1,2,-1
 379 0 l 1,3,-1
 311 0 l 1,4,-1
 150 485 l 1,5,-1
 150 0 l 1,6,-1
 78 0 l 1,7,-1
 78 700 l 1,8,-1
 150 700 l 1,9,-1
 345 131 l 1,10,-1
 542 700 l 1,11,-1
 614 700 l 1,12,-1
 614 0 l 1,0,-1
EndSplineSet
EndChar

StartChar: N
Encoding: 78 78 47
Width: 650
Flags: HMW
HStem: 0 141<497 570 497 497> 560 140<78 150>
VStem: 5 48 78 72<0 560 0 700> 497 73<0 0 141 700>
LayerCount: 2
Fore
SplineSet
570 0 m 1,0,-1
 497 0 l 1,1,-1
 150 560 l 1,2,-1
 150 0 l 1,3,-1
 78 0 l 1,4,-1
 78 700 l 1,5,-1
 150 700 l 1,6,-1
 497 141 l 1,7,-1
 497 700 l 1,8,-1
 570 700 l 1,9,-1
 570 0 l 1,0,-1
EndSplineSet
EndChar

StartChar: O
Encoding: 79 79 48
Width: 549
Flags: HMW
HStem: 0 42 643 73<229 317.5>
VStem: 63 72<185 191 191 502> 154 49 411 72<193 502 502 506>
LayerCount: 2
Fore
SplineSet
483 506 m 2,0,-1
 483 185 l 2,1,2
 483 84 483 84 421.5 36.5 c 128,-1,3
 360 -11 360 -11 274 -11 c 128,-1,4
 188 -11 188 -11 125.5 36.5 c 128,-1,5
 63 84 63 84 63 185 c 2,6,-1
 63 507 l 2,7,8
 63 610 63 610 119.5 663 c 128,-1,9
 176 716 176 716 275 716 c 128,-1,10
 374 716 374 716 428.5 660 c 128,-1,11
 483 604 483 604 483 506 c 2,0,-1
411 193 m 2,12,-1
 411 502 l 2,13,14
 411 571 411 571 375.5 607 c 128,-1,15
 340 643 340 643 273 643 c 0,16,17
 135 643 135 643 135 502 c 2,18,-1
 135 191 l 2,19,20
 135 127 135 127 173 93.5 c 128,-1,21
 211 60 211 60 273 60 c 128,-1,22
 335 60 335 60 373 93.5 c 128,-1,23
 411 127 411 127 411 193 c 2,12,-1
EndSplineSet
EndChar

StartChar: P
Encoding: 80 80 49
Width: 547
Flags: HMW
HStem: 0 21G<78 150 78 78> 0 630<78 313 78 313>
VStem: 78 48 150 0<0 0 230 230 300 300 630 630> 319 121
LayerCount: 2
Fore
SplineSet
150 300 m 1,0,-1
 317 300 l 2,1,2
 353 300 353 300 378 314 c 128,-1,3
 403 328 403 328 414.5 344 c 128,-1,4
 426 360 426 360 432.5 390 c 128,-1,5
 439 420 439 420 439.5 435 c 128,-1,6
 440 450 440 450 440 478 c 0,7,8
 440 630 440 630 313 630 c 2,9,-1
 150 630 l 1,10,-1
 150 300 l 1,0,-1
150 0 m 1,11,-1
 78 0 l 1,12,-1
 78 700 l 1,13,-1
 319 700 l 2,14,15
 417 700 417 700 464.5 639 c 128,-1,16
 512 578 512 578 512 479 c 0,17,18
 512 444 512 444 510 418.5 c 128,-1,19
 508 393 508 393 497.5 354.5 c 128,-1,20
 487 316 487 316 469 291.5 c 128,-1,21
 451 267 451 267 414 248.5 c 128,-1,22
 377 230 377 230 326 230 c 2,23,-1
 150 230 l 1,24,-1
 150 0 l 1,11,-1
EndSplineSet
EndChar

StartChar: Q
Encoding: 81 81 50
Width: 549
Flags: HMW
HStem: -101 91 61 21G 644 72<229 317.5>
VStem: 63 72<185 186 186 507 507 513> 236 72<117 118 118 174 107 174> 411 72<187 506>
LayerCount: 2
Fore
SplineSet
429 -35 m 1,0,-1
 425 -101 l 1,1,2
 423.64516129 -101.010752688 423.64516129 -101.010752688 422.300034686 -101.010752688 c 0,3,4
 298.548387097 -101.010752688 298.548387097 -101.010752688 257 -10 c 1,5,6
 180.732970027 -5.76294277929 180.732970027 -5.76294277929 127 35 c 0,7,8
 98 57 98 57 80.5 95.5 c 128,-1,9
 63 134 63 134 63 185 c 2,10,-1
 63 507 l 2,11,12
 63 610 63 610 119.5 663 c 128,-1,13
 176 716 176 716 275 716 c 128,-1,14
 374 716 374 716 428.5 660 c 128,-1,15
 483 604 483 604 483 506 c 2,16,-1
 483 185 l 2,17,18
 483 99 483 99 439 52.5 c 128,-1,19
 395 6 395 6 330 -5 c 1,20,21
 355 -35 355 -35 429 -35 c 1,0,-1
411 187 m 2,22,-1
 411 513 l 2,23,24
 411 574 411 574 375 609 c 128,-1,25
 339 644 339 644 273 644 c 128,-1,26
 207 644 207 644 171 610 c 128,-1,27
 135 576 135 576 135 513 c 2,28,-1
 135 186 l 2,29,30
 135 135 135 135 163.5 99.5 c 128,-1,31
 192 64 192 64 239 60 c 1,32,33
 236 78 236 78 236 117 c 2,34,-1
 236 174 l 1,35,-1
 308 174 l 1,36,-1
 308 118 l 2,37,38
 308 78 308 78 310 61 c 1,39,40
 357 66 357 66 384 100 c 128,-1,41
 411 134 411 134 411 187 c 2,22,-1
EndSplineSet
EndChar

StartChar: R
Encoding: 82 82 51
Width: 564
Flags: HMW
HStem: 300 400<150 319 319 321 321 379>
VStem: 78 72<0 230 300 630> 150 362<0 541 444.5 541 444.5 630 300 541>
LayerCount: 2
Fore
SplineSet
513 0 m 1,0,-1
 439 0 l 1,1,-1
 360 232 l 1,2,3
 342 230 342 230 328 230 c 2,4,-1
 150 230 l 1,5,-1
 150 0 l 1,6,-1
 78 0 l 1,7,-1
 78 700 l 1,8,-1
 321 700 l 2,9,10
 417 700 417 700 464.5 639 c 128,-1,11
 512 578 512 578 512 479 c 0,12,13
 512 356.243243243 512 356.243243243 474.5 300.5 c 0,14,15
 456 273 456 273 427 255 c 1,16,-1
 513 0 l 1,0,-1
150 300 m 1,17,-1
 319 300 l 2,18,19
 378.5 300 378.5 300 403.5 334 c 0,20,21
 416 351 416 351 423.5 366 c 128,-1,22
 431 381 431 381 434 406 c 0,23,24
 438 439.333333333 438 439.333333333 438 479 c 0,25,26
 438 630 438 630 310 630 c 2,27,-1
 150 630 l 1,28,-1
 150 300 l 1,17,-1
EndSplineSet
EndChar

StartChar: S
Encoding: 83 83 52
Width: 561
Flags: HMW
HStem: -17 80 651 80
VStem: 37 75<178 183> 55 76 404 22 434 78<143 284>
LayerCount: 2
Fore
SplineSet
37 178 m 1,0,-1
 112 183 l 1,1,2
 117 133 117 133 160.5 96 c 128,-1,3
 204 59 204 59 273.5 59 c 128,-1,4
 343 59 343 59 388.5 91.5 c 128,-1,5
 434 124 434 124 434 186 c 0,6,7
 434 232 434 232 406 264.5 c 128,-1,8
 378 297 378 297 336 314 c 128,-1,9
 294 331 294 331 244.5 351 c 128,-1,10
 195 371 195 371 153 390 c 128,-1,11
 111 409 111 409 83 447 c 128,-1,12
 55 485 55 485 55 538 c 0,13,14
 55 608 55 608 113 659 c 128,-1,15
 171 710 171 710 280 710 c 0,16,17
 363 710 363 710 426 680 c 1,18,19
 426 678 426 678 404 612 c 1,20,21
 342 639 342 639 276.5 639 c 128,-1,22
 211 639 211 639 170.987951807 610.843373494 c 128,-1,23
 130.975903614 582.686746988 130.975903614 582.686746988 130.975903614 535.349542749 c 0,24,25
 130.975903614 476.981218994 130.975903614 476.981218994 208 443 c 0,26,27
 242 428 242 428 282.5 413.5 c 128,-1,28
 323 399 323 399 363 381 c 128,-1,29
 403 363 403 363 436.5 340 c 128,-1,30
 470 317 470 317 491 279.5 c 128,-1,31
 512 242 512 242 512 193 c 0,32,33
 512 101 512 101 453.5 45 c 128,-1,34
 395 -11 395 -11 279.5 -11 c 128,-1,35
 164 -11 164 -11 101.5 46.5 c 128,-1,36
 39 104 39 104 37 178 c 1,0,-1
EndSplineSet
EndChar

StartChar: T
Encoding: 84 84 53
Width: 402
Flags: HMW
HStem: 0 21G<162 234 162 162> 634 80
VStem: -76 48 162 72<0 632>
LayerCount: 2
Fore
SplineSet
234 0 m 1,0,-1
 162 0 l 1,1,-1
 162 632 l 1,2,-1
 0 632 l 1,3,-1
 0 700 l 1,4,-1
 402 700 l 1,5,-1
 402 632 l 1,6,-1
 234 632 l 1,7,-1
 234 0 l 1,0,-1
EndSplineSet
EndChar

StartChar: U
Encoding: 85 85 54
Width: 566
Flags: HMW
HStem: -17 80 694 20G
VStem: 74 72<186 194 194 701> 423 72<194 701>
LayerCount: 2
Fore
SplineSet
423 194 m 2,0,-1
 423 701 l 1,1,-1
 495 701 l 1,2,-1
 495 186 l 2,3,4
 495 133 495 133 476.5 94 c 128,-1,5
 458 55 458 55 426.5 34 c 128,-1,6
 395 13 395 13 360 3 c 128,-1,7
 325 -7 325 -7 285 -7 c 128,-1,8
 245 -7 245 -7 209.5 3 c 128,-1,9
 174 13 174 13 142.5 34 c 128,-1,10
 111 55 111 55 92.5 94 c 128,-1,11
 74 133 74 133 74 186 c 2,12,-1
 74 701 l 1,13,-1
 146 701 l 1,14,-1
 146 194 l 2,15,16
 146 132 146 132 183.5 96 c 128,-1,17
 221 60 221 60 284.5 60 c 0,18,19
 348 60 348 60 385.5 96 c 128,-1,20
 423 132 423 132 423 194 c 2,0,-1
EndSplineSet
EndChar

StartChar: V
Encoding: 86 86 55
Width: 591
Flags: HMW
HStem: 0 21G<271 364 271 271> 0 95 694 20G
VStem: 157 319<700 700>
LayerCount: 2
Fore
SplineSet
364 0 m 1,0,-1
 271 0 l 1,1,-1
 78 700 l 1,2,-1
 157 700 l 1,3,-1
 317 113 l 1,4,-1
 476 700 l 1,5,-1
 556 700 l 1,6,-1
 364 0 l 1,0,-1
EndSplineSet
EndChar

StartChar: W
Encoding: 87 87 56
Width: 809
Flags: HMW
HStem: 0 21G<234 332 234 234 523 620 523 523> 0 120 600 114 694 20G
VStem: 78 696<700 700>
LayerCount: 2
Fore
SplineSet
620 0 m 1,0,-1
 523 0 l 1,1,-1
 427 525 l 1,2,-1
 332 0 l 1,3,-1
 234 0 l 1,4,-1
 78 700 l 1,5,-1
 156 700 l 1,6,-1
 281 124 l 1,7,-1
 388 700 l 1,8,-1
 466 700 l 1,9,-1
 573 124 l 1,10,-1
 694 700 l 1,11,-1
 774 700 l 1,12,-1
 620 0 l 1,0,-1
EndSplineSet
EndChar

StartChar: X
Encoding: 88 88 57
Width: 648
Flags: HMW
HStem: 0 21G<78 167 78 78 515 606 515 515> 694 20G
VStem: 95 495<700 700>
LayerCount: 2
Fore
SplineSet
606 0 m 1,0,-1
 515 0 l 1,1,-1
 341 279 l 1,2,-1
 167 0 l 1,3,-1
 78 0 l 1,4,-1
 298 351 l 1,5,-1
 95 700 l 1,6,-1
 178 700 l 1,7,-1
 342 425 l 1,8,-1
 506 700 l 1,9,-1
 590 700 l 1,10,-1
 386 354 l 1,11,-1
 606 0 l 1,0,-1
EndSplineSet
EndChar

StartChar: Y
Encoding: 89 89 58
Width: 556
Flags: HMW
HStem: 0 21G 694 20G
VStem: 56 73<441 700> 427 73<156 272 272 272 383 700>
LayerCount: 2
Fore
SplineSet
382 -11 m 1,0,-1
 362 40 l 1,1,2
 391 49 391 49 409 73.5 c 128,-1,3
 427 98 427 98 427 156 c 2,4,-1
 427 272 l 1,5,6
 378 230 378 230 279 230 c 0,7,8
 180 230 180 230 118 284.5 c 128,-1,9
 56 339 56 339 56 441 c 2,10,-1
 56 700 l 1,11,-1
 129 700 l 1,12,-1
 129 437 l 2,13,14
 129 370 129 370 171 335.5 c 128,-1,15
 213 301 213 301 276.5 301 c 0,16,17
 340 301 340 301 378.5 322.5 c 128,-1,18
 417 344 417 344 427 383 c 1,19,-1
 427 700 l 1,20,-1
 500 700 l 1,21,-1
 500 156 l 2,22,23
 500 4 500 4 382 -11 c 1,0,-1
EndSplineSet
EndChar

StartChar: Z
Encoding: 90 90 59
Width: 550
Flags: HMW
HStem: 0 80 634 80
VStem: 31 487<0 65 65 65>
LayerCount: 2
Fore
SplineSet
518 0 m 1,0,-1
 31 0 l 1,1,-1
 31 65 l 1,2,-1
 421 631 l 1,3,-1
 44 631 l 1,4,-1
 44 700 l 1,5,-1
 512 700 l 1,6,-1
 512 632 l 1,7,-1
 122 67 l 1,8,-1
 518 67 l 1,9,-1
 518 0 l 1,0,-1
EndSplineSet
EndChar

StartChar: bracketleft
Encoding: 91 91 60
Width: 319
Flags: HMW
HStem: -198 68 663 68
VStem: 78 72<-41 744 -41 817>
LayerCount: 2
Fore
SplineSet
239 -114 m 1,0,-1
 78 -114 l 1,1,-1
 78 817 l 1,2,-1
 239 817 l 1,3,-1
 239 754 l 1,4,-1
 150 744 l 1,5,-1
 150 -41 l 1,6,-1
 239 -51 l 1,7,-1
 239 -114 l 1,0,-1
EndSplineSet
EndChar

StartChar: backslash
Encoding: 92 92 61
Width: 513
Flags: HMW
HStem: -17 21G 711 20G
VStem: 42 274 56 456
LayerCount: 2
Fore
SplineSet
472 -114 m 1,0,-1
 395 -114 l 1,1,-1
 72 817 l 1,2,-1
 148 817 l 1,3,-1
 472 -114 l 1,0,-1
EndSplineSet
EndChar

StartChar: bracketright
Encoding: 93 93 62
Width: 319
Flags: HMW
HStem: -198 68 663 68
VStem: 167 72<-41 744 744 744> 191 56
LayerCount: 2
Fore
SplineSet
239 -114 m 1,0,-1
 78 -114 l 1,1,-1
 78 -51 l 1,2,-1
 167 -41 l 1,3,-1
 167 744 l 1,4,-1
 78 754 l 1,5,-1
 78 817 l 1,6,-1
 239 817 l 1,7,-1
 239 -114 l 1,0,-1
EndSplineSet
EndChar

StartChar: asciicircum
Encoding: 94 94 63
Width: 403
Flags: HMW
HStem: 264 433
VStem: 78 290<758 758>
LayerCount: 2
Fore
SplineSet
368 758 m 1,0,-1
 321 719 l 1,1,-1
 225 817 l 1,2,-1
 124 719 l 1,3,-1
 78 758 l 1,4,-1
 226 899 l 1,5,-1
 368 758 l 1,0,-1
EndSplineSet
EndChar

StartChar: underscore
Encoding: 95 95 64
Width: 350
Flags: HMW
HStem: -125 50
VStem: 73 320<-61 0 -61 0>
LayerCount: 2
Fore
SplineSet
393 -61 m 1,0,-1
 73 -61 l 1,1,-1
 73 0 l 1,2,-1
 393 0 l 1,3,-1
 393 -61 l 1,0,-1
EndSplineSet
EndChar

StartChar: quoteleft
Encoding: 8216 8216 65
Width: 114
Flags: HMW
HStem: 456 111 518 111 633 84
VStem: 0 81<589 592.5 589 620> 4 104
LayerCount: 2
Fore
SplineSet
48 632 m 1,0,-1
 59 629 l 1,1,2
 81 616 81 616 80.5 594.5 c 128,-1,3
 80 573 80 573 68.5217391304 562.956521739 c 128,-1,4
 57.0434782609 552.913043478 57.0434782609 552.913043478 48.7608695652 552.913043478 c 0,5,6
 23.8928571429 552.913043478 23.8928571429 552.913043478 11.9464285714 567.456521739 c 128,-1,7
 0 582 0 582 0 597 c 0,8,9
 0 657 0 657 65 713 c 1,10,-1
 114 685 l 1,11,12
 73.68 661.96 73.68 661.96 48 632 c 1,0,-1
EndSplineSet
EndChar

StartChar: a
Encoding: 97 97 66
Width: 458
Flags: HMW
HStem: -12 51 456 53<214 263.5>
VStem: 37 313<169 252 252 288> 109 313<117.5 168 168 246>
LayerCount: 2
Fore
SplineSet
37 252 m 2,0,1
 37 401.225352113 37 401.225352113 188.802618528 401.225352113 c 0,2,3
 210.338028169 401.225352113 210.338028169 401.225352113 233.5 397.5 c 0,4,5
 305 386 305 386 350 353 c 1,6,7
 350 456 350 456 209 456 c 1,8,-1
 214 509 l 1,9,10
 295 509 295 509 334 489.5 c 0,11,12
 355 479 355 479 371 468 c 128,-1,13
 387 457 387 457 396 439 c 128,-1,14
 405 421 405 421 411 407.5 c 128,-1,15
 417 394 417 394 419 371 c 0,16,17
 422 336.5 422 336.5 422 298 c 2,18,-1
 422 0 l 1,19,20
 317.792170503 -9.83092731104 317.792170503 -9.83092731104 256.334339872 -9.83092731104 c 0,21,22
 37 -9.83092731104 37 -9.83092731104 37 169 c 2,23,-1
 37 252 l 2,0,1
350 61 m 1,24,-1
 350 288 l 1,25,26
 282.495897903 322.774840474 282.495897903 322.774840474 203 331.5 c 0,27,28
 195.903846154 332.278846154 195.903846154 332.278846154 189.242048817 332.278846154 c 0,29,30
 157.413461538 332.278846154 157.413461538 332.278846154 133.206730769 312.639423077 c 128,-1,31
 109 293 109 293 109 246 c 2,32,-1
 109 168 l 2,33,34
 109 54.3942857143 109 54.3942857143 265.451297959 54.3942857143 c 0,35,36
 303.177142857 54.3942857143 303.177142857 54.3942857143 350 61 c 1,24,-1
EndSplineSet
EndChar

StartChar: b
Encoding: 98 98 67
Width: 482
Flags: HMW
HStem: 680 20G<78 150 150 150>
VStem: 78 72<62 412 482 700> 376 71<156 157 157 335 335 346>
LayerCount: 2
Fore
SplineSet
150 482 m 1,0,1
 196.74 509.36 196.74 509.36 256.93 509.36 c 128,-1,2
 317.12 509.36 317.12 509.36 362 490 c 1,3,4
 447 451 447 451 447 346 c 2,5,-1
 447 157 l 2,6,7
 447 58 447 58 369 18 c 0,8,9
 310 -12 310 -12 237 -12 c 128,-1,10
 164 -12 164 -12 78 0 c 1,11,-1
 78 700 l 1,12,-1
 150 700 l 1,13,-1
 150 482 l 1,0,1
376 156 m 2,14,-1
 376 335 l 2,15,16
 376 383 376 383 350.5 409.5 c 0,17,18
 320.560463122 440.613636364 320.560463122 440.613636364 264.454545455 440.613636364 c 1,19,-1
 214 435.5 l 1,20,21
 177 428 177 428 150 412 c 1,22,-1
 150 62 l 1,23,24
 200.4 55.4666666667 200.4 55.4666666667 225.533333333 55.4666666667 c 128,-1,25
 250.666666667 55.4666666667 250.666666667 55.4666666667 254 55.5 c 0,26,27
 304 56 304 56 340 82 c 128,-1,28
 376 108 376 108 376 156 c 2,14,-1
EndSplineSet
EndChar

StartChar: c
Encoding: 99 99 68
Width: 383
Flags: HMW
HStem: -12 51 460 69
VStem: 36 72<180 308 308 314>
LayerCount: 2
Fore
SplineSet
247.86 57.6 m 0,0,1
 291.4 57.6 291.4 57.6 341 70 c 1,2,-1
 358 6 l 1,3,4
 294 -11.0666666667 294 -11.0666666667 242 -11.0666666667 c 128,-1,5
 190 -11.0666666667 190 -11.0666666667 139.5 5.46666666667 c 0,6,7
 36 39.3518151815 36 39.3518151815 36 180 c 2,8,-1
 36 308 l 2,9,10
 36 379 36 379 64 427 c 0,11,12
 112.239130435 509.695652174 112.239130435 509.695652174 221.506616257 509.695652174 c 0,13,14
 287.913043478 509.695652174 287.913043478 509.695652174 356 478 c 1,15,-1
 336 421 l 1,16,17
 276.355555556 442.511111111 276.355555556 442.511111111 226.271604938 442.511111111 c 0,18,19
 173.495854063 442.511111111 173.495854063 442.511111111 140.747927032 408.755555556 c 128,-1,20
 108 375 108 375 108 314 c 2,21,-1
 108 169 l 2,22,23
 108 57.6 108 57.6 247.86 57.6 c 0,0,1
EndSplineSet
EndChar

StartChar: d
Encoding: 100 100 69
Width: 482
Flags: HMW
HStem: -11 50 0 63 459 50 694 20G
VStem: 78 297<157 346 346 384> 375 72<63 412 412 412 481 700 0 700>
LayerCount: 2
Fore
SplineSet
163 490 m 1,0,1
 207 508.980392157 207 508.980392157 269.431781046 508.980392157 c 128,-1,2
 331.863562092 508.980392157 331.863562092 508.980392157 375 481 c 1,3,-1
 375 700 l 1,4,-1
 447 700 l 1,5,-1
 447 0 l 1,6,7
 361 -12 361 -12 288 -12 c 128,-1,8
 215 -12 215 -12 156 18 c 0,9,10
 78 58 78 58 78 157 c 2,11,-1
 78 346 l 2,12,13
 78 451 78 451 163 490 c 1,0,1
375 412 m 1,14,15
 323.465473146 440.260869565 323.465473146 440.260869565 261.403591682 440.260869565 c 0,16,17
 202.464031621 440.260869565 202.464031621 440.260869565 175.73201581 409.630434783 c 128,-1,18
 149 379 149 379 149 332 c 2,19,-1
 149 154 l 2,20,21
 149 108 149 108 182.5 82.5 c 0,22,23
 218.25210084 55.2857142857 218.25210084 55.2857142857 271.340336134 55.2857142857 c 128,-1,24
 324.428571429 55.2857142857 324.428571429 55.2857142857 375 63 c 1,25,-1
 375 412 l 1,14,15
EndSplineSet
EndChar

StartChar: e
Encoding: 101 101 70
Width: 434
Flags: HMW
HStem: -12 51 190 254<107 237> 258 252<107 274.5>
VStem: 35 287<269 339 339 346 346 385.5 269 394> 107 288<89.5 342 138 342 258 258 258 338>
LayerCount: 2
Fore
SplineSet
107 138 m 2,0,1
 107 53.3495934959 107 53.3495934959 207.260691387 53.3495934959 c 0,2,3
 269.016260163 53.3495934959 269.016260163 53.3495934959 343 94 c 1,4,-1
 370 35 l 1,5,6
 292.54025974 -12.1038961039 292.54025974 -12.1038961039 208.575324675 -12.1038961039 c 0,7,8
 35 -12.1038961039 35 -12.1038961039 35 134 c 2,9,-1
 35 339 l 2,10,11
 35 420 35 420 85.5 465 c 128,-1,12
 136 510 136 510 219 510 c 128,-1,13
 302 510 302 510 348.5 465.5 c 128,-1,14
 395 421 395 421 395 342 c 2,15,-1
 395 205 l 1,16,-1
 107 190 l 1,17,-1
 107 138 l 2,0,1
322 269 m 1,18,-1
 322 346 l 2,19,20
 322 399 322 399 289 421.5 c 128,-1,21
 256 444 256 444 212 444 c 128,-1,22
 168 444 168 444 137.5 417 c 128,-1,23
 107 390 107 390 107 338 c 2,24,-1
 107 258 l 1,25,-1
 322 269 l 1,18,-1
EndSplineSet
EndChar

StartChar: f
Encoding: 102 102 71
Width: 303
Flags: HMW
HStem: 0 21G<78 151 78 78> 433 68<151 233 151 257> 643 64<257 268>
VStem: 78 73<0 433 501 549>
LayerCount: 2
Fore
SplineSet
151 0 m 1,0,-1
 78 0 l 1,1,-1
 78 549 l 2,2,3
 78 601 78 601 96 637.5 c 128,-1,4
 114 674 114 674 142 688.5 c 0,5,6
 186.551724138 711.571428571 186.551724138 711.571428571 231.755102041 711.571428571 c 0,7,8
 250.285714286 711.571428571 250.285714286 711.571428571 268 707 c 1,9,-1
 257 643 l 1,10,11
 244.147540984 645.098360656 244.147540984 645.098360656 232.705455523 645.098360656 c 0,12,13
 200.524590164 645.098360656 200.524590164 645.098360656 175.762295082 625.549180328 c 128,-1,14
 151 606 151 606 151 549 c 2,15,-1
 151 501 l 1,16,-1
 257 501 l 1,17,-1
 233 433 l 1,18,-1
 151 433 l 1,19,-1
 151 0 l 1,0,-1
EndSplineSet
EndChar

StartChar: g
Encoding: 103 103 72
Width: 448
Flags: HMW
HStem: -210 56<274 292> -12 454<193 252.5> 56 454<187.5 253 170 257.5>
VStem: 37 305<190 325 325 330 330 368.5> 342 72<-58 45 45 45 190 330 330 368.5>
LayerCount: 2
Fore
SplineSet
292 -210 m 1,0,-1
 274 -154 l 1,1,2
 342 -135 342 -135 342 -58 c 2,3,-1
 342 45 l 1,4,5
 308 -12 308 -12 221.5 -12 c 0,6,7
 135 -12 135 -12 86 36 c 128,-1,8
 37 84 37 84 37 176 c 2,9,-1
 37 325 l 2,10,11
 37 413 37 413 88.5 461.5 c 128,-1,12
 140 510 140 510 225.5 510 c 0,13,14
 311 510 311 510 345 457 c 1,15,-1
 348 501 l 1,16,-1
 414 501 l 1,17,-1
 414 -64 l 2,18,19
 414 -127 414 -127 385.5 -162 c 128,-1,20
 357 -197 357 -197 292 -210 c 1,0,-1
342 190 m 2,21,-1
 342 330 l 2,22,23
 342 385 342 385 308.5 413.5 c 128,-1,24
 275 442 275 442 224.5 442 c 0,25,26
 174 442 174 442 141.5 411.5 c 128,-1,27
 109 381 109 381 109 320 c 2,28,-1
 109 174 l 2,29,30
 109 117 109 117 139 86.5 c 128,-1,31
 169 56 169 56 223 56 c 128,-1,32
 277 56 277 56 309.5 90.5 c 128,-1,33
 342 125 342 125 342 190 c 2,21,-1
EndSplineSet
EndChar

StartChar: h
Encoding: 104 104 73
Width: 493
Flags: HMW
HStem: 0 21G<64 136 64 64 361 433 361 361> 460 49 694 20G
VStem: 64 72<0 414 0 481 481 700> 361 72<0 332 332 346>
LayerCount: 2
Fore
SplineSet
136 481 m 1,0,1
 180.115384615 509.615384615 180.115384615 509.615384615 243.326923077 509.615384615 c 128,-1,2
 306.538461538 509.615384615 306.538461538 509.615384615 348 491 c 0,3,4
 433 452 433 452 433 346 c 2,5,-1
 433 0 l 1,6,-1
 361 0 l 1,7,-1
 361 332 l 2,8,9
 361 382 361 382 336 410 c 0,10,11
 306.880681818 442.613636364 306.880681818 442.613636364 246.477272727 442.613636364 c 128,-1,12
 186.073863636 442.613636364 186.073863636 442.613636364 136 414 c 1,13,-1
 136 0 l 1,14,-1
 64 0 l 1,15,-1
 64 700 l 1,16,-1
 136 700 l 1,17,-1
 136 481 l 1,0,1
EndSplineSet
EndChar

StartChar: i
Encoding: 105 105 74
Width: 240
Flags: HMW
HStem: 501 21G<82 154 154 154> 610 104
VStem: 82 72<0 501>
LayerCount: 2
Fore
SplineSet
148 640 m 128,-1,1
 136 628 136 628 119.5 628 c 128,-1,2
 103 628 103 628 90.5 640.5 c 128,-1,3
 78 653 78 653 78 669 c 128,-1,4
 78 685 78 685 90.5 697.5 c 128,-1,5
 103 710 103 710 119.5 710 c 128,-1,6
 136 710 136 710 148 698 c 128,-1,7
 160 686 160 686 160 669 c 128,-1,0
 160 652 160 652 148 640 c 128,-1,1
154 0 m 1,8,-1
 82 0 l 1,9,-1
 82 501 l 1,10,-1
 154 501 l 1,11,-1
 154 0 l 1,8,-1
EndSplineSet
EndChar

StartChar: j
Encoding: 106 106 75
Width: 206
Flags: HMW
HStem: -209 56<-5 45.5> 457 52 654 67
VStem: -76 48 69 72<-50 432 432 432>
LayerCount: 2
Fore
SplineSet
69 -50 m 2,0,-1
 69 432 l 1,1,-1
 22 437 l 1,2,-1
 0 501 l 1,3,-1
 141 501 l 1,4,-1
 141 -75 l 1,5,6
 139 -132 139 -132 101.5 -170.5 c 128,-1,7
 64 -209 64 -209 9 -209 c 1,8,-1
 -5 -153 l 1,9,10
 4 -153 4 -153 19 -145.5 c 128,-1,11
 34 -138 34 -138 43.5 -128 c 0,12,13
 69 -101.157894737 69 -101.157894737 69 -50 c 2,0,-1
135 640 m 128,-1,15
 123 628 123 628 106.5 628 c 128,-1,16
 90 628 90 628 77.5 640 c 128,-1,17
 65 652 65 652 65 669 c 128,-1,18
 65 686 65 686 77.5 698 c 128,-1,19
 90 710 90 710 107 710 c 128,-1,20
 124 710 124 710 135.5 698 c 128,-1,21
 147 686 147 686 147 669 c 128,-1,14
 147 652 147 652 135 640 c 128,-1,15
EndSplineSet
EndChar

StartChar: k
Encoding: 107 107 76
Width: 446
Flags: HMW
HStem: 0 21G<66 138 66 66 358 447 358 358> 500 20G<323 323> 694 20G
VStem: 66 72<0 262 349 700>
LayerCount: 2
Fore
SplineSet
447 0 m 1,0,-1
 358 0 l 1,1,-1
 179 298 l 1,2,-1
 138 262 l 1,3,-1
 138 0 l 1,4,-1
 66 0 l 1,5,-1
 66 700 l 1,6,-1
 138 700 l 1,7,-1
 138 349 l 1,8,-1
 323 520 l 1,9,-1
 375 470 l 1,10,-1
 232 346 l 1,11,12
 305 225 305 225 447 0 c 1,0,-1
EndSplineSet
EndChar

StartChar: l
Encoding: 108 108 77
Width: 230
Flags: HMW
HStem: 0 21G<78 150 78 78> 694 20G
VStem: 78 72<0 700>
LayerCount: 2
Fore
SplineSet
150 0 m 1,0,-1
 78 0 l 1,1,-1
 78 700 l 1,2,-1
 150 700 l 1,3,-1
 150 0 l 1,0,-1
EndSplineSet
EndChar

StartChar: m
Encoding: 109 109 78
Width: 737
Flags: HMW
HStem: 0 21G<78 150 78 78 364 436 364 364 630 702 630 630> 454 63 454 75
VStem: 78 68<0 501 501 501> 364 72<0 330 330 349 0 396.5> 630 72<0 331 331 346>
LayerCount: 2
Fore
SplineSet
385 461 m 1,0,1
 469.823529412 509.470588235 469.823529412 509.470588235 545.884083045 509.470588235 c 0,2,3
 617.935828877 509.470588235 617.935828877 509.470588235 659.967914439 463.235294118 c 128,-1,4
 702 417 702 417 702 346 c 2,5,-1
 702 0 l 1,6,-1
 630 0 l 1,7,-1
 630 331 l 2,8,9
 630 417.192307692 630 417.192307692 574 435.5 c 0,10,11
 552.952380952 442.380952381 552.952380952 442.380952381 538.333333333 442.380952381 c 128,-1,12
 523.714285714 442.380952381 523.714285714 442.380952381 505.857142857 441.19047619 c 128,-1,13
 488 440 488 440 454 427 c 1,14,-1
 423 412 l 1,15,16
 436 384 436 384 436 349 c 2,17,-1
 436 0 l 1,18,-1
 364 0 l 1,19,-1
 364 330 l 2,20,21
 364 377 364 377 342.5 405 c 0,22,23
 314.266483516 441.769230769 314.266483516 441.769230769 257.985468479 441.769230769 c 128,-1,24
 201.704453441 441.769230769 201.704453441 441.769230769 150 412 c 1,25,-1
 150 0 l 1,26,-1
 78 0 l 1,27,-1
 78 501 l 1,28,-1
 146 501 l 1,29,-1
 147 476 l 1,30,31
 203.7 508.4 203.7 508.4 271.201162791 508.4 c 128,-1,32
 338.702325581 508.4 338.702325581 508.4 385 461 c 1,0,1
EndSplineSet
EndChar

StartChar: n
Encoding: 110 110 79
Width: 500
Flags: HMW
HStem: 0 21G<64 136 64 64 361 433 361 361> 472 55
VStem: 64 68<0 501 501 501> 361 72<0 335 335 346>
LayerCount: 2
Fore
SplineSet
133 475 m 1,0,1
 179.079375407 509.264150943 179.079375407 509.264150943 257.274474902 509.264150943 c 0,2,3
 308.150943396 509.264150943 308.150943396 509.264150943 348 491 c 0,4,5
 433 452 433 452 433 346 c 2,6,-1
 433 0 l 1,7,-1
 361 0 l 1,8,-1
 361 335 l 2,9,10
 361 394 361 394 324.830645161 418.576612903 c 128,-1,11
 288.661290323 443.153225806 288.661290323 443.153225806 239.468548387 443.153225806 c 128,-1,12
 190.275806452 443.153225806 190.275806452 443.153225806 136 413 c 1,13,-1
 136 0 l 1,14,-1
 64 0 l 1,15,-1
 64 501 l 1,16,-1
 132 501 l 1,17,-1
 133 475 l 1,0,1
EndSplineSet
EndChar

StartChar: o
Encoding: 111 111 80
Width: 486
Flags: HMW
HStem: -10 453<233.5 296.5 233.5 332> 57 455<231 301.5>
VStem: 78 301<184 316 316 365 174 379> 150 301<137.5 174 174 184 184 316>
LayerCount: 2
Fore
SplineSet
451 316 m 2,0,-1
 451 184 l 2,1,2
 451 100 451 100 405 45 c 128,-1,3
 359 -10 359 -10 266 -10 c 128,-1,4
 173 -10 173 -10 125.5 45.5 c 128,-1,5
 78 101 78 101 78 184 c 2,6,-1
 78 316 l 2,7,8
 78 411 78 411 126.5 461.5 c 128,-1,9
 175 512 175 512 264 512 c 0,10,11
 353 512 353 512 402 459.5 c 128,-1,12
 451 407 451 407 451 316 c 2,0,-1
379 174 m 2,13,-1
 379 316 l 2,14,15
 379 443 379 443 266 443 c 0,16,17
 150 443 150 443 150 316 c 2,18,-1
 150 174 l 2,19,20
 150 120 150 120 181.5 88.5 c 128,-1,21
 213 57 213 57 266 57 c 128,-1,22
 319 57 319 57 349 88.5 c 128,-1,23
 379 120 379 120 379 174 c 2,13,-1
EndSplineSet
EndChar

StartChar: p
Encoding: 112 112 81
Width: 490
Flags: HMW
HStem: -198 21G -12 75 454 63 454 75
VStem: 78 70<-210 501 501 501> 150 305<-188 176 -188 176 134 173 173 176 176 315 113.5 324> 167 21
LayerCount: 2
Fore
SplineSet
150 -188 m 1,0,-1
 78 -210 l 1,1,-1
 78 501 l 1,2,-1
 148 501 l 1,3,-1
 147 463 l 1,4,5
 191 509 191 509 265 509 c 0,6,7
 358 509 358 509 406.5 455 c 128,-1,8
 455 401 455 401 455 315 c 2,9,-1
 455 176 l 2,10,11
 455 85 455 85 404 36.5 c 128,-1,12
 353 -12 353 -12 272.5 -12 c 0,13,14
 192 -12 192 -12 150 30 c 1,15,-1
 150 -188 l 1,0,-1
383 177 m 2,16,-1
 383 319 l 2,17,18
 383 382 383 382 350.5 411.5 c 128,-1,19
 318 441 318 441 268.5 441 c 0,20,21
 219 441 219 441 185.5 412 c 128,-1,22
 152 383 152 383 150 324 c 1,23,-1
 150 173 l 2,24,25
 150 116 150 116 181 86.5 c 128,-1,26
 212 57 212 57 266.5 57 c 0,27,28
 321 57 321 57 352 87.5 c 128,-1,29
 383 118 383 118 383 177 c 2,16,-1
EndSplineSet
EndChar

StartChar: q
Encoding: 113 113 82
Width: 448
Flags: HMW
HStem: -198 21G -12 75 454 63
VStem: 37 305<176 314 314 321 -188 368.5> 52 47 342 72<-188 30 30 30 174 321 321 321>
LayerCount: 2
Fore
SplineSet
414 -210 m 1,0,-1
 342 -188 l 1,1,-1
 342 30 l 1,2,3
 301 -12 301 -12 220 -12 c 0,4,5
 139 -12 139 -12 88 36.5 c 128,-1,6
 37 85 37 85 37 176 c 2,7,-1
 37 314 l 2,8,9
 37 400 37 400 85.5 454.5 c 128,-1,10
 134 509 134 509 227 509 c 0,11,12
 296 509 296 509 346 461 c 1,13,-1
 344 501 l 1,14,-1
 414 501 l 1,15,-1
 414 -210 l 1,0,-1
342 174 m 2,16,-1
 342 321 l 1,17,18
 340 386 340 386 305 413.5 c 128,-1,19
 270 441 270 441 224 441 c 0,20,21
 178 441 178 441 143.5 412.5 c 128,-1,22
 109 384 109 384 109 313 c 2,23,-1
 109 170 l 2,24,25
 109 115 109 115 140.5 86 c 128,-1,26
 172 57 172 57 226 57 c 0,27,28
 280 57 280 57 311 86.5 c 128,-1,29
 342 116 342 116 342 174 c 2,16,-1
EndSplineSet
EndChar

StartChar: r
Encoding: 114 114 83
Width: 347
Flags: HMW
HStem: 0 21G<61 133 61 61> 439 90 497 20G
VStem: 61 70<475 501 475 501 475 501>
LayerCount: 2
Fore
SplineSet
133 0 m 1,0,-1
 61 0 l 1,1,-1
 61 501 l 1,2,-1
 131 501 l 1,3,-1
 131 475 l 1,4,5
 175.666666667 508.333333333 175.666666667 508.333333333 244.777777778 508.333333333 c 0,6,7
 279.333333333 508.333333333 279.333333333 508.333333333 320 500 c 1,8,-1
 302 432 l 1,9,10
 267 443 267 443 229.5 443 c 128,-1,11
 192 443 192 443 162.5 423.5 c 128,-1,12
 133 404 133 404 133 371 c 2,13,-1
 133 0 l 1,0,-1
EndSplineSet
EndChar

StartChar: s
Encoding: 115 115 84
Width: 431
Flags: HMW
HStem: 454 75
VStem: 36 70<127 130> 48 74 308 23 325 74<102 192>
LayerCount: 2
Fore
SplineSet
36 127 m 1,0,-1
 106 130 l 1,1,2
 110 93 110 93 143 72.5 c 128,-1,3
 176 52 176 52 219 52 c 128,-1,4
 262 52 262 52 293.5 71.5 c 128,-1,5
 325 91 325 91 325 127.5 c 128,-1,6
 325 164 325 164 298 185.5 c 128,-1,7
 271 207 271 207 232 219.5 c 128,-1,8
 193 232 193 232 153.5 246 c 128,-1,9
 114 260 114 260 83.5 289.5 c 0,10,11
 47.2653061224 324.546671127 47.2653061224 324.546671127 47.2653061224 375.120274339 c 128,-1,12
 47.2653061224 425.693877551 47.2653061224 425.693877551 87.6326530612 469.346938776 c 128,-1,13
 128 513 128 513 219 513 c 0,14,15
 251 513 251 513 279 505.5 c 128,-1,16
 307 498 307 498 319 491 c 2,17,-1
 331 484 l 1,18,-1
 308 421 l 1,19,20
 276 446 276 446 224 446 c 128,-1,21
 172 446 172 446 146.741935484 426.35483871 c 128,-1,22
 121.483870968 406.709677419 121.483870968 406.709677419 121.483870968 377.040582726 c 0,23,24
 121.483870968 344.109677419 121.483870968 344.109677419 153.241935484 325.05483871 c 128,-1,25
 185 306 185 306 225 293 c 128,-1,26
 265 280 265 280 304.5 264 c 128,-1,27
 344 248 344 248 371.5 214 c 128,-1,28
 399 180 399 180 399 124 c 128,-1,29
 399 68 399 68 354 26.5 c 128,-1,30
 309 -15 309 -15 222.5 -15 c 128,-1,31
 136 -15 136 -15 87 26 c 128,-1,32
 38 67 38 67 36 127 c 1,0,-1
EndSplineSet
EndChar

StartChar: t
Encoding: 116 116 85
Width: 252
Flags: HMW
HStem: 0 75 442 75
VStem: -122 401 44 85
LayerCount: 2
Fore
SplineSet
185 43 m 1,0,-1
 164 -13 l 1,1,2
 100 -1 100 -1 72 35 c 128,-1,3
 44 71 44 71 44 132 c 2,4,-1
 44 700 l 1,5,-1
 117 700 l 1,6,-1
 117 501 l 1,7,-1
 229 501 l 1,8,-1
 205 433 l 1,9,-1
 117 433 l 1,10,-1
 117 132 l 2,11,12
 117 61 117 61 185 43 c 1,0,-1
EndSplineSet
EndChar

StartChar: u
Encoding: 117 117 86
Width: 447
Flags: HMW
HStem: -12 75 0 21G<340 409 340 340> 497 20G
VStem: 36 72<172 501> 337 72<173 501>
LayerCount: 2
Fore
SplineSet
409 0 m 1,0,-1
 340 0 l 1,1,-1
 340 37 l 1,2,3
 297 -11 297 -11 224 -11 c 0,4,5
 36 -11 36 -11 36 172 c 2,6,-1
 36 501 l 1,7,-1
 108 501 l 1,8,-1
 108 172 l 2,9,10
 108 57 108 57 224 57 c 0,11,12
 337 57 337 57 337 173 c 2,13,-1
 337 501 l 1,14,-1
 409 501 l 1,15,-1
 409 0 l 1,0,-1
EndSplineSet
EndChar

StartChar: v
Encoding: 118 118 87
Width: 433
Flags: HMW
HStem: 0 86 497 20G
VStem: 16 397<501 501> 211 31
LayerCount: 2
Fore
SplineSet
257 0 m 1,0,-1
 171 0 l 1,1,-1
 16 501 l 1,2,-1
 93 501 l 1,3,-1
 214 99 l 1,4,-1
 336 501 l 1,5,-1
 413 501 l 1,6,-1
 257 0 l 1,0,-1
EndSplineSet
EndChar

StartChar: w
Encoding: 119 119 88
Width: 706
Flags: HMW
HStem: 0 94 411 106 497 20G
VStem: 16 670<501 501>
LayerCount: 2
Fore
SplineSet
529 0 m 1,0,-1
 443 0 l 1,1,-1
 351 364 l 1,2,-1
 258 0 l 1,3,-1
 172 0 l 1,4,-1
 16 501 l 1,5,-1
 93 501 l 1,6,-1
 214 99 l 1,7,-1
 317 501 l 1,8,-1
 388 501 l 1,9,-1
 491 99 l 1,10,-1
 609 501 l 1,11,-1
 686 501 l 1,12,-1
 529 0 l 1,0,-1
EndSplineSet
EndChar

StartChar: x
Encoding: 120 120 89
Width: 508
Flags: HMW
HStem: 0 21G<73 160 73 73 385 470 385 385> 272 21G 279 21G 497 20G
VStem: 73 400<501 501>
LayerCount: 2
Fore
SplineSet
470 0 m 1,0,-1
 385 0 l 1,1,-1
 272 180 l 1,2,-1
 160 0 l 1,3,-1
 73 0 l 1,4,-1
 229 249 l 1,5,-1
 73 501 l 1,6,-1
 159 501 l 1,7,-1
 273 318 l 1,8,-1
 388 501 l 1,9,-1
 473 501 l 1,10,-1
 315 249 l 1,11,-1
 470 0 l 1,0,-1
EndSplineSet
EndChar

StartChar: y
Encoding: 121 121 90
Width: 488
Flags: HMW
HStem: -207 75 497 20G
VStem: 37 375<176 385> 179 48
LayerCount: 2
Fore
SplineSet
298 -210 m 1,0,-1
 275 -154 l 1,1,2
 342 -134 342 -134 342 -61 c 2,3,-1
 342 35 l 1,4,5
 307 -12 307 -12 219.5 -12 c 0,6,7
 132 -12 132 -12 84.5 35.5 c 128,-1,8
 37 83 37 83 37 176 c 2,9,-1
 37 501 l 1,10,-1
 108 501 l 1,11,-1
 108 178 l 2,12,13
 108 57 108 57 220 57 c 0,14,15
 341 57 341 57 341 178 c 2,16,-1
 341 363 l 2,17,18
 341 422 341 422 359.5 459.5 c 128,-1,19
 378 497 378 497 431 510 c 1,20,-1
 454 456 l 1,21,22
 412 442 412 442 412 385 c 2,23,-1
 412 -61 l 2,24,25
 412 -123 412 -123 385.5 -159 c 128,-1,26
 359 -195 359 -195 298 -210 c 1,0,-1
EndSplineSet
EndChar

StartChar: z
Encoding: 122 122 91
Width: 480
Flags: HMW
HStem: 0 75 442 75
VStem: 87 358
LayerCount: 2
Fore
SplineSet
445 0 m 1,0,-1
 78 0 l 1,1,-1
 78 66 l 1,2,-1
 333 434 l 1,3,-1
 87 434 l 1,4,-1
 87 501 l 1,5,-1
 427 501 l 1,6,-1
 427 436 l 1,7,-1
 170 67 l 1,8,-1
 445 67 l 1,9,-1
 445 0 l 1,0,-1
EndSplineSet
EndChar

StartChar: braceleft
Encoding: 123 123 92
Width: 325
Flags: HMW
HStem: -116 56<268 290> 232 68 768 54<267 288>
VStem: 78 86<354 354> 152 72<134 247 247 253> 324 5
LayerCount: 2
Fore
SplineSet
290 -60 m 1,0,-1
 268 -116 l 1,1,2
 220 -93 220 -93 196.5 -67 c 128,-1,3
 173 -41 173 -41 162.5 4.5 c 128,-1,4
 152 50 152 50 152 134 c 2,5,-1
 152 247 l 2,6,7
 152 266 152 266 136 290.5 c 128,-1,8
 120 315 120 315 109.5 325 c 128,-1,9
 99 335 99 335 78 354 c 1,10,11
 102 373 102 373 126 404 c 128,-1,12
 150 435 150 435 150 462 c 2,13,-1
 150 567 l 2,14,15
 150 690 150 690 173.5 741 c 128,-1,16
 197 792 197 792 267 822 c 1,17,-1
 288 768 l 1,18,19
 222 733 222 733 222 636 c 2,20,-1
 222 456 l 2,21,22
 222 413 222 413 164 355 c 1,23,24
 224 295 224 295 224 253 c 2,25,-1
 224 72 l 2,26,27
 224 -28 224 -28 290 -60 c 1,0,-1
EndSplineSet
EndChar

StartChar: bar
Encoding: 124 124 93
Width: 230
Flags: HMW
HStem: -214 1000
VStem: 78 72<-114 817>
LayerCount: 2
Fore
SplineSet
150 -114 m 1,0,-1
 78 -114 l 1,1,-1
 78 817 l 1,2,-1
 150 817 l 1,3,-1
 150 -114 l 1,0,-1
EndSplineSet
EndChar

StartChar: braceright
Encoding: 125 125 94
Width: 325
Flags: HMW
HStem: -116 37 -116 56<78 100> 232 68 253 203<144 146> 768 54<80 101> 785 37
VStem: 39 5 144 72<72 134 134 247> 159 60 204 86<355 355> 219 70
LayerCount: 2
Fore
SplineSet
100 -116 m 1,0,-1
 78 -60 l 1,1,2
 144 -28 144 -28 144 72 c 2,3,-1
 144 253 l 2,4,5
 144 295 144 295 204 355 c 1,6,7
 146 413 146 413 146 456 c 2,8,-1
 146 636 l 2,9,10
 146 733 146 733 80 768 c 1,11,-1
 101 822 l 1,12,13
 171 792 171 792 194.5 741 c 128,-1,14
 218 690 218 690 218 567 c 2,15,-1
 218 462 l 2,16,17
 218 435 218 435 242 404 c 128,-1,18
 266 373 266 373 290 354 c 1,19,20
 269 335 269 335 258.5 325 c 128,-1,21
 248 315 248 315 232 290.5 c 128,-1,22
 216 266 216 266 216 247 c 2,23,-1
 216 134 l 2,24,25
 216 50 216 50 205.5 4.5 c 128,-1,26
 195 -41 195 -41 171.5 -67 c 128,-1,27
 148 -93 148 -93 100 -116 c 1,0,-1
EndSplineSet
EndChar

StartChar: asciitilde
Encoding: 126 126 95
Width: 523
Flags: HMW
HStem: 183 98 297 81
VStem: 82 401
LayerCount: 2
Fore
SplineSet
371.357777778 341.933333333 m 0,0,1
 424.725 341.933333333 424.725 341.933333333 456 379 c 1,2,-1
 488 331 l 1,3,4
 443.707317073 274.25 443.707317073 274.25 374.375 274.25 c 0,5,6
 346.1875 274.25 346.1875 274.25 256 302 c 0,7,8
 228.470588235 310.470588235 228.470588235 310.470588235 200.692041522 310.470588235 c 0,9,10
 143.68627451 310.470588235 143.68627451 310.470588235 109 271 c 1,11,-1
 78 319 l 1,12,13
 123.779892921 375.87804878 123.779892921 375.87804878 195.499702558 375.87804878 c 0,14,15
 221.574279379 375.87804878 221.574279379 375.87804878 282.520473023 358.905691057 c 128,-1,16
 343.466666667 341.933333333 343.466666667 341.933333333 371.357777778 341.933333333 c 0,0,1
EndSplineSet
EndChar

StartChar: exclamdown
Encoding: 161 161 96
Width: 240
Flags: HMW
HStem: -198 21G 0 127 406 111
VStem: 86 67 96 47
LayerCount: 2
Fore
SplineSet
79 47 m 1,0,-1
 91 590 l 1,1,-1
 147 590 l 1,2,-1
 160 46 l 1,3,4
 160 0 160 0 119.5 0 c 128,-1,5
 79 0 79 0 79 47 c 1,0,-1
145.5 644.5 m 128,-1,7
 134 633 134 633 118.5 633 c 128,-1,8
 103 633 103 633 91.5 644.5 c 128,-1,9
 80 656 80 656 80 672 c 128,-1,10
 80 688 80 688 91.5 699 c 128,-1,11
 103 710 103 710 118.5 710 c 128,-1,12
 134 710 134 710 145.5 699 c 128,-1,13
 157 688 157 688 157 672 c 128,-1,6
 157 656 157 656 145.5 644.5 c 128,-1,7
EndSplineSet
EndChar

StartChar: cent
Encoding: 162 162 97
Width: 435
Flags: HMW
HStem: -12 51 -12 75 454 75
VStem: 78 154<180 308 308 369.5> 88 90 232 71<-114 -10 63 437 437 437 508 623> 314 39
LayerCount: 2
Fore
SplineSet
303 -114 m 1,0,-1
 232 -114 l 1,1,-1
 232 -7 l 1,2,3
 141.841966637 5.02107111501 141.841966637 5.02107111501 104.5 63.5 c 0,4,5
 78 105 78 105 78 180 c 2,6,-1
 78 308 l 2,7,8
 78 397 78 397 120.5 448 c 128,-1,9
 163 499 163 499 232 508 c 1,10,-1
 232 623 l 1,11,-1
 303 623 l 1,12,-1
 303 507 l 1,13,14
 348 500 348 500 398 478 c 1,15,-1
 378 421 l 1,16,17
 341 435 341 435 303 440 c 1,18,-1
 303 57 l 1,19,20
 347 60 347 60 383 70 c 1,21,-1
 400 6 l 1,22,23
 347 -7 347 -7 303 -10 c 1,24,-1
 303 -114 l 1,0,-1
232 63 m 1,25,-1
 232 437 l 1,26,27
 150 414 150 414 150 314 c 2,28,-1
 150 169 l 2,29,30
 150 84 150 84 232 63 c 1,25,-1
EndSplineSet
EndChar

StartChar: fraction
Encoding: 8260 8260 98
Width: 511
Flags: HMW
HStem: 705 20G
VStem: 20 499
LayerCount: 2
Fore
SplineSet
156 -114 m 1,0,-1
 78 -114 l 1,1,-1
 402 817 l 1,2,-1
 476 817 l 1,3,-1
 156 -114 l 1,0,-1
EndSplineSet
EndChar

StartChar: yen
Encoding: 165 165 99
Width: 585
Flags: HMW
HStem: 0 21G<278 350 278 278> 174 60 309 60 694 20G
VStem: 5 48 155 320<238 308 238 308 358 428 238 428> 262 95
LayerCount: 2
Fore
SplineSet
350 0 m 1,0,-1
 278 0 l 1,1,-1
 278 238 l 1,2,-1
 155 238 l 1,3,-1
 155 308 l 1,4,-1
 278 308 l 1,5,-1
 278 332 l 1,6,-1
 264 358 l 1,7,-1
 155 358 l 1,8,-1
 155 428 l 1,9,-1
 226 428 l 1,10,-1
 78 700 l 1,11,-1
 157 700 l 1,12,-1
 305 428 l 1,13,-1
 320 428 l 1,14,-1
 471 700 l 1,15,-1
 550 700 l 1,16,-1
 401 428 l 1,17,-1
 475 428 l 1,18,-1
 475 358 l 1,19,-1
 363 358 l 1,20,-1
 350 334 l 1,21,-1
 350 308 l 1,22,-1
 475 308 l 1,23,-1
 475 238 l 1,24,-1
 350 238 l 1,25,-1
 350 0 l 1,0,-1
EndSplineSet
EndChar

StartChar: section
Encoding: 167 167 100
Width: 588
Flags: HMW
HStem: -198 75 656 75
VStem: 76 82 124 85 137 88 421 85 424 88 475 82
LayerCount: 2
Fore
SplineSet
78 -8 m 1,0,-1
 152 -8 l 1,1,2
 155 -55 155 -55 198.5 -92 c 128,-1,3
 242 -129 242 -129 311 -129 c 128,-1,4
 380 -129 380 -129 428.5 -99 c 128,-1,5
 477 -69 477 -69 477 -1 c 0,6,7
 477 36 477 36 455.5 63.5 c 128,-1,8
 434 91 434 91 400 107.5 c 128,-1,9
 366 124 366 124 325 138.5 c 128,-1,10
 284 153 284 153 243 169.5 c 128,-1,11
 202 186 202 186 168.5 207.5 c 128,-1,12
 135 229 135 229 114.5 265.5 c 128,-1,13
 94 302 94 302 94.5 352.5 c 128,-1,14
 95 403 95 403 128 445 c 1,15,16
 96 485 96 485 96 540 c 0,17,18
 96 610 96 610 154 661 c 128,-1,19
 212 712 212 712 321 712 c 0,20,21
 404 712 404 712 467 682 c 1,22,23
 461 664 461 664 455 646.5 c 128,-1,24
 449 629 449 629 444 614 c 1,25,26
 387 643 387 643 318 643 c 128,-1,27
 249 643 249 643 209.5 614.5 c 128,-1,28
 170 586 170 586 170 537 c 0,29,30
 170 502 170 502 198 477 c 128,-1,31
 226 452 226 452 268 438 c 128,-1,32
 310 424 310 424 359 405 c 128,-1,33
 408 386 408 386 450.5 365 c 128,-1,34
 493 344 493 344 522 303.5 c 0,35,36
 553.148148148 260 553.148148148 260 553.148148148 197.296296296 c 128,-1,37
 553.148148148 134.592592593 553.148148148 134.592592593 530 92 c 1,38,39
 553 57 553 57 553 6 c 0,40,41
 553 -86 553 -86 494.5 -141.5 c 128,-1,42
 436 -197 436 -197 320.5 -197 c 128,-1,43
 205 -197 205 -197 142.5 -139.5 c 128,-1,44
 80 -82 80 -82 78 -8 c 1,0,-1
472 149 m 1,45,46
 479 175 479 175 479 198 c 0,47,48
 479 244 479 244 444.5 277 c 128,-1,49
 410 310 410 310 366.5 326 c 128,-1,50
 323 342 323 342 267 362.5 c 128,-1,51
 211 383 211 383 184 401 c 1,52,53
 169 378 169 378 169 339.5 c 128,-1,54
 169 301 169 301 202.5 272 c 128,-1,55
 236 243 236 243 280 229.5 c 0,56,57
 420.648648649 186.346437346 420.648648649 186.346437346 472 149 c 1,45,46
EndSplineSet
EndChar

StartChar: currency
Encoding: 164 164 101
Width: 475
Flags: HMW
HStem: 101 75 524 75
VStem: 10 85 425 85
LayerCount: 2
Fore
SplineSet
392 143 m 1,0,-1
 357 178 l 1,1,2
 316 148 316 148 259.5 148 c 128,-1,3
 203 148 203 148 161 179 c 1,4,-1
 127 142 l 1,5,-1
 82 188 l 1,6,-1
 115 222 l 1,7,8
 84 265 84 265 84 319.5 c 128,-1,9
 84 374 84 374 114 420 c 1,10,-1
 80 455 l 1,11,-1
 128 501 l 1,12,-1
 160 467 l 1,13,14
 202 499 202 499 259.5 499 c 128,-1,15
 317 499 317 499 357 469 c 1,16,-1
 390 502 l 1,17,-1
 438 454 l 1,18,-1
 404 422 l 1,19,20
 435 375 435 375 435 324 c 128,-1,21
 435 273 435 273 403 221 c 1,22,-1
 437 188 l 1,23,-1
 392 143 l 1,0,-1
335 248 m 128,-1,25
 367 279 367 279 367 323.5 c 128,-1,26
 367 368 367 368 335 399.5 c 128,-1,27
 303 431 303 431 258.5 431 c 128,-1,28
 214 431 214 431 182.5 399.5 c 128,-1,29
 151 368 151 368 151 323.5 c 128,-1,30
 151 279 151 279 182.5 248 c 128,-1,31
 214 217 214 217 258.5 217 c 128,-1,24
 303 217 303 217 335 248 c 128,-1,25
EndSplineSet
EndChar

StartChar: quotesingle
Encoding: 39 39 102
Width: 173
Flags: HMW
HStem: 456 258 694 20G
VStem: 46 75<698 722.5>
LayerCount: 2
Fore
SplineSet
107 589 m 1,0,-1
 60 589 l 1,1,-1
 46 698 l 1,2,3
 46 721 46 721 64.5 731 c 0,4,5
 73.9871794872 736.128205128 73.9871794872 736.128205128 83.3653846154 736.128205128 c 0,6,7
 92.7435897436 736.128205128 92.7435897436 736.128205128 102 731.5 c 0,8,9
 121 722 121 722 121 698 c 1,10,-1
 107 589 l 1,0,-1
EndSplineSet
EndChar

StartChar: quotedblleft
Encoding: 8220 8220 103
Width: 292
Flags: HMW
HStem: 456 111 522 111 664 50
VStem: 32 69 45 81<593 596.5 593 624> 159 81<593 596.5 593 624> 182 69
LayerCount: 2
Fore
SplineSet
93 636 m 1,0,-1
 104 633 l 1,1,2
 126 620 126 620 125.5 598.5 c 128,-1,3
 125 577 125 577 113.52173913 566.956521739 c 128,-1,4
 102.043478261 556.913043478 102.043478261 556.913043478 93.7608695652 556.913043478 c 0,5,6
 68.8928571429 556.913043478 68.8928571429 556.913043478 56.9464285714 571.456521739 c 128,-1,7
 45 586 45 586 45 601 c 0,8,9
 45 661 45 661 110 717 c 1,10,-1
 159 689 l 1,11,12
 118.68 665.96 118.68 665.96 93 636 c 1,0,-1
207 636 m 1,13,-1
 218 633 l 1,14,15
 240 620 240 620 239.5 598.5 c 128,-1,16
 239 577 239 577 227.52173913 566.956521739 c 128,-1,17
 216.043478261 556.913043478 216.043478261 556.913043478 207.760869565 556.913043478 c 0,18,19
 182.892857143 556.913043478 182.892857143 556.913043478 170.946428571 571.456521739 c 128,-1,20
 159 586 159 586 159 601 c 0,21,22
 159 661 159 661 224 717 c 1,23,-1
 273 689 l 1,24,25
 232.68 665.96 232.68 665.96 207 636 c 1,13,-1
EndSplineSet
EndChar

StartChar: guillemotleft
Encoding: 171 171 104
Width: 498
Flags: HMW
HStem: 278 21G
VStem: 50 152 246 152
LayerCount: 2
Fore
SplineSet
275 124 m 1,0,-1
 229 80 l 1,1,-1
 42 267 l 1,2,-1
 42 268 l 1,3,-1
 229 455 l 1,4,-1
 277 407 l 1,5,-1
 136 267 l 1,6,-1
 275 124 l 1,0,-1
495 124 m 1,7,-1
 449 80 l 1,8,-1
 262 267 l 1,9,-1
 262 268 l 1,10,-1
 449 455 l 1,11,-1
 497 407 l 1,12,-1
 356 267 l 1,13,-1
 495 124 l 1,7,-1
EndSplineSet
EndChar

StartChar: guilsinglleft
Encoding: 8249 8249 105
Width: 278
Flags: HMW
HStem: 278 21G
VStem: 50 152
LayerCount: 2
Fore
SplineSet
275 124 m 1,0,-1
 229 80 l 1,1,-1
 42 267 l 1,2,-1
 42 268 l 1,3,-1
 229 455 l 1,4,-1
 277 407 l 1,5,-1
 136 267 l 1,6,-1
 275 124 l 1,0,-1
EndSplineSet
EndChar

StartChar: guilsinglright
Encoding: 8250 8250 106
Width: 294
Flags: HMW
HStem: 278 21G
VStem: 17 152 77 152
LayerCount: 2
Fore
SplineSet
50 80 m 1,0,-1
 4 124 l 1,1,-1
 143 267 l 1,2,-1
 2 407 l 1,3,-1
 50 455 l 1,4,-1
 237 268 l 1,5,-1
 237 267 l 1,6,-1
 50 80 l 1,0,-1
EndSplineSet
EndChar

StartChar: paragraph
Encoding: 182 182 107
Width: 685
Flags: HMW
HStem: 659 55
VStem: 319 68 512 68<-198 679 -199 680 -198 -198>
LayerCount: 2
Fore
SplineSet
650 -199 m 1,0,-1
 580 -199 l 1,1,-1
 580 679 l 1,2,-1
 512 680 l 1,3,-1
 512 -198 l 1,4,-1
 441 -198 l 1,5,-1
 441 246 l 1,6,-1
 255 246 l 2,7,8
 188.333333333 246 188.333333333 246 153 272.5 c 0,9,10
 135 286 135 286 121.5 300.5 c 128,-1,11
 108 315 108 315 100.5 339 c 128,-1,12
 93 363 93 363 88 381 c 128,-1,13
 83 399 83 399 81 429 c 0,14,15
 78 474 78 474 78 524 c 0,16,17
 78 624 78 624 124 687 c 128,-1,18
 170 750 170 750 264 750 c 2,19,-1
 650 750 l 1,20,-1
 650 -199 l 1,0,-1
EndSplineSet
EndChar

StartChar: bullet
Encoding: 8226 8226 108
Width: 470
Flags: HMW
HStem: 178 357
VStem: 78 357<287.5 386.5>
LayerCount: 2
Fore
SplineSet
256 158 m 128,-1,1
 182 158 182 158 130 210.5 c 128,-1,2
 78 263 78 263 78 337 c 128,-1,3
 78 411 78 411 130 463 c 128,-1,4
 182 515 182 515 256 515 c 128,-1,5
 330 515 330 515 382.5 463 c 128,-1,6
 435 411 435 411 435 337 c 128,-1,7
 435 263 435 263 382.5 210.5 c 128,-1,0
 330 158 330 158 256 158 c 128,-1,1
EndSplineSet
EndChar

StartChar: quotesinglbase
Encoding: 8218 8218 109
Width: 165
Flags: HMW
HStem: -147 50 0 111
VStem: 45 69
LayerCount: 2
Fore
SplineSet
57 -84 m 1,0,-1
 8 -56 l 1,1,2
 51.4736842105 -31.1578947368 51.4736842105 -31.1578947368 74 -3 c 1,3,-1
 63 0 l 1,4,5
 41 13 41 13 41.5 34.5 c 128,-1,6
 42 56 42 56 53.4782608696 66.0434782609 c 128,-1,7
 64.9565217391 76.0869565217 64.9565217391 76.0869565217 73.2391304348 76.0869565217 c 0,8,9
 98.1071428571 76.0869565217 98.1071428571 76.0869565217 110.053571429 61.5434782609 c 128,-1,10
 122 47 122 47 122 32 c 0,11,12
 122 -28 122 -28 57 -84 c 1,0,-1
EndSplineSet
EndChar

StartChar: quotedblbase
Encoding: 8222 8222 110
Width: 315
Flags: HMW
HStem: -147 50 0 111 1 111
VStem: -16 69 86 83<1 41> 134 69 146 82
LayerCount: 2
Fore
SplineSet
108 1 m 1,0,1
 86 14 86 14 86.5 35.5 c 128,-1,2
 87 57 87 57 98.4782608696 67.0434782609 c 128,-1,3
 109.956521739 77.0869565217 109.956521739 77.0869565217 126.518394649 77.0869565217 c 128,-1,4
 143.080267559 77.0869565217 143.080267559 77.0869565217 155 63 c 1,5,6
 165.666666667 77.2222222222 165.666666667 77.2222222222 184.234567901 77.2222222222 c 0,7,8
 203.996031746 77.2222222222 203.996031746 77.2222222222 215.998015873 62.6111111111 c 128,-1,9
 228 48 228 48 228 33 c 0,10,11
 228 -27 228 -27 163 -83 c 1,12,-1
 125 -61 l 1,13,14
 110 -76 110 -76 102 -83 c 1,15,-1
 53 -55 l 1,16,17
 96.4736842105 -30.1578947368 96.4736842105 -30.1578947368 119 -2 c 1,18,-1
 108 1 l 1,0,1
180 -2 m 1,19,-1
 169 1 l 2,20,21
 165 3 165 3 163 5 c 1,22,23
 158 -16 158 -16 146 -34 c 1,24,25
 168 -18 168 -18 180 -2 c 1,19,-1
EndSplineSet
EndChar

StartChar: quotedblright
Encoding: 8221 8221 111
Width: 286
Flags: HMW
HStem: 456 50 603 111 633 111
VStem: 43 81<669.5 673> 52 104 159 33 237 69
LayerCount: 2
Fore
SplineSet
59 549 m 1,0,-1
 10 577 l 1,1,2
 50.32 600.04 50.32 600.04 76 630 c 1,3,-1
 65 633 l 1,4,5
 43 646 43 646 43.5 667.5 c 128,-1,6
 44 689 44 689 55.4782608696 699.043478261 c 128,-1,7
 66.9565217391 709.086956522 66.9565217391 709.086956522 75.2391304348 709.086956522 c 0,8,9
 100.107142857 709.086956522 100.107142857 709.086956522 112.053571429 694.543478261 c 128,-1,10
 124 680 124 680 124 665 c 0,11,12
 124 605 124 605 59 549 c 1,0,-1
175 549 m 1,13,-1
 126 577 l 1,14,15
 166.32 600.04 166.32 600.04 192 630 c 1,16,-1
 181 633 l 1,17,18
 159 646 159 646 159.5 667.5 c 128,-1,19
 160 689 160 689 171.47826087 699.043478261 c 128,-1,20
 182.956521739 709.086956522 182.956521739 709.086956522 191.239130435 709.086956522 c 0,21,22
 216.107142857 709.086956522 216.107142857 709.086956522 228.053571429 694.543478261 c 128,-1,23
 240 680 240 680 240 665 c 0,24,25
 240 605 240 605 175 549 c 1,13,-1
EndSplineSet
EndChar

StartChar: guillemotright
Encoding: 187 187 112
Width: 514
Flags: HMW
HStem: 278 21G
VStem: -3 152 193 152
LayerCount: 2
Fore
SplineSet
270 80 m 1,0,-1
 224 124 l 1,1,-1
 363 267 l 1,2,-1
 222 407 l 1,3,-1
 270 455 l 1,4,-1
 457 268 l 1,5,-1
 457 267 l 1,6,-1
 270 80 l 1,0,-1
50 80 m 1,7,-1
 4 124 l 1,8,-1
 143 267 l 1,9,-1
 2 407 l 1,10,-1
 50 455 l 1,11,-1
 237 268 l 1,12,-1
 237 267 l 1,13,-1
 50 80 l 1,7,-1
EndSplineSet
EndChar

StartChar: ellipsis
Encoding: 8230 8230 113
Width: 485
Flags: HMW
HStem: 0 111
VStem: 8 76<27.5 48.5> 11 66 186 76<27.5 48.5> 191 66 366 76<27.5 48.5> 371 66
LayerCount: 2
Fore
SplineSet
46 0 m 128,-1,1
 30 0 30 0 19 11 c 128,-1,2
 8 22 8 22 8 38 c 128,-1,3
 8 54 8 54 19 65 c 128,-1,4
 30 76 30 76 46 76 c 128,-1,5
 62 76 62 76 73 65 c 128,-1,6
 84 54 84 54 84 38 c 128,-1,7
 84 22 84 22 73 11 c 128,-1,0
 62 0 62 0 46 0 c 128,-1,1
224 0 m 128,-1,9
 208 0 208 0 197 11 c 128,-1,10
 186 22 186 22 186 38 c 128,-1,11
 186 54 186 54 197 65 c 128,-1,12
 208 76 208 76 224 76 c 128,-1,13
 240 76 240 76 251 65 c 128,-1,14
 262 54 262 54 262 38 c 128,-1,15
 262 22 262 22 251 11 c 128,-1,8
 240 0 240 0 224 0 c 128,-1,9
404 0 m 128,-1,17
 388 0 388 0 377 11 c 128,-1,18
 366 22 366 22 366 38 c 128,-1,19
 366 54 366 54 377 65 c 128,-1,20
 388 76 388 76 404 76 c 128,-1,21
 420 76 420 76 431 65 c 128,-1,22
 442 54 442 54 442 38 c 128,-1,23
 442 22 442 22 431 11 c 128,-1,16
 420 0 420 0 404 0 c 128,-1,17
EndSplineSet
EndChar

StartChar: perthousand
Encoding: 8240 8240 114
Width: 1048
Flags: HMW
HStem: -11 219<845.5 892.5 845.5 909> 57 76 133 76 133 560 274 55 368 55 507 76 583 76 654 55 702 20G 711 20G
VStem: 94 56 153 76 229 77 241 393 338 50 411 50 464 76 540 76 649 50
LayerCount: 2
Fore
SplineSet
869 -11 m 128,-1,1
 809 -11 809 -11 767 31 c 128,-1,2
 725 73 725 73 725 133 c 128,-1,3
 725 193 725 193 767 235 c 128,-1,4
 809 277 809 277 869 277 c 128,-1,5
 929 277 929 277 971 235 c 128,-1,6
 1013 193 1013 193 1013 133 c 128,-1,7
 1013 73 1013 73 971 31 c 128,-1,0
 929 -11 929 -11 869 -11 c 128,-1,1
944 133 m 128,-1,9
 944 163 944 163 923.5 185.5 c 128,-1,10
 903 208 903 208 869 208 c 128,-1,11
 835 208 835 208 814.5 185.5 c 128,-1,12
 794 163 794 163 794 133 c 128,-1,13
 794 103 794 103 814.5 80.5 c 128,-1,14
 835 58 835 58 869 58 c 128,-1,15
 903 58 903 58 923.5 80.5 c 128,-1,8
 944 103 944 103 944 133 c 128,-1,9
127 0 m 1,16,-1
 78 49 l 1,17,-1
 634 741 l 1,18,-1
 689 693 l 1,19,-1
 127 0 l 1,16,-1
540 -11 m 128,-1,21
 480 -11 480 -11 438 31 c 128,-1,22
 396 73 396 73 396 133 c 128,-1,23
 396 193 396 193 438 235 c 128,-1,24
 480 277 480 277 540 277 c 128,-1,25
 600 277 600 277 642 235 c 128,-1,26
 684 193 684 193 684 133 c 128,-1,27
 684 73 684 73 642 31 c 128,-1,20
 600 -11 600 -11 540 -11 c 128,-1,21
616 133 m 128,-1,29
 616 163 616 163 595 186 c 128,-1,30
 574 209 574 209 540 209 c 128,-1,31
 506 209 506 209 485 186 c 128,-1,32
 464 163 464 163 464 133 c 128,-1,33
 464 103 464 103 485 80 c 128,-1,34
 506 57 506 57 540 57 c 128,-1,35
 574 57 574 57 595 80 c 128,-1,28
 616 103 616 103 616 133 c 128,-1,29
229 439 m 128,-1,37
 169 439 169 439 127 481 c 128,-1,38
 85 523 85 523 85 583 c 128,-1,39
 85 643 85 643 127 685 c 128,-1,40
 169 727 169 727 229 727 c 128,-1,41
 289 727 289 727 331 685 c 128,-1,42
 373 643 373 643 373 583 c 128,-1,43
 373 523 373 523 331 481 c 128,-1,36
 289 439 289 439 229 439 c 128,-1,37
306 583 m 128,-1,45
 306 613 306 613 284.5 636 c 128,-1,46
 263 659 263 659 229 659 c 128,-1,47
 195 659 195 659 174 636 c 128,-1,48
 153 613 153 613 153 583 c 128,-1,49
 153 553 153 553 174 530 c 128,-1,50
 195 507 195 507 229 507 c 128,-1,51
 263 507 263 507 284.5 530 c 128,-1,44
 306 553 306 553 306 583 c 128,-1,45
EndSplineSet
EndChar

StartChar: questiondown
Encoding: 191 191 115
Width: 472
Flags: HMW
HStem: -210 75 406 111
VStem: -10 90 148 111 163 85 342 85
LayerCount: 2
Fore
SplineSet
365 177 m 1,0,-1
 437 177 l 1,1,2
 437 102 437 102 390.5 51 c 128,-1,3
 344 0 344 0 259 0 c 0,4,5
 207 0 207 0 164.5 27 c 0,6,7
 79.25 81.1588235294 79.25 81.1588235294 79.25 177.525 c 0,8,9
 79.25 237 79.25 237 115 289 c 0,10,11
 134 316 134 316 160.5 343.5 c 128,-1,12
 187 371 187 371 200.5 386.5 c 128,-1,13
 214 402 214 402 225 437.5 c 128,-1,14
 236 473 236 473 237 527 c 1,15,-1
 237 590 l 1,16,-1
 306 590 l 1,17,-1
 306 497 l 2,18,19
 306 451 306 451 292 413 c 128,-1,20
 278 375 278 375 262 355 c 128,-1,21
 246 335 246 335 220.5 306.5 c 128,-1,22
 195 278 195 278 183 261 c 0,23,24
 153.96 216.12 153.96 216.12 153.96 177.8224 c 0,25,26
 153.96 129.866206897 153.96 129.866206897 185.48 99.4331034483 c 128,-1,27
 217 69 217 69 260.5 69 c 128,-1,28
 304 69 304 69 334.5 97 c 128,-1,29
 365 125 365 125 365 177 c 1,0,-1
272 632 m 128,-1,31
 256 632 256 632 245 643.5 c 128,-1,32
 234 655 234 655 234 671 c 128,-1,33
 234 687 234 687 245 698 c 128,-1,34
 256 709 256 709 272 709 c 128,-1,35
 288 709 288 709 299.5 698 c 128,-1,36
 311 687 311 687 311 671 c 128,-1,37
 311 655 311 655 299.5 643.5 c 128,-1,30
 288 632 288 632 272 632 c 128,-1,31
EndSplineSet
EndChar

StartChar: grave
Encoding: 96 96 116
Width: 222
Flags: HMW
HStem: 588 143 730 143
VStem: 59 119 274 109
LayerCount: 2
Fore
SplineSet
170 590 m 1,0,-1
 117 590 l 1,1,-1
 54 673 l 2,2,3
 46.1935483871 683.64516129 46.1935483871 683.64516129 46.1935483871 691.85483871 c 0,4,5
 46.1935483871 719.609108159 46.1935483871 719.609108159 69 729 c 0,6,7
 75.3636363636 731.272727273 75.3636363636 731.272727273 82.5909090909 731.272727273 c 0,8,9
 109.181818182 731.272727273 109.181818182 731.272727273 120 705 c 2,10,-1
 170 590 l 1,0,-1
EndSplineSet
EndChar

StartChar: acute
Encoding: 180 180 117
Width: 222
Flags: HMW
HStem: 588 143
VStem: 50 109
LayerCount: 2
Fore
SplineSet
99 588 m 1,0,-1
 46 588 l 1,1,-1
 95 703 l 1,2,3
 107.363636364 729.272727273 107.363636364 729.272727273 134.066115702 729.272727273 c 0,4,5
 140.636363636 729.272727273 140.636363636 729.272727273 147 727 c 0,6,7
 169.806451613 717.609108159 169.806451613 717.609108159 169.806451613 693.29760666 c 0,8,9
 169.806451613 681.64516129 169.806451613 681.64516129 162 671 c 2,10,-1
 99 588 l 1,0,-1
EndSplineSet
EndChar

StartChar: circumflex
Encoding: 710 710 118
Width: 388
Flags: HMW
HStem: 588 142 683 47
VStem: 44 251
LayerCount: 2
Fore
SplineSet
336 629 m 1,0,-1
 289 590 l 1,1,-1
 193 688 l 1,2,-1
 92 590 l 1,3,-1
 46 629 l 1,4,-1
 194 770 l 1,5,-1
 336 629 l 1,0,-1
EndSplineSet
EndChar

StartChar: tilde
Encoding: 732 732 119
Width: 452
Flags: HMW
HStem: 620 36 650 47<387 417>
VStem: 78 339<650 650>
LayerCount: 2
Fore
SplineSet
316.768470343 662.419354839 m 0,0,1
 355.765868887 662.419354839 355.765868887 662.419354839 387 697 c 1,2,-1
 417 650 l 1,3,4
 372.071428571 597.142857143 372.071428571 597.142857143 320.867346939 597.142857143 c 0,5,6
 302.785714286 597.142857143 302.785714286 597.142857143 280.392857143 606.571428571 c 128,-1,7
 258 616 258 616 232.96969697 627.621212121 c 128,-1,8
 207.939393939 639.242424242 207.939393939 639.242424242 183.085399449 639.242424242 c 0,9,10
 140.977272727 639.242424242 140.977272727 639.242424242 107 603 c 1,11,-1
 78 650 l 1,12,13
 125.382478632 702.797619048 125.382478632 702.797619048 178.43877551 702.797619048 c 0,14,15
 196.119047619 702.797619048 196.119047619 702.797619048 218.55952381 693.898809524 c 128,-1,16
 241 685 241 685 266.741935484 673.709677419 c 128,-1,17
 292.483870968 662.419354839 292.483870968 662.419354839 316.768470343 662.419354839 c 0,0,1
EndSplineSet
EndChar

StartChar: macron
Encoding: 175 175 120
Width: 334
Flags: HMW
HStem: 619 68<78 299 78 299>
VStem: 18 341
LayerCount: 2
Fore
SplineSet
299 619 m 1,0,-1
 78 619 l 1,1,-1
 78 687 l 1,2,-1
 299 687 l 1,3,-1
 299 619 l 1,0,-1
EndSplineSet
EndChar

StartChar: breve
Encoding: 728 728 121
Width: 324
Flags: HMW
HStem: 582 55<143.5 175 143.5 190> 711 20G
VStem: 46 226<695 700 664 700>
LayerCount: 2
Fore
SplineSet
272 700 m 1,0,-1
 272 695 l 2,1,2
 272 648 272 648 239 615 c 128,-1,3
 206 582 206 582 159 582 c 128,-1,4
 112 582 112 582 79 615 c 128,-1,5
 46 648 46 648 46 695 c 2,6,-1
 46 700 l 1,7,-1
 102 700 l 1,8,-1
 102 695 l 2,9,10
 102 670 102 670 118.5 653.5 c 128,-1,11
 135 637 135 637 159 637 c 128,-1,12
 183 637 183 637 199.5 653.5 c 128,-1,13
 216 670 216 670 216 695 c 2,14,-1
 216 700 l 1,15,-1
 272 700 l 1,0,-1
EndSplineSet
EndChar

StartChar: dotaccent
Encoding: 729 729 122
Width: 82
Flags: HMW
HStem: 592 104
VStem: -7 82
LayerCount: 2
Fore
SplineSet
42 643 m 128,-1,1
 26 643 26 643 13 655.5 c 128,-1,2
 0 668 0 668 0 684.5 c 0,3,4
 0 701 0 701 12.5 713 c 128,-1,5
 25 725 25 725 41.5 725 c 0,6,7
 58 725 58 725 70 713.5 c 128,-1,8
 82 702 82 702 82 685 c 128,-1,9
 82 668 82 668 70 655.5 c 128,-1,0
 58 643 58 643 42 643 c 128,-1,1
EndSplineSet
EndChar

StartChar: ring
Encoding: 730 730 123
Width: 222
Flags: HMW
HStem: 605 57 662 56
VStem: 54 57
LayerCount: 2
Fore
SplineSet
111 605 m 128,-1,1
 135 605 135 605 151 621.5 c 128,-1,2
 167 638 167 638 167 662 c 128,-1,3
 167 686 167 686 151 702 c 128,-1,4
 135 718 135 718 111 718 c 128,-1,5
 87 718 87 718 70.5 702 c 128,-1,6
 54 686 54 686 54 662 c 128,-1,7
 54 638 54 638 70.5 621.5 c 128,-1,0
 87 605 87 605 111 605 c 128,-1,1
111 551 m 128,-1,9
 65 551 65 551 32.5 583.5 c 128,-1,10
 0 616 0 616 0 662 c 128,-1,11
 0 708 0 708 32.5 740.5 c 128,-1,12
 65 773 65 773 111 773 c 128,-1,13
 157 773 157 773 189.5 740.5 c 128,-1,14
 222 708 222 708 222 662 c 128,-1,15
 222 616 222 616 189.5 583.5 c 128,-1,8
 157 551 157 551 111 551 c 128,-1,9
EndSplineSet
EndChar

StartChar: cedilla
Encoding: 184 184 124
Width: 254
Flags: HMW
HStem: -217 21G<152 195.5> -217 54<167.5 191.5 167.5 195.5> -98 50
VStem: 215 82
LayerCount: 2
Fore
SplineSet
73 -197 m 1,0,-1
 100 -138 l 1,1,2
 137 -163 137 -163 169.5 -163 c 0,3,4
 240 -163 240 -163 240 -122 c 0,5,6
 240 -100 240 -100 219.5 -91 c 0,7,8
 211.47826087 -87.4782608696 211.47826087 -87.4782608696 198.195652174 -87.4782608696 c 128,-1,9
 184.913043478 -87.4782608696 184.913043478 -87.4782608696 163 -96 c 1,10,-1
 126 -113 l 1,11,-1
 104 -78 l 1,12,-1
 165 0 l 1,13,-1
 215 0 l 1,14,-1
 179 -49 l 1,15,16
 193 -42 193 -42 221 -42 c 128,-1,17
 249 -42 249 -42 273 -63 c 128,-1,18
 297 -84 297 -84 297 -128 c 128,-1,19
 297 -172 297 -172 258 -194.5 c 128,-1,20
 219 -217 219 -217 173.5 -217 c 128,-1,21
 128 -217 128 -217 73 -197 c 1,0,-1
EndSplineSet
EndChar

StartChar: hungarumlaut
Encoding: 733 733 125
Width: 245
Flags: HMW
HStem: 568 143 569 143
VStem: 3 239
LayerCount: 2
Fore
SplineSet
174 569 m 1,0,-1
 121 569 l 1,1,-1
 170 684 l 1,2,3
 182.363636364 710.272727273 182.363636364 710.272727273 209.066115702 710.272727273 c 0,4,5
 215.636363636 710.272727273 215.636363636 710.272727273 222 708 c 0,6,7
 244.806451613 698.609108159 244.806451613 698.609108159 244.806451613 674.29760666 c 0,8,9
 244.806451613 662.64516129 244.806451613 662.64516129 237 652 c 2,10,-1
 174 569 l 1,0,-1
53 568 m 1,11,-1
 0 568 l 1,12,-1
 49 683 l 1,13,14
 61.3636363636 709.272727273 61.3636363636 709.272727273 88.0661157025 709.272727273 c 0,15,16
 94.6363636364 709.272727273 94.6363636364 709.272727273 101 707 c 0,17,18
 123.806451613 697.609108159 123.806451613 697.609108159 123.806451613 673.29760666 c 0,19,20
 123.806451613 661.64516129 123.806451613 661.64516129 116 651 c 2,21,-1
 53 568 l 1,11,-1
EndSplineSet
EndChar

StartChar: ogonek
Encoding: 731 731 126
Width: 222
Flags: HMW
HStem: -210 50
VStem: 76 68
LayerCount: 2
Fore
SplineSet
224 -118 m 1,0,-1
 265 -160 l 1,1,2
 233 -210 233 -210 164 -210 c 0,3,4
 134 -210 134 -210 103.5 -190.5 c 128,-1,5
 73 -171 73 -171 74 -124 c 1,6,7
 74 -58 74 -58 169 3 c 1,8,-1
 230 3 l 1,9,10
 131 -79 131 -79 130 -118 c 0,11,12
 129 -136 129 -136 139.5 -146.5 c 128,-1,13
 150 -157 150 -157 167 -157 c 0,14,15
 202 -157 202 -157 224 -118 c 1,0,-1
EndSplineSet
EndChar

StartChar: caron
Encoding: 711 711 127
Width: 388
Flags: HMW
HStem: 537 142 633 47
VStem: 30 300 37 251
LayerCount: 2
Fore
SplineSet
336 731 m 1,0,-1
 194 590 l 1,1,-1
 46 731 l 1,2,-1
 92 770 l 1,3,-1
 193 673 l 1,4,-1
 289 770 l 1,5,-1
 336 731 l 1,0,-1
EndSplineSet
EndChar

StartChar: ordfeminine
Encoding: 170 170 128
Width: 382
Flags: HMW
HStem: 380 50 659 50
VStem: 76 68 308 60
LayerCount: 2
Fore
SplineSet
347 391 m 1,0,1
 278.230769231 379.538461538 278.230769231 379.538461538 247.307692308 379.538461538 c 128,-1,2
 216.384615385 379.538461538 216.384615385 379.538461538 185.692307692 382.769230769 c 128,-1,3
 155 386 155 386 132 400 c 128,-1,4
 109 414 109 414 93.5 444 c 128,-1,5
 78 474 78 474 78 519 c 0,6,7
 78 600 78 600 138.5 624 c 0,8,9
 157.86 631.68 157.86 631.68 179.7288 631.68 c 0,10,11
 226.2 631.68 226.2 631.68 284 597 c 1,12,13
 284 661.222222222 284 661.222222222 187.666666667 661.222222222 c 0,14,15
 182 661.222222222 182 661.222222222 176 661 c 1,16,-1
 181 709 l 1,17,18
 183.675675676 709.027027027 183.675675676 709.027027027 186.303506209 709.027027027 c 0,19,20
 280.905405405 709.027027027 280.905405405 709.027027027 313.952702703 673.513513514 c 128,-1,21
 347 638 347 638 347 555 c 2,22,-1
 347 391 l 1,0,1
284 541 m 1,23,24
 220.727083333 575.5125 220.727083333 575.5125 182.1065625 575.5125 c 0,25,26
 163.4 575.5125 163.4 575.5125 149.2 561.75625 c 128,-1,27
 135 548 135 548 135 512.5 c 128,-1,28
 135 477 135 477 156 457 c 0,29,30
 178.166666667 435.888888889 178.166666667 435.888888889 212.861111111 435.888888889 c 128,-1,31
 247.555555556 435.888888889 247.555555556 435.888888889 284 443 c 1,32,-1
 284 541 l 1,23,24
EndSplineSet
EndChar

StartChar: Lslash
Encoding: 321 321 129
Width: 592
Flags: HMW
HStem: 0 80 694 20G
VStem: 196 95 196 99
LayerCount: 2
Fore
SplineSet
557 0 m 1,0,-1
 196 0 l 1,1,-1
 196 340 l 1,2,-1
 104 299 l 1,3,-1
 78 358 l 1,4,-1
 196 411 l 1,5,-1
 196 700 l 1,6,-1
 268 700 l 1,7,-1
 268 443 l 1,8,-1
 369 489 l 1,9,-1
 396 430 l 1,10,-1
 268 372 l 1,11,-1
 268 65 l 1,12,-1
 557 65 l 1,13,-1
 557 0 l 1,0,-1
EndSplineSet
EndChar

StartChar: lslash
Encoding: 322 322 130
Width: 431
Flags: HMW
HStem: 0 21G<207 279 207 207> 496 20G 694 20G
VStem: 187 85 207 72<0 345 345 345 448 632 632 632>
LayerCount: 2
Fore
SplineSet
279 0 m 1,0,-1
 207 0 l 1,1,-1
 207 345 l 1,2,-1
 104 299 l 1,3,-1
 78 358 l 1,4,-1
 207 416 l 1,5,-1
 207 632 l 1,6,-1
 141 634 l 1,7,-1
 141 700 l 1,8,-1
 279 700 l 1,9,-1
 279 448 l 1,10,-1
 369 489 l 1,11,-1
 396 430 l 1,12,-1
 279 377 l 1,13,-1
 279 0 l 1,0,-1
EndSplineSet
EndChar

StartChar: mu
Encoding: 181 181 131
Width: 478
Flags: HMW
HStem: -201 21G<37 37> -12 75 0 21G 497 20G
VStem: 118 93 380 85
LayerCount: 2
Fore
SplineSet
444 27 m 1,0,-1
 395 -6 l 1,1,2
 376 -6 376 -6 360 20 c 1,3,4
 329.6 -12.0888888889 329.6 -12.0888888889 262.119506173 -12.0888888889 c 0,5,6
 249.688888889 -12.0888888889 249.688888889 -12.0888888889 230.344444444 -10.0444444444 c 128,-1,7
 211 -8 211 -8 187.5 -1.5 c 128,-1,8
 164 5 164 5 151.5 10 c 0,9,10
 115.666666667 24.3333333333 115.666666667 24.3333333333 110 30 c 1,11,-1
 110 -210 l 1,12,-1
 37 -201 l 1,13,-1
 37 501 l 1,14,-1
 110 501 l 1,15,-1
 110 107 l 1,16,17
 129.714285714 87.2857142857 129.714285714 87.2857142857 171.357142857 72.1428571429 c 128,-1,18
 213 57 213 57 230.18 56.42 c 128,-1,19
 247.36 55.84 247.36 55.84 250.6368 55.84 c 0,20,21
 288.32 55.84 288.32 55.84 316.16 77.92 c 128,-1,22
 344 100 344 100 344 166 c 2,23,-1
 344 498 l 1,24,-1
 417 510 l 1,25,-1
 417 69 l 1,26,27
 420 41 420 41 444 27 c 1,0,-1
EndSplineSet
EndChar

StartChar: trademark
Encoding: 8482 8482 132
Width: 579
Flags: HMW
HStem: 659 55
VStem: 105 63<512 700 512 700> 205 67 375 102<592 592>
LayerCount: 2
Fore
SplineSet
477 512 m 1,0,-1
 431 512 l 1,1,-1
 431 632 l 1,2,-1
 391 512 l 1,3,-1
 360 512 l 1,4,-1
 320 632 l 1,5,-1
 320 512 l 1,6,-1
 272 512 l 1,7,-1
 272 654 l 1,8,-1
 216 654 l 1,9,-1
 216 512 l 1,10,-1
 168 512 l 1,11,-1
 168 654 l 1,12,-1
 105 654 l 1,13,-1
 105 700 l 1,14,-1
 336 700 l 1,15,-1
 375 592 l 1,16,-1
 413 700 l 1,17,-1
 477 700 l 1,18,-1
 477 512 l 1,0,-1
EndSplineSet
EndChar

StartChar: plusminus
Encoding: 177 177 133
Width: 433
Flags: HMW
HStem: 0 68 271 68
VStem: 295 68
LayerCount: 2
Fore
SplineSet
398 228 m 1,0,-1
 78 228 l 1,1,-1
 78 296 l 1,2,-1
 204 296 l 1,3,-1
 204 355 l 1,4,-1
 78 355 l 1,5,-1
 78 420 l 1,6,-1
 204 420 l 1,7,-1
 204 545 l 1,8,-1
 273 545 l 1,9,-1
 273 420 l 1,10,-1
 398 420 l 1,11,-1
 398 355 l 1,12,-1
 273 355 l 1,13,-1
 273 296 l 1,14,-1
 398 296 l 1,15,-1
 398 228 l 1,0,-1
EndSplineSet
EndChar

StartChar: divide
Encoding: 247 247 134
Width: 433
Flags: HMW
HStem: -17 21G 219 68 503 20G
VStem: 171 128
LayerCount: 2
Fore
SplineSet
398 352 m 1,0,-1
 78 352 l 1,1,-1
 78 417 l 1,2,-1
 398 417 l 1,3,-1
 398 352 l 1,0,-1
240 469 m 128,-1,5
 224 469 224 469 212.5 481 c 128,-1,6
 201 493 201 493 201 509 c 128,-1,7
 201 525 201 525 212.5 536.5 c 128,-1,8
 224 548 224 548 240 548 c 128,-1,9
 256 548 256 548 268 536.5 c 128,-1,10
 280 525 280 525 280 508.5 c 0,11,12
 280 492 280 492 268 480.5 c 128,-1,4
 256 469 256 469 240 469 c 128,-1,5
280 257 m 128,-1,14
 280 241 280 241 268 229.5 c 128,-1,15
 256 218 256 218 240 218 c 128,-1,16
 224 218 224 218 212.5 229.5 c 128,-1,17
 201 241 201 241 201 257 c 128,-1,18
 201 273 201 273 212.5 284.5 c 128,-1,19
 224 296 224 296 240 296 c 128,-1,20
 256 296 256 296 268 284.5 c 128,-1,13
 280 273 280 273 280 257 c 128,-1,14
EndSplineSet
EndChar

StartChar: degree
Encoding: 176 176 135
Width: 401
Flags: HMW
HStem: 421 225<196.5 247.5 196.5 262> 484 225<196.5 247.5>
VStem: 78 225<544.5 585 544.5 605> 141 225<544.5 585>
LayerCount: 2
Fore
SplineSet
222 421 m 128,-1,1
 162 421 162 421 120 463 c 128,-1,2
 78 505 78 505 78 565 c 128,-1,3
 78 625 78 625 120 667 c 128,-1,4
 162 709 162 709 222 709 c 128,-1,5
 282 709 282 709 324 667 c 128,-1,6
 366 625 366 625 366 565 c 128,-1,7
 366 505 366 505 324 463 c 128,-1,0
 282 421 282 421 222 421 c 128,-1,1
281 508 m 128,-1,9
 303 532 303 532 303 564.5 c 128,-1,10
 303 597 303 597 280.5 621.5 c 128,-1,11
 258 646 258 646 222 646 c 128,-1,12
 186 646 186 646 163.5 621.5 c 128,-1,13
 141 597 141 597 141 564.5 c 128,-1,14
 141 532 141 532 163 508 c 128,-1,15
 185 484 185 484 222 484 c 128,-1,8
 259 484 259 484 281 508 c 128,-1,9
EndSplineSet
EndChar

StartChar: registered
Encoding: 174 174 136
Width: 800
Flags: HMW
HStem: -17 55 327 55 521 55 676 55
VStem: 24 68 255 68 509 68 708 68
LayerCount: 2
Fore
SplineSet
577 39 m 1,0,-1
 498 39 l 1,1,-1
 397 229 l 1,2,-1
 339 229 l 1,3,-1
 339 39 l 1,4,-1
 268 39 l 1,5,-1
 268 476 l 1,6,-1
 414 476 l 2,7,8
 490 476 490 476 529 442.5 c 128,-1,9
 568 409 568 409 568 351 c 0,10,11
 568 258 568 258 468 236 c 1,12,-1
 577 39 l 1,0,-1
339 291 m 1,13,-1
 397 291 l 2,14,15
 443 291 443 291 469.5 303 c 128,-1,16
 496 315 496 315 496 349.5 c 128,-1,17
 496 384 496 384 471.5 399 c 128,-1,18
 447 414 447 414 413 414 c 2,19,-1
 339 414 l 1,20,-1
 339 291 l 1,13,-1
665 -19 m 128,-1,22
 556 -127 556 -127 400.5 -127 c 128,-1,23
 245 -127 245 -127 135 -19 c 128,-1,24
 25 89 25 89 25 248 c 128,-1,25
 25 407 25 407 134 514 c 128,-1,26
 243 621 243 621 400.5 621 c 128,-1,27
 558 621 558 621 666 514 c 128,-1,28
 774 407 774 407 774 248 c 128,-1,21
 774 89 774 89 665 -19 c 128,-1,22
187 29.5 m 128,-1,30
 274 -56 274 -56 400.5 -56 c 128,-1,31
 527 -56 527 -56 613.5 30 c 128,-1,32
 700 116 700 116 700 245.5 c 128,-1,33
 700 375 700 375 612.5 462.5 c 128,-1,34
 525 550 525 550 399.5 550 c 128,-1,35
 274 550 274 550 187 465 c 128,-1,36
 100 380 100 380 100 247.5 c 128,-1,29
 100 115 100 115 187 29.5 c 128,-1,30
EndSplineSet
EndChar

StartChar: multiply
Encoding: 215 215 137
Width: 406
Flags: HMW
HStem: 24 458
VStem: 79 292<209 209>
LayerCount: 2
Fore
SplineSet
371 209 m 1,0,-1
 321 165 l 1,1,-1
 224 281 l 1,2,-1
 129 164 l 1,3,-1
 79 209 l 1,4,-1
 181 333 l 1,5,-1
 78 458 l 1,6,-1
 128 500 l 1,7,-1
 224 384 l 1,8,-1
 321 501 l 1,9,-1
 371 459 l 1,10,-1
 267 333 l 1,11,-1
 371 209 l 1,0,-1
EndSplineSet
EndChar

StartChar: copyright
Encoding: 169 169 138
Width: 800
Flags: HMW
HStem: -17 55 128 55 530 55 676 55
VStem: 24 68 191 68 708 68
LayerCount: 2
Fore
SplineSet
665 -19 m 128,-1,1
 556 -127 556 -127 400.5 -127 c 128,-1,2
 245 -127 245 -127 135 -19 c 128,-1,3
 25 89 25 89 25 248 c 128,-1,4
 25 407 25 407 134 514 c 128,-1,5
 243 621 243 621 400.5 621 c 128,-1,6
 558 621 558 621 666 514 c 128,-1,7
 774 407 774 407 774 248 c 128,-1,0
 774 89 774 89 665 -19 c 128,-1,1
187 29.5 m 128,-1,9
 274 -56 274 -56 400.5 -56 c 128,-1,10
 527 -56 527 -56 613.5 30 c 128,-1,11
 700 116 700 116 700 245.5 c 128,-1,12
 700 375 700 375 612.5 462.5 c 128,-1,13
 525 550 525 550 399.5 550 c 128,-1,14
 274 550 274 550 187 465 c 128,-1,15
 100 380 100 380 100 247.5 c 128,-1,8
 100 115 100 115 187 29.5 c 128,-1,9
522 175 m 1,16,-1
 599 175 l 1,17,18
 583 103 583 103 529 59.5 c 128,-1,19
 475 16 475 16 405 16 c 0,20,21
 306 16 306 16 248.5 81 c 128,-1,22
 191 146 191 146 191 244.5 c 128,-1,23
 191 343 191 343 248 410.5 c 128,-1,24
 305 478 305 478 403 478 c 0,25,26
 476 478 476 478 531 435 c 128,-1,27
 586 392 586 392 598 323 c 1,28,-1
 522 323 l 1,29,30
 514 357 514 357 480.5 380 c 128,-1,31
 447 403 447 403 403 403 c 0,32,33
 334 403 334 403 300 359 c 128,-1,34
 266 315 266 315 266 247.5 c 128,-1,35
 266 180 266 180 301.5 135 c 128,-1,36
 337 90 337 90 404 90 c 0,37,38
 450 90 450 90 484 114 c 128,-1,39
 518 138 518 138 522 175 c 1,16,-1
EndSplineSet
EndChar

StartChar: Delta
Encoding: 8710 8710 139
Width: 618
Flags: HMW
HStem: 0 65<174 485 174 583> 622 91
VStem: 97 586
LayerCount: 2
Fore
SplineSet
583 0 m 1,0,-1
 78 0 l 1,1,-1
 292 700 l 1,2,-1
 362 700 l 1,3,-1
 583 0 l 1,0,-1
485 65 m 1,4,-1
 328 574 l 1,5,-1
 174 65 l 1,6,-1
 485 65 l 1,4,-1
EndSplineSet
EndChar

StartChar: Omega
Encoding: 8486 8486 140
Width: 627
Flags: HMW
HStem: 0 66<95 146 95 306 78 146 521 575> 639 67
VStem: 221 90 628 81
LayerCount: 2
Fore
SplineSet
592 0 m 1,0,-1
 364 0 l 1,1,-1
 364 66 l 1,2,3
 382.333333333 66 382.333333333 66 395.666666667 70 c 128,-1,4
 409 74 409 74 424.5 77.5 c 128,-1,5
 440 81 440 81 446.5 85 c 128,-1,6
 453 89 453 89 465 96 c 128,-1,7
 477 103 477 103 482.5 112 c 128,-1,8
 488 121 488 121 495 133 c 0,9,10
 507 153.571428571 507 153.571428571 507 196 c 2,11,-1
 507 500 l 2,12,13
 507 564 507 564 474 600 c 128,-1,14
 441 636 441 636 386 636 c 2,15,-1
 285 636 l 2,16,17
 228 636 228 636 195.5 601.5 c 128,-1,18
 163 567 163 567 163 500 c 2,19,-1
 163 196 l 2,20,21
 163 153.571428571 163 153.571428571 172.5 137.285714286 c 128,-1,22
 182 121 182 121 187.5 112 c 128,-1,23
 193 103 193 103 205 96 c 128,-1,24
 217 89 217 89 223.5 85 c 128,-1,25
 230 81 230 81 245.5 77.5 c 128,-1,26
 261 74 261 74 266 72.5 c 0,27,28
 287.666666667 66 287.666666667 66 306 66 c 1,29,-1
 306 0 l 1,30,-1
 78 0 l 1,31,-1
 95 66 l 1,32,-1
 146 66 l 1,33,34
 91 106 91 106 91 196 c 2,35,-1
 91 503 l 2,36,37
 91 595 91 595 138 651 c 128,-1,38
 185 707 185 707 279 707 c 2,39,-1
 391 707 l 2,40,41
 485 707 485 707 532 651 c 128,-1,42
 579 595 579 595 579 503 c 2,43,-1
 579 196 l 2,44,45
 579 144 579 144 563.5 115.5 c 128,-1,46
 548 87 548 87 521 66 c 1,47,-1
 575 66 l 1,48,-1
 592 0 l 1,0,-1
EndSplineSet
EndChar

StartChar: pi
Encoding: 960 960 141
Width: 511
Flags: HMW
HStem: 0 21G<66 138 66 66> 449 68
VStem: 192 89 387 80
LayerCount: 2
Fore
SplineSet
474 37 m 1,0,-1
 436 -9 l 1,1,2
 394.75 4.75 394.75 4.75 379 43 c 0,3,4
 372 60 372 60 372 81 c 2,5,-1
 373 437 l 1,6,-1
 138 437 l 1,7,-1
 138 0 l 1,8,-1
 66 0 l 1,9,-1
 66 501 l 1,10,-1
 445 501 l 1,11,-1
 445 79 l 1,12,13
 450 51 450 51 474 37 c 1,0,-1
EndSplineSet
EndChar

StartChar: uni00AD
Encoding: 173 173 142
Width: 410
Flags: HMW
HStem: 238 80
VStem: 50 289
LayerCount: 2
Fore
SplineSet
365 343 m 1,0,-1
 45 343 l 1,1,-1
 45 413 l 1,2,-1
 365 413 l 1,3,-1
 365 343 l 1,0,-1
EndSplineSet
EndChar

StartChar: f_l
Encoding: 64258 64258 143
Width: 413
Flags: HMW
HStem: 0 21G<78 151 78 78 305 378 305 305> 442 75 647 75 694 20G
VStem: 141 85 407 85
LayerCount: 2
Fore
SplineSet
378 0 m 1,0,-1
 305 0 l 1,1,-1
 305 614 l 1,2,3
 269.375 635.875 269.375 635.875 243.53125 635.875 c 128,-1,4
 217.6875 635.875 217.6875 635.875 199.5 628 c 0,5,6
 151 607 151 607 151 549 c 2,7,-1
 151 501 l 1,8,-1
 257 501 l 1,9,-1
 233 433 l 1,10,-1
 151 433 l 1,11,-1
 151 0 l 1,12,-1
 78 0 l 1,13,-1
 78 548 l 2,14,15
 78 617 78 617 120 660 c 0,16,17
 164.579043637 705.640449438 164.579043637 705.640449438 232.120982493 705.640449438 c 128,-1,18
 299.662921348 705.640449438 299.662921348 705.640449438 378 666 c 1,19,-1
 378 0 l 1,0,-1
EndSplineSet
EndChar

StartChar: Epsilontonos
Encoding: 904 904 144
Width: 614
Flags: HMW
HStem: 0 50 65 278<317 469 317 577 317 577> 568 143 648 52
VStem: 88 109 245 56 577 2
LayerCount: 2
Fore
SplineSet
131 568 m 1,0,-1
 78 568 l 1,1,-1
 127 683 l 1,2,3
 139.363636364 709.272727273 139.363636364 709.272727273 166.066115702 709.272727273 c 0,4,5
 172.636363636 709.272727273 172.636363636 709.272727273 179 707 c 0,6,7
 201.806451613 697.609108159 201.806451613 697.609108159 201.806451613 673.29760666 c 0,8,9
 201.806451613 661.64516129 201.806451613 661.64516129 194 651 c 2,10,-1
 131 568 l 1,0,-1
577 0 m 1,11,-1
 245 0 l 1,12,-1
 245 700 l 1,13,-1
 579 700 l 1,14,-1
 579 631 l 1,15,-1
 317 631 l 1,16,-1
 317 413 l 1,17,-1
 492 413 l 1,18,-1
 469 343 l 1,19,-1
 317 343 l 1,20,-1
 317 65 l 1,21,-1
 577 65 l 1,22,-1
 577 0 l 1,11,-1
EndSplineSet
EndChar

StartChar: Etatonos
Encoding: 905 905 145
Width: 712
Flags: HMW
HStem: 568 143 569 143
VStem: 80 109 239 56 247 72<0 343 0 413 413 700> 344 47 605 72<0 343 343 343 413 700> 613 56
LayerCount: 2
Fore
SplineSet
131 568 m 1,0,-1
 78 568 l 1,1,-1
 127 683 l 1,2,3
 139.363636364 709.272727273 139.363636364 709.272727273 166.066115702 709.272727273 c 0,4,5
 172.636363636 709.272727273 172.636363636 709.272727273 179 707 c 0,6,7
 201.806451613 697.609108159 201.806451613 697.609108159 201.806451613 673.29760666 c 0,8,9
 201.806451613 661.64516129 201.806451613 661.64516129 194 651 c 2,10,-1
 131 568 l 1,0,-1
677 0 m 1,11,-1
 605 0 l 1,12,-1
 605 343 l 1,13,-1
 319 343 l 1,14,-1
 319 0 l 1,15,-1
 247 0 l 1,16,-1
 247 700 l 1,17,-1
 319 700 l 1,18,-1
 319 413 l 1,19,-1
 605 413 l 1,20,-1
 605 700 l 1,21,-1
 677 700 l 1,22,-1
 677 0 l 1,11,-1
EndSplineSet
EndChar

StartChar: Iotatonos
Encoding: 906 906 146
Width: 407
Flags: HMW
HStem: 568 143 569 143
VStem: 105 109 300 72<0 632 632 632> 319 56
LayerCount: 2
Fore
SplineSet
372 0 m 1,0,-1
 300 0 l 1,1,-1
 300 632 l 1,2,-1
 234 634 l 1,3,-1
 234 700 l 1,4,-1
 372 700 l 1,5,-1
 372 0 l 1,0,-1
131 568 m 1,6,-1
 78 568 l 1,7,-1
 127 683 l 1,8,9
 139.363636364 709.272727273 139.363636364 709.272727273 166.066115702 709.272727273 c 0,10,11
 172.636363636 709.272727273 172.636363636 709.272727273 179 707 c 0,12,13
 201.806451613 697.609108159 201.806451613 697.609108159 201.806451613 673.29760666 c 0,14,15
 201.806451613 661.64516129 201.806451613 661.64516129 194 651 c 2,16,-1
 131 568 l 1,6,-1
EndSplineSet
EndChar

StartChar: Omicrontonos
Encoding: 908 908 147
Width: 650
Flags: HMW
HStem: 0 42 568 143 569 143 643 73<361 449.5>
VStem: 82 109 87 109 195 56 195 72<185 191 191 502> 286 49 543 72<193 502 502 506> 560 55
LayerCount: 2
Fore
SplineSet
615 506 m 2,0,-1
 615 185 l 2,1,2
 615 84 615 84 553.5 36.5 c 128,-1,3
 492 -11 492 -11 406 -11 c 128,-1,4
 320 -11 320 -11 257.5 36.5 c 128,-1,5
 195 84 195 84 195 185 c 2,6,-1
 195 507 l 2,7,8
 195 610 195 610 251.5 663 c 128,-1,9
 308 716 308 716 407 716 c 128,-1,10
 506 716 506 716 560.5 660 c 128,-1,11
 615 604 615 604 615 506 c 2,0,-1
543 193 m 2,12,-1
 543 502 l 2,13,14
 543 571 543 571 507.5 607 c 128,-1,15
 472 643 472 643 405 643 c 0,16,17
 267 643 267 643 267 502 c 2,18,-1
 267 191 l 2,19,20
 267 127 267 127 305 93.5 c 128,-1,21
 343 60 343 60 405 60 c 128,-1,22
 467 60 467 60 505 93.5 c 128,-1,23
 543 127 543 127 543 193 c 2,12,-1
131 568 m 1,24,-1
 78 568 l 1,25,-1
 127 683 l 1,26,27
 139.363636364 709.272727273 139.363636364 709.272727273 166.066115702 709.272727273 c 0,28,29
 172.636363636 709.272727273 172.636363636 709.272727273 179 707 c 0,30,31
 201.806451613 697.609108159 201.806451613 697.609108159 201.806451613 673.29760666 c 0,32,33
 201.806451613 661.64516129 201.806451613 661.64516129 194 651 c 2,34,-1
 131 568 l 1,24,-1
EndSplineSet
EndChar

StartChar: Upsilontonos
Encoding: 910 910 148
Width: 716
Flags: HMW
HStem: 0 21G 568 143 694 20G
VStem: 87 109 237 56 310 298<391 437 437 700> 543 20 624 57
LayerCount: 2
Fore
SplineSet
131 568 m 1,0,-1
 78 568 l 1,1,-1
 127 683 l 1,2,3
 139.363636364 709.272727273 139.363636364 709.272727273 166.066115702 709.272727273 c 0,4,5
 172.636363636 709.272727273 172.636363636 709.272727273 179 707 c 0,6,7
 201.806451613 697.609108159 201.806451613 697.609108159 201.806451613 673.29760666 c 0,8,9
 201.806451613 661.64516129 201.806451613 661.64516129 194 651 c 2,10,-1
 131 568 l 1,0,-1
563 -11 m 1,11,-1
 543 40 l 1,12,13
 572 49 572 49 590 73.5 c 128,-1,14
 608 98 608 98 608 156 c 2,15,-1
 608 272 l 1,16,17
 558 230 558 230 459.5 230 c 128,-1,18
 361 230 361 230 299 284.5 c 128,-1,19
 237 339 237 339 237 441 c 2,20,-1
 237 700 l 1,21,-1
 310 700 l 1,22,-1
 310 437 l 2,23,24
 310 370 310 370 352 335.5 c 128,-1,25
 394 301 394 301 457.5 301 c 128,-1,26
 521 301 521 301 559.5 322.5 c 128,-1,27
 598 344 598 344 608 383 c 1,28,-1
 608 700 l 1,29,-1
 681 700 l 1,30,-1
 681 156 l 2,31,32
 681 4 681 4 563 -11 c 1,11,-1
EndSplineSet
EndChar

StartChar: Omegatonos
Encoding: 911 911 149
Width: 721
Flags: HMW
HStem: 0 66<189 240 189 400 172 240 615 669> 568 143 639 67
VStem: 80 109 82 109 209 81 315 90 722 81
LayerCount: 2
Fore
SplineSet
686 0 m 1,0,-1
 458 0 l 1,1,-1
 458 66 l 1,2,3
 476.333333333 66 476.333333333 66 489.666666667 70 c 128,-1,4
 503 74 503 74 518.5 77.5 c 128,-1,5
 534 81 534 81 540.5 85 c 128,-1,6
 547 89 547 89 559 96 c 128,-1,7
 571 103 571 103 576.5 112 c 128,-1,8
 582 121 582 121 589 133 c 0,9,10
 601 153.571428571 601 153.571428571 601 196 c 2,11,-1
 601 500 l 2,12,13
 601 564 601 564 568 600 c 128,-1,14
 535 636 535 636 480 636 c 2,15,-1
 379 636 l 2,16,17
 322 636 322 636 289.5 601.5 c 128,-1,18
 257 567 257 567 257 500 c 2,19,-1
 257 196 l 2,20,21
 257 153.571428571 257 153.571428571 266.5 137.285714286 c 128,-1,22
 276 121 276 121 281.5 112 c 128,-1,23
 287 103 287 103 299 96 c 128,-1,24
 311 89 311 89 317.5 85 c 128,-1,25
 324 81 324 81 339.5 77.5 c 128,-1,26
 355 74 355 74 360 72.5 c 0,27,28
 381.666666667 66 381.666666667 66 400 66 c 1,29,-1
 400 0 l 1,30,-1
 172 0 l 1,31,-1
 189 66 l 1,32,-1
 240 66 l 1,33,34
 185 106 185 106 185 196 c 2,35,-1
 185 503 l 2,36,37
 185 595 185 595 232 651 c 128,-1,38
 279 707 279 707 373 707 c 2,39,-1
 485 707 l 2,40,41
 579 707 579 707 626 651 c 128,-1,42
 673 595 673 595 673 503 c 2,43,-1
 673 196 l 2,44,45
 673 144 673 144 657.5 115.5 c 128,-1,46
 642 87 642 87 615 66 c 1,47,-1
 669 66 l 1,48,-1
 686 0 l 1,0,-1
131 568 m 1,49,-1
 78 568 l 1,50,-1
 127 683 l 1,51,52
 139.363636364 709.272727273 139.363636364 709.272727273 166.066115702 709.272727273 c 0,53,54
 172.636363636 709.272727273 172.636363636 709.272727273 179 707 c 0,55,56
 201.806451613 697.609108159 201.806451613 697.609108159 201.806451613 673.29760666 c 0,57,58
 201.806451613 661.64516129 201.806451613 661.64516129 194 651 c 2,59,-1
 131 568 l 1,49,-1
EndSplineSet
EndChar

StartChar: iotatonos
Encoding: 943 943 150
Width: 251
Flags: HMW
HStem: 0 21G<78 150 78 78> 497 20G 538 143 610 104
VStem: 78 72<0 501> 99 85
LayerCount: 2
Fore
SplineSet
145 538 m 1,0,-1
 92 538 l 1,1,-1
 141 653 l 1,2,3
 153.363636364 679.272727273 153.363636364 679.272727273 180.066115702 679.272727273 c 0,4,5
 186.636363636 679.272727273 186.636363636 679.272727273 193 677 c 0,6,7
 215.806451613 667.609108159 215.806451613 667.609108159 215.806451613 643.29760666 c 0,8,9
 215.806451613 631.64516129 215.806451613 631.64516129 208 621 c 2,10,-1
 145 538 l 1,0,-1
150 0 m 1,11,-1
 78 0 l 1,12,-1
 78 501 l 1,13,-1
 150 501 l 1,14,-1
 150 0 l 1,11,-1
EndSplineSet
EndChar

StartChar: etatonos
Encoding: 942 942 151
Width: 482
Flags: HMW
HStem: 0 21G<78 150 78 78> 454 75 538 143
VStem: 87 85 244 109 253 109 430 85
LayerCount: 2
Fore
SplineSet
302 538 m 1,0,-1
 249 538 l 1,1,-1
 298 653 l 1,2,3
 310.363636364 679.272727273 310.363636364 679.272727273 337.066115702 679.272727273 c 0,4,5
 343.636363636 679.272727273 343.636363636 679.272727273 350 677 c 0,6,7
 372.806451613 667.609108159 372.806451613 667.609108159 372.806451613 643.29760666 c 0,8,9
 372.806451613 631.64516129 372.806451613 631.64516129 365 621 c 2,10,-1
 302 538 l 1,0,-1
147 476 m 1,11,12
 190.956199461 509.264150943 190.956199461 509.264150943 271.211819153 509.264150943 c 0,13,14
 322.981132075 509.264150943 322.981132075 509.264150943 362 491 c 0,15,16
 447 452 447 452 447 346 c 2,17,-1
 447 -210 l 1,18,-1
 376 -186 l 1,19,-1
 376 343 l 2,20,21
 376 400 376 400 340.322580645 422.580645161 c 128,-1,22
 304.64516129 445.161290323 304.64516129 445.161290323 256.267741935 445.161290323 c 128,-1,23
 207.890322581 445.161290323 207.890322581 445.161290323 150 413 c 1,24,-1
 150 0 l 1,25,-1
 78 0 l 1,26,-1
 78 501 l 1,27,-1
 147 501 l 1,28,-1
 147 476 l 1,11,12
EndSplineSet
EndChar

StartChar: epsilontonos
Encoding: 941 941 152
Width: 458
Flags: HMW
HStem: -12 75 336 68 538 143 634 75
VStem: 58 85 68 85 73 85 82 92 229 109 418 90 428 90 448 90 458 90
LayerCount: 2
Fore
SplineSet
278 538 m 1,0,-1
 225 538 l 1,1,-1
 274 653 l 1,2,3
 286.363636364 679.272727273 286.363636364 679.272727273 313.066115702 679.272727273 c 0,4,5
 319.636363636 679.272727273 319.636363636 679.272727273 326 677 c 0,6,7
 348.806451613 667.609108159 348.806451613 667.609108159 348.806451613 643.29760666 c 0,8,9
 348.806451613 631.64516129 348.806451613 631.64516129 341 621 c 2,10,-1
 278 538 l 1,0,-1
262.253472222 445.541666667 m 0,11,12
 170.957446809 445.541666667 170.957446809 445.541666667 170.957446809 376.375282933 c 0,13,14
 170.957446809 347 170.957446809 347 192.978723404 324 c 128,-1,15
 215 301 215 301 253 301 c 2,16,-1
 352 301 l 1,17,-1
 329 231 l 1,18,-1
 246 231 l 2,19,20
 200 231 200 231 175 209.5 c 128,-1,21
 150 188 150 188 150 147.5 c 128,-1,22
 150 107 150 107 179 83 c 128,-1,23
 208 59 208 59 253 59 c 0,24,25
 329.666666667 59 329.666666667 59 384.5 82.5 c 2,26,-1
 402 90 l 1,27,-1
 423 23 l 1,28,29
 345 -11 345 -11 260.5 -11 c 128,-1,30
 176 -11 176 -11 130 30 c 0,31,32
 78.2643678161 76.112193903 78.2643678161 76.112193903 78.2643678161 151.604174924 c 0,33,34
 78.2643678161 245.310344828 78.2643678161 245.310344828 150 278 c 1,35,36
 127 291 127 291 112.217391304 322.739130435 c 128,-1,37
 97.4347826087 354.47826087 97.4347826087 354.47826087 97.4347826087 374.02173913 c 0,38,39
 97.4347826087 449.913043478 97.4347826087 449.913043478 151 484 c 0,40,41
 193.482758621 511.034482759 193.482758621 511.034482759 244.355529132 511.034482759 c 0,42,43
 297.157635468 511.034482759 297.157635468 511.034482759 353 496 c 1,44,-1
 354 431 l 1,45,46
 308.759259259 445.541666667 308.759259259 445.541666667 262.253472222 445.541666667 c 0,11,12
EndSplineSet
EndChar

StartChar: omegatonos
Encoding: 974 974 153
Width: 645
Flags: HMW
HStem: 538 143
VStem: 45 47 327 109 328 109
LayerCount: 2
Fore
SplineSet
376 538 m 1,0,-1
 323 538 l 1,1,-1
 372 653 l 1,2,3
 384.363636364 679.272727273 384.363636364 679.272727273 411.066115702 679.272727273 c 0,4,5
 417.636363636 679.272727273 417.636363636 679.272727273 424 677 c 0,6,7
 446.806451613 667.609108159 446.806451613 667.609108159 446.806451613 643.29760666 c 0,8,9
 446.806451613 631.64516129 446.806451613 631.64516129 439 621 c 2,10,-1
 376 538 l 1,0,-1
538 183 m 2,11,-1
 538 327 l 2,12,13
 538 423 538 423 463 451 c 1,14,-1
 503 500 l 1,15,16
 610 460 610 460 610 317 c 2,17,-1
 610 188 l 2,18,19
 610 -12 610 -12 449 -12 c 0,20,21
 379 -12 379 -12 344 41 c 1,22,23
 307 -12 307 -12 239 -12 c 0,24,25
 78 -12 78 -12 78 188 c 2,26,-1
 78 317 l 2,27,28
 78 460 78 460 185 500 c 1,29,-1
 226 451 l 1,30,31
 150 425 150 425 150 327 c 2,32,-1
 150 183 l 2,33,34
 150 119 150 119 174.5 89 c 128,-1,35
 199 59 199 59 236 59 c 128,-1,36
 273 59 273 59 289 85 c 128,-1,37
 305 111 305 111 307 169 c 1,38,-1
 307 299 l 1,39,-1
 380 299 l 1,40,-1
 380 169 l 1,41,42
 381 111 381 111 397 85 c 128,-1,43
 413 59 413 59 451.5 59 c 128,-1,44
 490 59 490 59 514 89.5 c 128,-1,45
 538 120 538 120 538 183 c 2,11,-1
EndSplineSet
EndChar

StartChar: upsilontonos
Encoding: 973 973 154
Width: 493
Flags: HMW
HStem: -12 75 497 20G 538 143
VStem: 86 85 253 109 256 109 429 85
LayerCount: 2
Fore
SplineSet
302 538 m 1,0,-1
 249 538 l 1,1,-1
 298 653 l 1,2,3
 310.363636364 679.272727273 310.363636364 679.272727273 337.066115702 679.272727273 c 0,4,5
 343.636363636 679.272727273 343.636363636 679.272727273 350 677 c 0,6,7
 372.806451613 667.609108159 372.806451613 667.609108159 372.806451613 643.29760666 c 0,8,9
 372.806451613 631.64516129 372.806451613 631.64516129 365 621 c 2,10,-1
 302 538 l 1,0,-1
386 184 m 2,11,-1
 386 501 l 1,12,-1
 458 501 l 1,13,-1
 458 172 l 2,14,15
 458 -10 458 -10 268 -10 c 128,-1,16
 78 -10 78 -10 78 172 c 2,17,-1
 78 501 l 1,18,-1
 150 501 l 1,19,-1
 150 183 l 2,20,21
 150 117 150 117 179 87.5 c 128,-1,22
 208 58 208 58 267.5 58 c 128,-1,23
 327 58 327 58 356.5 88 c 128,-1,24
 386 118 386 118 386 184 c 2,11,-1
EndSplineSet
EndChar

StartChar: omicrontonos
Encoding: 972 972 155
Width: 486
Flags: HMW
HStem: -12 75 -10 67<231 301.5 231 332> 443 69<233.5 296.5> 454 75 538 143
VStem: 58 90 78 72<184 316> 248 109 379 72<174 184 184 316> 470 90
LayerCount: 2
Fore
SplineSet
292 538 m 1,0,-1
 239 538 l 1,1,-1
 288 653 l 1,2,3
 300.363636364 679.272727273 300.363636364 679.272727273 327.066115702 679.272727273 c 0,4,5
 333.636363636 679.272727273 333.636363636 679.272727273 340 677 c 0,6,7
 362.806451613 667.609108159 362.806451613 667.609108159 362.806451613 643.29760666 c 0,8,9
 362.806451613 631.64516129 362.806451613 631.64516129 355 621 c 2,10,-1
 292 538 l 1,0,-1
451 316 m 2,11,-1
 451 184 l 2,12,13
 451 100 451 100 405 45 c 128,-1,14
 359 -10 359 -10 266 -10 c 128,-1,15
 173 -10 173 -10 125.5 45.5 c 128,-1,16
 78 101 78 101 78 184 c 2,17,-1
 78 316 l 2,18,19
 78 411 78 411 126.5 461.5 c 128,-1,20
 175 512 175 512 264 512 c 128,-1,21
 353 512 353 512 402 459.5 c 128,-1,22
 451 407 451 407 451 316 c 2,11,-1
379 174 m 2,23,-1
 379 316 l 2,24,25
 379 443 379 443 266 443 c 0,26,27
 150 443 150 443 150 316 c 2,28,-1
 150 174 l 2,29,30
 150 120 150 120 181.5 88.5 c 128,-1,31
 213 57 213 57 266 57 c 128,-1,32
 319 57 319 57 349 88.5 c 128,-1,33
 379 120 379 120 379 174 c 2,23,-1
EndSplineSet
EndChar

StartChar: alphatonos
Encoding: 940 940 156
Width: 508
Flags: HMW
HStem: -198 21G -12 75 454 63 454 75 538 143
VStem: 86 90 153 96 241 109 271 109 481 85 491 85
LayerCount: 2
Fore
SplineSet
223.158163265 506.785714286 m 0,0,1
 298.315789474 506.785714286 298.315789474 506.785714286 373 473 c 1,2,-1
 389 509 l 1,3,-1
 450 486 l 1,4,5
 443 421 443 421 443 389 c 2,6,-1
 443 77 l 1,7,8
 449 49 449 49 473 35 c 1,9,-1
 421 1 l 1,10,11
 417 1 417 1 405.5 3.5 c 128,-1,12
 394 6 394 6 367.5 1.5 c 0,13,14
 289.48384781 -11.7480258435 289.48384781 -11.7480258435 233.241923905 -4.87401292175 c 128,-1,15
 177 2 177 2 148 19 c 128,-1,16
 119 36 119 36 98.5 74 c 128,-1,17
 78 112 78 112 78 169 c 2,18,-1
 78 354 l 2,19,20
 78 423 78 423 109.5 461.5 c 128,-1,21
 141 500 141 500 189 505 c 0,22,23
 206.142857143 506.785714286 206.142857143 506.785714286 223.158163265 506.785714286 c 0,0,1
370 71 m 1,24,-1
 370 406 l 1,25,26
 285.583690987 439.995708155 285.583690987 439.995708155 233.412238207 439.995708155 c 0,27,28
 149 439.995708155 149 439.995708155 149 351 c 2,29,-1
 149 177 l 2,30,31
 149 98 149 98 201.5 73.5 c 0,32,33
 229.161290323 60.5913978495 229.161290323 60.5913978495 272.139784946 60.5913978495 c 128,-1,34
 315.11827957 60.5913978495 315.11827957 60.5913978495 370 71 c 1,24,-1
290 538 m 1,35,-1
 237 538 l 1,36,-1
 286 653 l 1,37,38
 298.363636364 679.272727273 298.363636364 679.272727273 325.066115702 679.272727273 c 0,39,40
 331.636363636 679.272727273 331.636363636 679.272727273 338 677 c 0,41,42
 360.806451613 667.609108159 360.806451613 667.609108159 360.806451613 643.29760666 c 0,43,44
 360.806451613 631.64516129 360.806451613 631.64516129 353 621 c 2,45,-1
 290 538 l 1,35,-1
EndSplineSet
EndChar

StartChar: Upsilondieresis
Encoding: 65539 -1 157
Width: 557
Flags: HMW
HStem: 0 21G 694 20G
VStem: 78 56 78 73<441 700> 449 73<156 272 272 272 383 700> 465 57
LayerCount: 2
Fore
SplineSet
404 -11 m 1,0,-1
 384 40 l 1,1,2
 413 49 413 49 431 73.5 c 128,-1,3
 449 98 449 98 449 156 c 2,4,-1
 449 272 l 1,5,6
 400 230 400 230 301 230 c 0,7,8
 202 230 202 230 140 284.5 c 128,-1,9
 78 339 78 339 78 441 c 2,10,-1
 78 700 l 1,11,-1
 151 700 l 1,12,-1
 151 437 l 2,13,14
 151 370 151 370 193 335.5 c 128,-1,15
 235 301 235 301 298.5 301 c 0,16,17
 362 301 362 301 400.5 322.5 c 128,-1,18
 439 344 439 344 449 383 c 1,19,-1
 449 700 l 1,20,-1
 522 700 l 1,21,-1
 522 156 l 2,22,23
 522 4 522 4 404 -11 c 1,0,-1
263 767 m 128,-1,25
 263 752 263 752 252 741.5 c 128,-1,26
 241 731 241 731 226 731 c 128,-1,27
 211 731 211 731 200.5 741.5 c 128,-1,28
 190 752 190 752 190 767 c 128,-1,29
 190 782 190 782 200.5 793 c 128,-1,30
 211 804 211 804 226 804 c 128,-1,31
 241 804 241 804 252 793 c 128,-1,24
 263 782 263 782 263 767 c 128,-1,25
375 731 m 128,-1,33
 360 731 360 731 349.5 741.5 c 128,-1,34
 339 752 339 752 339 767.5 c 0,35,36
 339 783 339 783 349.5 793.5 c 128,-1,37
 360 804 360 804 375 804 c 128,-1,38
 390 804 390 804 401 793.5 c 128,-1,39
 412 783 412 783 412 767.5 c 0,40,41
 412 752 412 752 401 741.5 c 128,-1,32
 390 731 390 731 375 731 c 128,-1,33
EndSplineSet
EndChar

StartChar: iotadieresis
Encoding: 970 970 158
Width: 277
Flags: HMW
HStem: 0 21G<96 168 96 96> 497 20G 610 104
VStem: 96 72<0 501> 120 85
LayerCount: 2
Fore
SplineSet
168 0 m 1,0,-1
 96 0 l 1,1,-1
 96 501 l 1,2,-1
 168 501 l 1,3,-1
 168 0 l 1,0,-1
93 575 m 128,-1,5
 93 560 93 560 82 549.5 c 128,-1,6
 71 539 71 539 56 539 c 128,-1,7
 41 539 41 539 30.5 549.5 c 128,-1,8
 20 560 20 560 20 575 c 128,-1,9
 20 590 20 590 30.5 601 c 128,-1,10
 41 612 41 612 56 612 c 128,-1,11
 71 612 71 612 82 601 c 128,-1,4
 93 590 93 590 93 575 c 128,-1,5
205 539 m 128,-1,13
 190 539 190 539 179.5 549.5 c 128,-1,14
 169 560 169 560 169 575.5 c 0,15,16
 169 591 169 591 179.5 601.5 c 128,-1,17
 190 612 190 612 205 612 c 128,-1,18
 220 612 220 612 231 601.5 c 128,-1,19
 242 591 242 591 242 575.5 c 0,20,21
 242 560 242 560 231 549.5 c 128,-1,12
 220 539 220 539 205 539 c 128,-1,13
EndSplineSet
EndChar

StartChar: upsilondieresis
Encoding: 971 971 159
Width: 493
Flags: HMW
HStem: -12 75 0 21G 497 20G
VStem: 105 80 158 92 419 85 446 85
LayerCount: 2
Fore
SplineSet
232 575 m 128,-1,1
 232 560 232 560 221 549.5 c 128,-1,2
 210 539 210 539 195 539 c 128,-1,3
 180 539 180 539 169.5 549.5 c 128,-1,4
 159 560 159 560 159 575 c 128,-1,5
 159 590 159 590 169.5 601 c 128,-1,6
 180 612 180 612 195 612 c 128,-1,7
 210 612 210 612 221 601 c 128,-1,0
 232 590 232 590 232 575 c 128,-1,1
344 539 m 128,-1,9
 329 539 329 539 318.5 549.5 c 128,-1,10
 308 560 308 560 308 575.5 c 0,11,12
 308 591 308 591 318.5 601.5 c 128,-1,13
 329 612 329 612 344 612 c 128,-1,14
 359 612 359 612 370 601.5 c 128,-1,15
 381 591 381 591 381 575.5 c 0,16,17
 381 560 381 560 370 549.5 c 128,-1,8
 359 539 359 539 344 539 c 128,-1,9
386 184 m 2,18,-1
 386 501 l 1,19,-1
 458 501 l 1,20,-1
 458 172 l 2,21,22
 458 -10 458 -10 268 -10 c 0,23,24
 78 -10 78 -10 78 172 c 2,25,-1
 78 501 l 1,26,-1
 150 501 l 1,27,-1
 150 183 l 2,28,29
 150 117 150 117 179 87.5 c 128,-1,30
 208 58 208 58 267.5 58 c 0,31,32
 327 58 327 58 356.5 88 c 128,-1,33
 386 118 386 118 386 184 c 2,18,-1
EndSplineSet
EndChar

StartChar: Iotadieresis
Encoding: 938 938 160
Width: 375
Flags: HMW
VStem: 91 66<0 700> 156 56
LayerCount: 2
Fore
SplineSet
155 767 m 128,-1,1
 155 752 155 752 144 741.5 c 128,-1,2
 133 731 133 731 118 731 c 128,-1,3
 103 731 103 731 92.5 741.5 c 128,-1,4
 82 752 82 752 82 767 c 128,-1,5
 82 782 82 782 92.5 793 c 128,-1,6
 103 804 103 804 118 804 c 128,-1,7
 133 804 133 804 144 793 c 128,-1,0
 155 782 155 782 155 767 c 128,-1,1
267 731 m 128,-1,9
 252 731 252 731 241.5 741.5 c 128,-1,10
 231 752 231 752 231 767.5 c 0,11,12
 231 783 231 783 241.5 793.5 c 128,-1,13
 252 804 252 804 267 804 c 128,-1,14
 282 804 282 804 293 793.5 c 128,-1,15
 304 783 304 783 304 767.5 c 0,16,17
 304 752 304 752 293 741.5 c 128,-1,8
 282 731 282 731 267 731 c 128,-1,9
229 0 m 1,18,-1
 157 0 l 1,19,-1
 157 632 l 1,20,-1
 91 634 l 1,21,-1
 91 700 l 1,22,-1
 229 700 l 1,23,-1
 229 0 l 1,18,-1
EndSplineSet
EndChar

StartChar: Psi
Encoding: 936 936 161
Width: 632
Flags: HMW
VStem: 83 47
LayerCount: 2
Fore
SplineSet
357 0 m 1,0,-1
 284 0 l 1,1,-1
 283 212 l 1,2,-1
 247 212 l 2,3,4
 152 212 152 212 105.5 263.5 c 128,-1,5
 59 315 59 315 59 406 c 2,6,-1
 59 700 l 1,7,-1
 131 700 l 1,8,-1
 131 409 l 2,9,10
 131 276 131 276 247 276 c 2,11,-1
 283 276 l 1,12,-1
 283 700 l 1,13,-1
 357 700 l 1,14,-1
 357 276 l 1,15,-1
 398 276 l 2,16,17
 514 276 514 276 514 410 c 2,18,-1
 514 564 l 2,19,20
 514 604 514 604 506.5 629.5 c 128,-1,21
 499 655 499 655 493 661 c 128,-1,22
 487 667 487 667 468 685 c 1,23,-1
 530 709 l 1,24,25
 557 692 557 692 570 662.5 c 128,-1,26
 583 633 583 633 584.5 612 c 128,-1,27
 586 591 586 591 586 549 c 2,28,-1
 586 406 l 2,29,30
 586 315 586 315 539.5 263.5 c 128,-1,31
 493 212 493 212 398 212 c 2,32,-1
 357 212 l 1,33,-1
 357 0 l 1,0,-1
EndSplineSet
EndChar

StartChar: psi
Encoding: 968 968 162
Width: 641
Flags: HMW
VStem: 51 47
LayerCount: 2
Fore
SplineSet
375 -219 m 1,0,-1
 302 -206 l 1,1,-1
 302 -5 l 1,2,-1
 266 -5 l 2,3,4
 171 -5 171 -5 124.5 46.5 c 128,-1,5
 78 98 78 98 78 189 c 2,6,-1
 78 500 l 1,7,-1
 150 500 l 1,8,-1
 150 197 l 2,9,10
 150 62 150 62 266 62 c 2,11,-1
 302 62 l 1,12,-1
 302 500 l 1,13,-1
 375 500 l 1,14,-1
 375 62 l 1,15,-1
 417 62 l 2,16,17
 533 62 533 62 533 197 c 2,18,-1
 533 361 l 2,19,20
 533 401 533 401 525 427 c 128,-1,21
 517 453 517 453 510.5 460 c 128,-1,22
 504 467 504 467 486 484 c 1,23,-1
 549 506 l 1,24,25
 576 489 576 489 589 459.5 c 128,-1,26
 602 430 602 430 603.5 409 c 128,-1,27
 605 388 605 388 605 346 c 2,28,-1
 605 189 l 2,29,30
 605 98 605 98 558.5 46.5 c 128,-1,31
 512 -5 512 -5 417 -5 c 2,32,-1
 375 -5 l 1,33,-1
 375 -219 l 1,0,-1
EndSplineSet
EndChar

StartChar: omega
Encoding: 969 969 163
Width: 635
Flags: HMW
VStem: 33 47
LayerCount: 2
Fore
SplineSet
526 183 m 2,0,-1
 526 327 l 2,1,2
 526 423 526 423 451 451 c 1,3,-1
 491 500 l 1,4,5
 598 460 598 460 598 317 c 2,6,-1
 598 188 l 2,7,8
 598 -12 598 -12 437 -12 c 0,9,10
 367 -12 367 -12 332 41 c 1,11,12
 295 -12 295 -12 227 -12 c 0,13,14
 66 -12 66 -12 66 188 c 2,15,-1
 66 317 l 2,16,17
 66 460 66 460 173 500 c 1,18,-1
 214 451 l 1,19,20
 138 425 138 425 138 327 c 2,21,-1
 138 183 l 2,22,23
 138 119 138 119 162.5 89 c 128,-1,24
 187 59 187 59 224 59 c 128,-1,25
 261 59 261 59 277 85 c 128,-1,26
 293 111 293 111 295 169 c 1,27,-1
 295 299 l 1,28,-1
 368 299 l 1,29,-1
 368 169 l 1,30,31
 369 111 369 111 385 85 c 128,-1,32
 401 59 401 59 439.5 59 c 0,33,34
 478 59 478 59 502 89.5 c 128,-1,35
 526 120 526 120 526 183 c 2,0,-1
EndSplineSet
EndChar

StartChar: chi
Encoding: 967 967 164
Width: 599
Flags: HMW
HStem: 0 21G 272 21G 279 21G 497 20G
VStem: 123 500
LayerCount: 2
Fore
SplineSet
564 -162 m 1,0,-1
 529 -212 l 2,1,2
 528.163265306 -212.010204082 528.163265306 -212.010204082 527.329862557 -212.010204082 c 0,3,4
 446.489795918 -212.010204082 446.489795918 -212.010204082 397 -116 c 1,5,-1
 295 92 l 1,6,-1
 144 -204 l 1,7,-1
 78 -177 l 1,8,-1
 256 171 l 1,9,-1
 94 501 l 1,10,-1
 174 501 l 1,11,-1
 296 248 l 1,12,-1
 426 501 l 1,13,-1
 507 501 l 1,14,-1
 334 169 l 1,15,-1
 457 -85 l 2,16,17
 471 -116 471 -116 491 -133.5 c 128,-1,18
 511 -151 511 -151 522.5 -154.5 c 0,19,20
 547.142857143 -162 547.142857143 -162 564 -162 c 1,0,-1
EndSplineSet
EndChar

StartChar: Chi
Encoding: 935 935 165
Width: 641
Flags: HMW
HStem: 0 21G<78 167 78 78 515 606 515 515> 694 20G
VStem: 93 472 95 495<700 700>
LayerCount: 2
Fore
SplineSet
606 0 m 1,0,-1
 515 0 l 1,1,-1
 341 279 l 1,2,-1
 167 0 l 1,3,-1
 78 0 l 1,4,-1
 298 351 l 1,5,-1
 95 700 l 1,6,-1
 178 700 l 1,7,-1
 342 425 l 1,8,-1
 506 700 l 1,9,-1
 590 700 l 1,10,-1
 386 354 l 1,11,-1
 606 0 l 1,0,-1
EndSplineSet
EndChar

StartChar: phi
Encoding: 966 966 166
Width: 640
Flags: HMW
VStem: -24 48
LayerCount: 2
Fore
SplineSet
376 -216 m 1,0,-1
 303 -203 l 1,1,-1
 302 -5 l 1,2,-1
 266 -5 l 2,3,4
 171 -5 171 -5 124.5 46.5 c 128,-1,5
 78 98 78 98 78 189 c 2,6,-1
 78 314 l 2,7,8
 78 466 78 466 194 503 c 1,9,-1
 233 447 l 1,10,11
 150 425 150 425 150 314 c 2,12,-1
 150 197 l 2,13,14
 150 62 150 62 266 62 c 2,15,-1
 302 62 l 1,16,-1
 302 401 l 1,17,18
 305 451 305 451 337.5 479 c 128,-1,19
 370 507 370 507 418 507 c 0,20,21
 505 507 505 507 555 452.5 c 128,-1,22
 605 398 605 398 605 307 c 2,23,-1
 605 189 l 2,24,25
 605 98 605 98 558.5 46.5 c 128,-1,26
 512 -5 512 -5 417 -5 c 2,27,-1
 376 -5 l 1,28,-1
 376 -216 l 1,0,-1
533 196 m 2,29,-1
 533 315 l 2,30,31
 533 381 533 381 501.5 412.5 c 128,-1,32
 470 444 470 444 436 444 c 0,33,34
 402 444 402 444 389 427 c 128,-1,35
 376 410 376 410 376 388 c 2,36,-1
 376 62 l 1,37,-1
 417 62 l 2,38,39
 533 62 533 62 533 196 c 2,29,-1
EndSplineSet
EndChar

StartChar: upsilon
Encoding: 965 965 167
Width: 483
Flags: HMW
HStem: -12 75 0 21G 497 20G
VStem: 146 92 407 85
LayerCount: 2
Fore
SplineSet
374 184 m 2,0,-1
 374 501 l 1,1,-1
 446 501 l 1,2,-1
 446 172 l 2,3,4
 446 -10 446 -10 256 -10 c 0,5,6
 66 -10 66 -10 66 172 c 2,7,-1
 66 501 l 1,8,-1
 138 501 l 1,9,-1
 138 183 l 2,10,11
 138 117 138 117 167 87.5 c 128,-1,12
 196 58 196 58 255.5 58 c 0,13,14
 315 58 315 58 344.5 88 c 128,-1,15
 374 118 374 118 374 184 c 2,0,-1
EndSplineSet
EndChar

StartChar: Upsilon
Encoding: 933 933 168
Width: 556
Flags: HMW
HStem: 0 21G 694 20G
VStem: 60 56 60 73<441 700> 278 95 431 73<156 272 272 272 383 700> 447 57
LayerCount: 2
Fore
SplineSet
386 -11 m 1,0,-1
 366 40 l 1,1,2
 395 49 395 49 413 73.5 c 128,-1,3
 431 98 431 98 431 156 c 2,4,-1
 431 272 l 1,5,6
 382 230 382 230 283 230 c 0,7,8
 184 230 184 230 122 284.5 c 128,-1,9
 60 339 60 339 60 441 c 2,10,-1
 60 700 l 1,11,-1
 133 700 l 1,12,-1
 133 437 l 2,13,14
 133 370 133 370 175 335.5 c 128,-1,15
 217 301 217 301 280.5 301 c 0,16,17
 344 301 344 301 382.5 322.5 c 128,-1,18
 421 344 421 344 431 383 c 1,19,-1
 431 700 l 1,20,-1
 504 700 l 1,21,-1
 504 156 l 2,22,23
 504 4 504 4 386 -11 c 1,0,-1
EndSplineSet
EndChar

StartChar: Tau
Encoding: 932 932 169
Width: 515
Flags: HMW
HStem: 0 21G<240 312 240 240> 634 80
VStem: 2 48 240 72<0 632> 248 56 318 95
LayerCount: 2
Fore
SplineSet
312 0 m 1,0,-1
 240 0 l 1,1,-1
 240 632 l 1,2,-1
 78 632 l 1,3,-1
 78 700 l 1,4,-1
 480 700 l 1,5,-1
 480 632 l 1,6,-1
 312 632 l 1,7,-1
 312 0 l 1,0,-1
EndSplineSet
EndChar

StartChar: tau
Encoding: 964 964 170
Width: 414
Flags: HMW
HStem: 0 21G 497 20G 620 55
VStem: 46 271 120 85
LayerCount: 2
Fore
SplineSet
327 38 m 1,0,-1
 302 -15 l 1,1,2
 190 16 190 16 190 132 c 2,3,-1
 190 432 l 1,4,-1
 78 432 l 1,5,-1
 78 500 l 1,6,-1
 379 500 l 1,7,-1
 379 432 l 1,8,-1
 262 432 l 1,9,-1
 262 136 l 2,10,11
 262 60 262 60 327 38 c 1,0,-1
EndSplineSet
EndChar

StartChar: Sigma
Encoding: 931 931 171
Width: 581
Flags: HMW
HStem: 0 80 634 80
VStem: 109 568 118 487
LayerCount: 2
Fore
SplineSet
401 0 m 2,0,-1
 78 0 l 1,1,-1
 304 384 l 1,2,-1
 94 702 l 1,3,-1
 522 702 l 1,4,-1
 499 631 l 1,5,-1
 226 631 l 1,6,-1
 390 387 l 1,7,-1
 199 66 l 1,8,-1
 389 66 l 2,9,10
 466 66 466 66 488 132 c 1,11,-1
 546 106 l 1,12,13
 530 50 530 50 495 25 c 128,-1,14
 460 0 460 0 401 0 c 2,0,-1
EndSplineSet
EndChar

StartChar: sigma
Encoding: 963 963 172
Width: 545
Flags: HMW
HStem: -12 75 436 77 620 55
VStem: 135 96 208 341 459 90
LayerCount: 2
Fore
SplineSet
451 310 m 2,0,-1
 451 175 l 2,1,2
 451 -19 451 -19 266 -19 c 0,3,4
 171 -19 171 -19 124.5 32.5 c 128,-1,5
 78 84 78 84 78 175 c 2,6,-1
 78 354 l 2,7,8
 78 402 78 402 96.5 435.5 c 128,-1,9
 115 469 115 469 145 484 c 0,10,11
 194.259259259 508.62962963 194.259259259 508.62962963 247.62962963 508.62962963 c 1,12,-1
 286 505 l 1,13,14
 318.625 499.9375 318.625 499.9375 342.28125 499.9375 c 128,-1,15
 365.9375 499.9375 365.9375 499.9375 383 503 c 0,16,17
 422 510 422 510 458 543 c 1,18,-1
 510 513 l 1,19,20
 477 452 477 452 414 436 c 1,21,22
 451 405 451 405 451 310 c 2,0,-1
335 433 m 0,23,24
 279.683673469 441.510204082 279.683673469 441.510204082 240.081632653 441.510204082 c 128,-1,25
 200.479591837 441.510204082 200.479591837 441.510204082 175.239795918 417.755102041 c 128,-1,26
 150 394 150 394 150 343 c 2,27,-1
 150 175 l 2,28,29
 150 113 150 113 181 82 c 128,-1,30
 212 51 212 51 266 51 c 0,31,32
 378 51 378 51 378 175 c 2,33,-1
 378 305 l 2,34,35
 378 344 378 344 367.5 376 c 128,-1,36
 357 408 357 408 347.5 420.5 c 128,-1,37
 338 433 338 433 335 433 c 0,23,24
EndSplineSet
EndChar

StartChar: sigma1
Encoding: 962 962 173
Width: 417
Flags: HMW
HStem: -12 75 454 75
VStem: 85 96
LayerCount: 2
Fore
SplineSet
359 -149 m 1,0,-1
 304 -116 l 1,1,2
 316.29787234 -101.531914894 316.29787234 -101.531914894 316.29787234 -86.2872340426 c 0,3,4
 316.29787234 -32.2804642166 316.29787234 -32.2804642166 275 -6 c 0,5,6
 269 -2 269 -2 243 14 c 128,-1,7
 217 30 217 30 210 35 c 128,-1,8
 203 40 203 40 181.5 55 c 128,-1,9
 160 70 160 70 152.5 78 c 128,-1,10
 145 86 145 86 129 101 c 128,-1,11
 113 116 113 116 107 128 c 128,-1,12
 101 140 101 140 92.5 156.5 c 0,13,14
 78 184.647058824 78 184.647058824 78 227 c 2,15,-1
 78 367 l 2,16,17
 78 420 78 420 119.5 462.5 c 128,-1,18
 161 505 161 505 250 505 c 0,19,20
 282 505 282 505 310 498.5 c 128,-1,21
 338 492 338 492 350 485 c 2,22,-1
 362 478 l 1,23,-1
 341 417 l 1,24,25
 308 441 308 441 256.5 441 c 128,-1,26
 205 441 205 441 177.5 417 c 128,-1,27
 150 393 150 393 150 352 c 2,28,-1
 150 249 l 2,29,30
 150 183 150 183 180.5 146.5 c 128,-1,31
 211 110 211 110 312 47 c 0,32,33
 350 23 350 23 365.872093023 -11.011627907 c 128,-1,34
 381.744186047 -45.023255814 381.744186047 -45.023255814 381.744186047 -62.7558139535 c 0,35,36
 381.744186047 -114.88372093 381.744186047 -114.88372093 359 -149 c 1,0,-1
EndSplineSet
EndChar

StartChar: Rho
Encoding: 929 929 174
Width: 547
Flags: HMW
HStem: 0 21G<78 150 78 78> 0 630<78 313 78 313> 292 80 634 80 647 53
VStem: 70 56 78 95 150 0<0 0 230 230 300 300 630 630> 319 121 448 56 515 95
LayerCount: 2
Fore
SplineSet
150 300 m 1,0,-1
 317 300 l 2,1,2
 353 300 353 300 378 314 c 128,-1,3
 403 328 403 328 414.5 344 c 128,-1,4
 426 360 426 360 432.5 390 c 128,-1,5
 439 420 439 420 439.5 435 c 128,-1,6
 440 450 440 450 440 478 c 0,7,8
 440 630 440 630 313 630 c 2,9,-1
 150 630 l 1,10,-1
 150 300 l 1,0,-1
150 0 m 1,11,-1
 78 0 l 1,12,-1
 78 700 l 1,13,-1
 319 700 l 2,14,15
 417 700 417 700 464.5 639 c 128,-1,16
 512 578 512 578 512 479 c 0,17,18
 512 444 512 444 510 418.5 c 128,-1,19
 508 393 508 393 497.5 354.5 c 128,-1,20
 487 316 487 316 469 291.5 c 128,-1,21
 451 267 451 267 414 248.5 c 128,-1,22
 377 230 377 230 326 230 c 2,23,-1
 150 230 l 1,24,-1
 150 0 l 1,11,-1
EndSplineSet
EndChar

StartChar: rho
Encoding: 961 961 175
Width: 486
Flags: HMW
HStem: -195 21G<149 149> -12 75 454 63 454 75
VStem: 380 96
LayerCount: 2
Fore
SplineSet
149 -195 m 1,0,-1
 78 -211 l 1,1,-1
 78 315 l 2,2,3
 78 404 78 404 127 455.5 c 128,-1,4
 176 507 176 507 268.5 507 c 0,5,6
 361 507 361 507 406 453.5 c 128,-1,7
 451 400 451 400 451 307 c 2,8,-1
 451 172 l 2,9,10
 451 84 451 84 404.5 37 c 128,-1,11
 358 -10 358 -10 272.5 -10 c 0,12,13
 187 -10 187 -10 149 32 c 1,14,-1
 149 -195 l 1,0,-1
378 173 m 2,15,-1
 378 308 l 2,16,17
 378 440 378 440 264 440 c 128,-1,18
 150 440 150 440 150 309 c 2,19,-1
 150 173 l 2,20,21
 150 57 150 57 266 57 c 0,22,23
 378 57 378 57 378 173 c 2,15,-1
EndSplineSet
EndChar

StartChar: Pi
Encoding: 928 928 176
Width: 581
Flags: HMW
HStem: 0 21G<80 152 80 80 438 510 438 438> 327 80 634 80 694 20G
VStem: 80 72<0 628 0 700> 182 99 249 95 438 72<0 628 628 628>
LayerCount: 2
Fore
SplineSet
510 0 m 1,0,-1
 438 0 l 1,1,-1
 438 628 l 1,2,-1
 152 628 l 1,3,-1
 152 0 l 1,4,-1
 80 0 l 1,5,-1
 80 700 l 1,6,-1
 510 700 l 1,7,-1
 510 0 l 1,0,-1
EndSplineSet
EndChar

StartChar: Omicron
Encoding: 927 927 177
Width: 543
Flags: HMW
HStem: -17 80 643 73<228 316.5> 651 80
VStem: 54 56 62 72<185 191 191 502> 62 95 153 49 410 72<193 502 502 506> 419 55 651 95
LayerCount: 2
Fore
SplineSet
482 506 m 2,0,-1
 482 185 l 2,1,2
 482 84 482 84 420.5 36.5 c 128,-1,3
 359 -11 359 -11 273 -11 c 128,-1,4
 187 -11 187 -11 124.5 36.5 c 128,-1,5
 62 84 62 84 62 185 c 2,6,-1
 62 507 l 2,7,8
 62 610 62 610 118.5 663 c 128,-1,9
 175 716 175 716 274 716 c 128,-1,10
 373 716 373 716 427.5 660 c 128,-1,11
 482 604 482 604 482 506 c 2,0,-1
410 193 m 2,12,-1
 410 502 l 2,13,14
 410 571 410 571 374.5 607 c 128,-1,15
 339 643 339 643 272 643 c 0,16,17
 134 643 134 643 134 502 c 2,18,-1
 134 191 l 2,19,20
 134 127 134 127 172 93.5 c 128,-1,21
 210 60 210 60 272 60 c 128,-1,22
 334 60 334 60 372 93.5 c 128,-1,23
 410 127 410 127 410 193 c 2,12,-1
EndSplineSet
EndChar

StartChar: omicron
Encoding: 959 959 178
Width: 486
Flags: HMW
HStem: -12 75 -10 453<233.5 296.5 233.5 332> 57 455<231 301.5> 454 75
VStem: 78 90 78 301<184 316 316 365 174 379> 150 301<137.5 174 174 184 184 316> 490 90
LayerCount: 2
Fore
SplineSet
451 316 m 2,0,-1
 451 184 l 2,1,2
 451 100 451 100 405 45 c 128,-1,3
 359 -10 359 -10 266 -10 c 128,-1,4
 173 -10 173 -10 125.5 45.5 c 128,-1,5
 78 101 78 101 78 184 c 2,6,-1
 78 316 l 2,7,8
 78 411 78 411 126.5 461.5 c 128,-1,9
 175 512 175 512 264 512 c 0,10,11
 353 512 353 512 402 459.5 c 128,-1,12
 451 407 451 407 451 316 c 2,0,-1
379 174 m 2,13,-1
 379 316 l 2,14,15
 379 443 379 443 266 443 c 0,16,17
 150 443 150 443 150 316 c 2,18,-1
 150 174 l 2,19,20
 150 120 150 120 181.5 88.5 c 128,-1,21
 213 57 213 57 266 57 c 128,-1,22
 319 57 319 57 349 88.5 c 128,-1,23
 379 120 379 120 379 174 c 2,13,-1
EndSplineSet
EndChar

StartChar: xi
Encoding: 958 958 179
Width: 415
Flags: HMW
VStem: 136 47
LayerCount: 2
Fore
SplineSet
268.297520661 64.5454545455 m 0,0,1
 317.467532468 64.5454545455 317.467532468 64.5454545455 380 84 c 1,2,-1
 380 -192 l 1,3,-1
 309 -218 l 1,4,-1
 309 1 l 1,5,6
 286.379310345 -3.41379310345 286.379310345 -3.41379310345 263.75862069 -3.41379310345 c 1,7,-1
 227 -0.5 l 1,8,9
 186 6 186 6 153 22 c 128,-1,10
 120 38 120 38 99 75 c 128,-1,11
 78 112 78 112 78 164 c 2,12,-1
 78 348 l 2,13,14
 78 417 78 417 118 460 c 128,-1,15
 158 503 158 503 209 511 c 1,16,17
 173.888888889 542.919191919 173.888888889 542.919191919 173.888888889 589.973484848 c 128,-1,18
 173.888888889 637.027777778 173.888888889 637.027777778 206.944444444 672.513888889 c 128,-1,19
 240 708 240 708 300 708 c 2,20,-1
 345 708 l 1,21,-1
 324 637 l 1,22,-1
 295 637 l 2,23,24
 268 637 268 637 257.476190476 620.80952381 c 128,-1,25
 246.952380952 604.619047619 246.952380952 604.619047619 246.952380952 592.297619048 c 0,26,27
 246.952380952 549.102040816 246.952380952 549.102040816 286 524 c 0,28,29
 307 511 307 511 358 494 c 1,30,-1
 337 434 l 1,31,32
 287.8261563 445.50877193 287.8261563 445.50877193 247.158692185 445.50877193 c 128,-1,33
 206.49122807 445.50877193 206.49122807 445.50877193 177.745614035 417.754385965 c 128,-1,34
 149 390 149 390 149 337 c 2,35,-1
 149 170 l 2,36,37
 149 64.5454545455 149 64.5454545455 268.297520661 64.5454545455 c 0,0,1
EndSplineSet
EndChar

StartChar: Xi
Encoding: 926 926 180
Width: 622
Flags: HMW
HStem: 0 80 595 106 634 80 817 55
VStem: 109 568 165 56 442 121
LayerCount: 2
Fore
SplineSet
469 343 m 1,0,-1
 205 343 l 1,1,-1
 205 413 l 1,2,-1
 469 413 l 1,3,-1
 469 343 l 1,0,-1
527 631 m 1,4,-1
 229 631 l 2,5,6
 152 631 152 631 131 569 c 1,7,-1
 78 595 l 1,8,9
 94 651 94 651 129 676 c 128,-1,10
 164 701 164 701 223 701 c 2,11,-1
 548 701 l 1,12,-1
 527 631 l 1,4,-1
442 0 m 2,13,-1
 117 0 l 1,14,-1
 141 67 l 1,15,-1
 430 67 l 2,16,17
 507 67 507 67 529 132 c 1,18,-1
 587 106 l 1,19,20
 571 50 571 50 536 25 c 128,-1,21
 501 0 501 0 442 0 c 2,13,-1
EndSplineSet
EndChar

StartChar: Nu
Encoding: 925 925 181
Width: 643
Flags: HMW
HStem: 0 135 0 141<499 572 499 499> 560 140<80 152> 573 141 597 103
VStem: 7 48 80 72<0 560 0 700> 81 90 499 73<0 0 141 700> 560 90
LayerCount: 2
Fore
SplineSet
572 0 m 1,0,-1
 499 0 l 1,1,-1
 152 560 l 1,2,-1
 152 0 l 1,3,-1
 80 0 l 1,4,-1
 80 700 l 1,5,-1
 152 700 l 1,6,-1
 499 141 l 1,7,-1
 499 700 l 1,8,-1
 572 700 l 1,9,-1
 572 0 l 1,0,-1
EndSplineSet
EndChar

StartChar: nu
Encoding: 957 957 182
Width: 509
Flags: HMW
HStem: 0 86 497 20G
VStem: 76 472 78 397<501 501>
LayerCount: 2
Fore
SplineSet
319 0 m 1,0,-1
 233 0 l 1,1,-1
 78 501 l 1,2,-1
 155 501 l 1,3,-1
 276 99 l 1,4,-1
 398 501 l 1,5,-1
 475 501 l 1,6,-1
 319 0 l 1,0,-1
EndSplineSet
EndChar

StartChar: Mu
Encoding: 924 924 183
Width: 687
Flags: HMW
HStem: 0 114 0 131<347 347 347 381 313 347> 485 215<80 152> 535 165 594 120
VStem: 72 56 80 72<0 485 0 700> 544 72<0 485 485 485> 552 56 701 90
LayerCount: 2
Fore
SplineSet
616 0 m 1,0,-1
 544 0 l 1,1,-1
 544 485 l 1,2,-1
 381 0 l 1,3,-1
 313 0 l 1,4,-1
 152 485 l 1,5,-1
 152 0 l 1,6,-1
 80 0 l 1,7,-1
 80 700 l 1,8,-1
 152 700 l 1,9,-1
 347 131 l 1,10,-1
 544 700 l 1,11,-1
 616 700 l 1,12,-1
 616 0 l 1,0,-1
EndSplineSet
EndChar

StartChar: Lambda
Encoding: 923 923 184
Width: 526
Flags: HMW
HStem: 0 95 694 20G
VStem: 2 614 93 347<0 0>
LayerCount: 2
Fore
SplineSet
520 0 m 1,0,-1
 440 0 l 1,1,-1
 265 565 l 1,2,-1
 93 0 l 1,3,-1
 15 0 l 1,4,-1
 231 700 l 1,5,-1
 299 700 l 1,6,-1
 520 0 l 1,0,-1
EndSplineSet
EndChar

StartChar: lambda
Encoding: 955 955 185
Width: 582
Flags: HMW
HStem: -207 75 -198 21G 497 20G
VStem: 79 484
LayerCount: 2
Fore
SplineSet
547 28 m 1,0,-1
 501 -13 l 1,1,2
 455 -2 455 -2 430 27.5 c 128,-1,3
 405 57 405 57 389 109 c 2,4,-1
 295 422 l 1,5,6
 276 411 276 411 265.5 388 c 128,-1,7
 255 365 255 365 244 323 c 2,8,-1
 153 0 l 1,9,-1
 78 0 l 1,10,-1
 186 372 l 1,11,12
 197.25 405.75 197.25 405.75 204.125 418.875 c 128,-1,13
 211 432 211 432 214.5 439 c 128,-1,14
 218 446 218 446 224 453.5 c 128,-1,15
 230 461 230 461 232.5 465 c 128,-1,16
 235 469 235 469 242 475 c 128,-1,17
 249 481 249 481 251 482.5 c 128,-1,18
 253 484 253 484 261 490.5 c 128,-1,19
 269 497 269 497 271 498 c 1,20,-1
 248 569 l 2,21,22
 235 607 235 607 214.5 624.5 c 128,-1,23
 194 642 194 642 159 644 c 1,24,-1
 168 700 l 1,25,26
 170.392156863 700.039215686 170.392156863 700.039215686 172.741253364 700.039215686 c 0,27,28
 230.294117647 700.039215686 230.294117647 700.039215686 262.647058824 676.019607843 c 128,-1,29
 295 652 295 652 315 593 c 1,30,-1
 454 134 l 2,31,32
 469.909090909 83.0909090909 469.909090909 83.0909090909 488 65 c 0,33,34
 496 57 496 57 499 53 c 128,-1,35
 502 49 502 49 511.5 44 c 128,-1,36
 521 39 521 39 523 38 c 0,37,38
 543 28 543 28 547 28 c 1,0,-1
EndSplineSet
EndChar

StartChar: kappa
Encoding: 954 954 186
Width: 493
Flags: HMW
HStem: 0 21G<78 150 78 78> 497 20G 694 20G
VStem: 81 92
LayerCount: 2
Fore
SplineSet
456 62 m 1,0,-1
 448 -1 l 1,1,2
 413 -1 413 -1 383 17.5 c 128,-1,3
 353 36 353 36 337.5 54 c 128,-1,4
 322 72 322 72 294 110 c 2,5,-1
 197 243 l 1,6,-1
 150 197 l 1,7,-1
 150 0 l 1,8,-1
 78 0 l 1,9,-1
 78 512 l 1,10,-1
 150 499 l 1,11,-1
 150 292 l 1,12,-1
 342 501 l 1,13,-1
 435 501 l 1,14,-1
 248 297 l 1,15,-1
 367 130 l 1,16,17
 416 64 416 64 456 62 c 1,0,-1
EndSplineSet
EndChar

StartChar: Kappa
Encoding: 922 922 187
Width: 526
Flags: HMW
HStem: 0 21G<78 153 78 78 403 491 403 403> 694 20G
VStem: 77 95 78 75<0 269 395 701>
LayerCount: 2
Fore
SplineSet
491 0 m 1,0,-1
 403 0 l 1,1,-1
 188 325 l 1,2,-1
 153 269 l 1,3,-1
 153 0 l 1,4,-1
 78 0 l 1,5,-1
 78 701 l 1,6,-1
 153 701 l 1,7,-1
 153 395 l 1,8,-1
 358 701 l 1,9,-1
 443 701 l 1,10,-1
 233 391 l 1,11,-1
 491 0 l 1,0,-1
EndSplineSet
EndChar

StartChar: Iota
Encoding: 921 921 188
Width: 289
Flags: HMW
HStem: 0 21G<145 217 145 145> 694 20G
VStem: 145 72<0 632 632 632> 150 56 162 95
LayerCount: 2
Fore
SplineSet
217 0 m 1,0,-1
 145 0 l 1,1,-1
 145 632 l 1,2,-1
 79 634 l 1,3,-1
 79 700 l 1,4,-1
 217 700 l 1,5,-1
 217 0 l 1,0,-1
EndSplineSet
EndChar

StartChar: iota
Encoding: 953 953 189
Width: 175
Flags: HMW
HStem: 0 21G<66 138 66 66> 497 20G 610 104
VStem: 66 72<0 501> 84 85
LayerCount: 2
Fore
SplineSet
138 0 m 1,0,-1
 66 0 l 1,1,-1
 66 501 l 1,2,-1
 138 501 l 1,3,-1
 138 0 l 1,0,-1
EndSplineSet
EndChar

StartChar: theta
Encoding: 952 952 190
Width: 503
Flags: HMW
HStem: -12 75 620 55 634 75
VStem: 107 341 130 96 424 90
LayerCount: 2
Fore
SplineSet
442 505 m 2,0,-1
 442 191 l 2,1,2
 442 102 442 102 392.5 48 c 128,-1,3
 343 -6 343 -6 251.5 -5.5 c 128,-1,4
 160 -5 160 -5 111 48.5 c 128,-1,5
 62 102 62 102 62 191 c 2,6,-1
 62 341 l 1,7,8
 64 405 64 405 115 438 c 1,9,10
 80.8947368421 504.315789474 80.8947368421 504.315789474 80.8947368421 562.105263158 c 0,11,12
 80.8947368421 627.146453089 80.8947368421 627.146453089 127.947368421 668.573226545 c 128,-1,13
 175 710 175 710 250 710 c 1,14,15
 345 708 345 708 393.5 654 c 128,-1,16
 442 600 442 600 442 505 c 2,0,-1
370 188 m 2,17,-1
 370 436 l 1,18,19
 363.205882353 436.264705882 363.205882353 436.264705882 356.392301038 436.264705882 c 0,20,21
 285.985294118 436.264705882 285.985294118 436.264705882 209.992647059 406.632352941 c 128,-1,22
 134 377 134 377 134 332 c 2,23,-1
 134 185 l 2,24,25
 134 140 134 140 158.5 109 c 0,26,27
 191.203003337 67.6206896552 191.203003337 67.6206896552 250.810344828 67.6206896552 c 1,28,-1
 286.5 71.5 l 1,29,30
 321 79 321 79 345.5 110.5 c 128,-1,31
 370 142 370 142 370 188 c 2,17,-1
180 470 m 1,32,33
 260.5 506.75 260.5 506.75 345.59375 506.75 c 0,34,35
 357.75 506.75 357.75 506.75 370 506 c 1,36,37
 370 577 370 577 336.5 609 c 128,-1,38
 303 641 303 641 252 641 c 0,39,40
 179 641 179 641 160.5 586.5 c 0,41,42
 154.442477876 568.654867257 154.442477876 568.654867257 154.442477876 550.005638656 c 0,43,44
 154.442477876 511.699115044 154.442477876 511.699115044 180 470 c 1,32,33
EndSplineSet
EndChar

StartChar: Theta
Encoding: 920 920 191
Width: 578
Flags: HMW
HStem: -17 80 193 523<271 471> 238 80 651 80
VStem: 115 56 122 379 123 72<185 191 191 303 374 502> 123 95 214 49 471 72<193 303 303 303 374 502 502 506> 480 55 712 95
LayerCount: 2
Fore
SplineSet
543 506 m 2,0,-1
 543 185 l 2,1,2
 543 84 543 84 481.5 36.5 c 128,-1,3
 420 -11 420 -11 334 -11 c 128,-1,4
 248 -11 248 -11 185.5 36.5 c 128,-1,5
 123 84 123 84 123 185 c 2,6,-1
 123 507 l 2,7,8
 123 610 123 610 179.5 663 c 128,-1,9
 236 716 236 716 335 716 c 128,-1,10
 434 716 434 716 488.5 660 c 128,-1,11
 543 604 543 604 543 506 c 2,0,-1
471 374 m 1,12,-1
 471 502 l 2,13,14
 471 571 471 571 435.5 607 c 128,-1,15
 400 643 400 643 333 643 c 0,16,17
 195 643 195 643 195 502 c 2,18,-1
 195 374 l 1,19,-1
 471 374 l 1,12,-1
471 193 m 2,20,-1
 471 303 l 1,21,-1
 195 303 l 1,22,-1
 195 191 l 2,23,24
 195 127 195 127 233 93.5 c 128,-1,25
 271 60 271 60 333 60 c 128,-1,26
 395 60 395 60 433 93.5 c 128,-1,27
 471 127 471 127 471 193 c 2,20,-1
EndSplineSet
EndChar

StartChar: Eta
Encoding: 919 919 192
Width: 581
Flags: HMW
HStem: 0 21G<80 152 80 80 438 510 438 438> 327 80 694 20G
VStem: 72 56 80 72<0 343 0 413 413 700> 177 47 438 72<0 343 343 343 413 700> 446 56 551 95
LayerCount: 2
Fore
SplineSet
510 0 m 1,0,-1
 438 0 l 1,1,-1
 438 343 l 1,2,-1
 152 343 l 1,3,-1
 152 0 l 1,4,-1
 80 0 l 1,5,-1
 80 700 l 1,6,-1
 152 700 l 1,7,-1
 152 413 l 1,8,-1
 438 413 l 1,9,-1
 438 700 l 1,10,-1
 510 700 l 1,11,-1
 510 0 l 1,0,-1
EndSplineSet
EndChar

StartChar: eta
Encoding: 951 951 193
Width: 482
Flags: HMW
HStem: 0 21G<78 150 78 78> 454 75 497 20G
VStem: 156 92 421 85
LayerCount: 2
Fore
SplineSet
147 476 m 1,0,1
 190.956199461 509.264150943 190.956199461 509.264150943 271.211819153 509.264150943 c 0,2,3
 322.981132075 509.264150943 322.981132075 509.264150943 362 491 c 0,4,5
 447 452 447 452 447 346 c 2,6,-1
 447 -210 l 1,7,-1
 376 -186 l 1,8,-1
 376 343 l 2,9,10
 376 400 376 400 340.322580645 422.580645161 c 128,-1,11
 304.64516129 445.161290323 304.64516129 445.161290323 256.267741935 445.161290323 c 128,-1,12
 207.890322581 445.161290323 207.890322581 445.161290323 150 413 c 1,13,-1
 150 0 l 1,14,-1
 78 0 l 1,15,-1
 78 501 l 1,16,-1
 147 501 l 1,17,-1
 147 476 l 1,0,1
EndSplineSet
EndChar

StartChar: zeta
Encoding: 950 950 194
Width: 478
Flags: HMW
VStem: -21 48
LayerCount: 2
Fore
SplineSet
153.405405405 187.553323594 m 0,0,1
 153.405405405 67.4315789474 153.405405405 67.4315789474 284.383268698 67.4315789474 c 0,2,3
 335.821052632 67.4315789474 335.821052632 67.4315789474 407 86 c 1,4,-1
 407 -183 l 1,5,-1
 335 -209 l 1,6,-1
 335 6 l 1,7,8
 298.6 -1.35 298.6 -1.35 266.54875 -1.35 c 0,9,10
 207.025 -1.35 207.025 -1.35 162.5 24 c 0,11,12
 78.0303030303 72.0922362309 78.0303030303 72.0922362309 78.0303030303 177.313131313 c 0,13,14
 78.0303030303 260.634920635 78.0303030303 260.634920635 114 336 c 0,15,16
 185 483 185 483 338 634 c 1,17,-1
 146 634 l 1,18,-1
 146 700 l 1,19,-1
 418 700 l 1,20,-1
 443 636 l 1,21,22
 385 590 385 590 318.5 513 c 128,-1,23
 252 436 252 436 204 349 c 1,24,25
 153.405405405 259.486486486 153.405405405 259.486486486 153.405405405 187.553323594 c 0,0,1
EndSplineSet
EndChar

StartChar: Zeta
Encoding: 918 918 195
Width: 600
Flags: HMW
HStem: 0 80 634 80
VStem: 69 568 78 487<0 65 65 65>
LayerCount: 2
Fore
SplineSet
565 0 m 1,0,-1
 78 0 l 1,1,-1
 78 65 l 1,2,-1
 468 631 l 1,3,-1
 91 631 l 1,4,-1
 91 700 l 1,5,-1
 559 700 l 1,6,-1
 559 632 l 1,7,-1
 169 67 l 1,8,-1
 565 67 l 1,9,-1
 565 0 l 1,0,-1
EndSplineSet
EndChar

StartChar: Epsilon
Encoding: 917 917 196
Width: 447
Flags: HMW
HStem: 0 65<150 410 150 410> 327 80 631 69<150 412 150 150> 634 80
VStem: 78 72<65 343 413 631>
LayerCount: 2
Fore
SplineSet
410 0 m 1,0,-1
 78 0 l 1,1,-1
 78 700 l 1,2,-1
 412 700 l 1,3,-1
 412 631 l 1,4,-1
 150 631 l 1,5,-1
 150 413 l 1,6,-1
 325 413 l 1,7,-1
 302 343 l 1,8,-1
 150 343 l 1,9,-1
 150 65 l 1,10,-1
 410 65 l 1,11,-1
 410 0 l 1,0,-1
EndSplineSet
EndChar

StartChar: epsilon
Encoding: 949 949 197
Width: 458
Flags: HMW
HStem: -12 75 336 68 634 75
VStem: 68 85 82 92 428 90
LayerCount: 2
Fore
SplineSet
262.253472222 445.541666667 m 0,0,1
 170.957446809 445.541666667 170.957446809 445.541666667 170.957446809 376.375282933 c 0,2,3
 170.957446809 347 170.957446809 347 192.978723404 324 c 128,-1,4
 215 301 215 301 253 301 c 2,5,-1
 352 301 l 1,6,-1
 329 231 l 1,7,-1
 246 231 l 2,8,9
 200 231 200 231 175 209.5 c 128,-1,10
 150 188 150 188 150 147.5 c 128,-1,11
 150 107 150 107 179 83 c 128,-1,12
 208 59 208 59 253 59 c 0,13,14
 329.666666667 59 329.666666667 59 384.5 82.5 c 2,15,-1
 402 90 l 1,16,-1
 423 23 l 1,17,18
 345 -11 345 -11 260.5 -11 c 128,-1,19
 176 -11 176 -11 130 30 c 0,20,21
 78.2643678161 76.112193903 78.2643678161 76.112193903 78.2643678161 151.604174924 c 0,22,23
 78.2643678161 245.310344828 78.2643678161 245.310344828 150 278 c 1,24,25
 127 291 127 291 112.217391304 322.739130435 c 128,-1,26
 97.4347826087 354.47826087 97.4347826087 354.47826087 97.4347826087 374.02173913 c 0,27,28
 97.4347826087 449.913043478 97.4347826087 449.913043478 151 484 c 0,29,30
 193.482758621 511.034482759 193.482758621 511.034482759 244.355529132 511.034482759 c 0,31,32
 297.157635468 511.034482759 297.157635468 511.034482759 353 496 c 1,33,-1
 354 431 l 1,34,35
 308.759259259 445.541666667 308.759259259 445.541666667 262.253472222 445.541666667 c 0,0,1
EndSplineSet
EndChar

StartChar: delta
Encoding: 948 948 198
Width: 486
Flags: HMW
HStem: -12 75 817 55
VStem: 127 341 136 96 459 90
LayerCount: 2
Fore
SplineSet
200 499 m 1,0,1
 162.342857143 535.208791209 162.342857143 535.208791209 162.342857143 591.225714286 c 0,2,3
 162.342857143 648.784415584 162.342857143 648.784415584 210 682 c 0,4,5
 243 705 243 705 293 705 c 2,6,-1
 341 705 l 1,7,-1
 320 635 l 1,8,-1
 284 635 l 2,9,10
 261 635 261 635 249.441860465 620.139534884 c 128,-1,11
 237.88372093 605.279069767 237.88372093 605.279069767 237.88372093 593.348837209 c 0,12,13
 237.88372093 551.852963241 237.88372093 551.852963241 281.441860465 522.42648162 c 128,-1,14
 325 493 325 493 347.5 475.5 c 128,-1,15
 370 458 370 458 398.5 428 c 0,16,17
 451 372.736842105 451 372.736842105 451 288 c 2,18,-1
 451 184 l 2,19,20
 451 -10 451 -10 266 -10 c 0,21,22
 171 -10 171 -10 124.5 41.5 c 128,-1,23
 78 93 78 93 78 184 c 2,24,-1
 78 310 l 2,25,26
 78 388 78 388 110.5 436.5 c 128,-1,27
 143 485 143 485 200 499 c 1,0,1
379 175 m 2,28,-1
 379 287 l 2,29,30
 379 340.666666667 379 340.666666667 337 392 c 0,31,32
 310 425 310 425 266 447 c 1,33,34
 150 437 150 437 150 303 c 2,35,-1
 150 175 l 2,36,37
 150 117 150 117 182.5 87 c 128,-1,38
 215 57 215 57 266 57 c 128,-1,39
 317 57 317 57 348 85 c 128,-1,40
 379 113 379 113 379 175 c 2,28,-1
EndSplineSet
EndChar

StartChar: _196
Encoding: 65540 -1 199
Width: 618
Flags: HMW
HStem: 0 21G<78 583 78 78> 0 65<174 485 174 583> 245 55 622 91
VStem: 97 586 137 386
LayerCount: 2
Fore
SplineSet
583 0 m 1,0,-1
 78 0 l 1,1,-1
 292 700 l 1,2,-1
 362 700 l 1,3,-1
 583 0 l 1,0,-1
485 65 m 1,4,-1
 328 574 l 1,5,-1
 174 65 l 1,6,-1
 485 65 l 1,4,-1
EndSplineSet
EndChar

StartChar: Gamma
Encoding: 915 915 200
Width: 447
Flags: HMW
HStem: 0 21G<78 150 78 78> 327 80 634 80
VStem: 79 99
LayerCount: 2
Fore
SplineSet
150 0 m 1,0,-1
 78 0 l 1,1,-1
 78 700 l 1,2,-1
 412 700 l 1,3,-1
 412 630 l 1,4,-1
 150 630 l 1,5,-1
 150 0 l 1,0,-1
EndSplineSet
EndChar

StartChar: gamma
Encoding: 947 947 201
Width: 479
Flags: HMW
HStem: 0 86 497 20G
VStem: 14 472 207 85
LayerCount: 2
Fore
SplineSet
208 -198 m 1,0,1
 177.864864865 -170.485311398 177.864864865 -170.485311398 177.864864865 -120.34769905 c 0,2,3
 177.864864865 -95.2972972973 177.864864865 -95.2972972973 187 -70 c 1,4,-1
 210 3 l 1,5,6
 208 4 208 4 200 10.5 c 128,-1,7
 192 17 192 17 190 18.5 c 128,-1,8
 188 20 188 20 181 26 c 128,-1,9
 174 32 174 32 171.5 36 c 128,-1,10
 169 40 169 40 163 47.5 c 128,-1,11
 157 55 157 55 153.5 62 c 128,-1,12
 150 69 150 69 144.5 79.5 c 0,13,14
 136.25 95.25 136.25 95.25 125 129 c 1,15,-1
 17 501 l 1,16,-1
 92 501 l 1,17,-1
 183 178 l 1,18,19
 203.454545455 96.1818181818 203.454545455 96.1818181818 233 78 c 1,20,-1
 328 392 l 2,21,22
 344 445 344 445 368.5 474 c 128,-1,23
 393 503 393 503 439 514 c 1,24,-1
 486 472 l 1,25,26
 484 471 484 471 474.5 467.5 c 128,-1,27
 465 464 465 464 462 462.5 c 128,-1,28
 459 461 459 461 450.5 456.5 c 128,-1,29
 442 452 442 452 438 447.5 c 128,-1,30
 434 443 434 443 427 435.5 c 128,-1,31
 420 428 420 428 415 419 c 0,32,33
 401.857142857 395.342857143 401.857142857 395.342857143 393 367 c 2,34,-1
 270 -44 l 1,35,36
 250.481481481 -100.500974659 250.481481481 -100.500974659 250.481481481 -127.028265107 c 128,-1,37
 250.481481481 -153.555555556 250.481481481 -153.555555556 263 -168 c 1,38,-1
 208 -198 l 1,0,1
EndSplineSet
EndChar

StartChar: beta
Encoding: 946 946 202
Width: 483
Flags: HMW
HStem: -12 75 0 63 359 68 656 75
VStem: 94 92 416 90 448 90
LayerCount: 2
Fore
SplineSet
356.092105263 573.296398892 m 0,0,1
 356.092105263 522.819331984 356.092105263 522.819331984 323 491 c 1,2,3
 377 479 377 479 412.5 437.5 c 128,-1,4
 448 396 448 396 448 330 c 2,5,-1
 448 146 l 2,6,7
 448 -18.1709401709 448 -18.1709401709 238.927606107 -18.1709401709 c 0,8,9
 198.393162393 -18.1709401709 198.393162393 -18.1709401709 150 -12 c 1,10,-1
 150 -161 l 1,11,-1
 78 -161 l 1,12,-1
 78 537 l 2,13,14
 78 613 78 613 115 657 c 128,-1,15
 152 701 152 701 223 701 c 0,16,17
 267 701 267 701 300 677.5 c 0,18,19
 356.092105263 637.55562201 356.092105263 637.55562201 356.092105263 573.296398892 c 0,0,1
150 58 m 1,20,21
 215.945454545 49.4909090909 215.945454545 49.4909090909 264.763636364 49.4909090909 c 128,-1,22
 313.581818182 49.4909090909 313.581818182 49.4909090909 345.290909091 76.2454545455 c 128,-1,23
 377 103 377 103 377 159 c 2,24,-1
 377 318 l 2,25,26
 377 366 377 366 353.5 394 c 0,27,28
 324.055059524 429.083333333 324.055059524 429.083333333 265.803571429 429.083333333 c 128,-1,29
 207.552083333 429.083333333 207.552083333 429.083333333 150 402 c 1,30,-1
 150 58 l 1,20,21
150 536 m 2,31,-1
 150 470 l 1,32,33
 194 492 194 492 243 507 c 0,34,35
 283.75 518.830645161 283.75 518.830645161 283.75 564.44 c 0,36,37
 283.75 584.95 283.75 584.95 268.875 607.475 c 128,-1,38
 254 630 254 630 222 630 c 0,39,40
 150 630 150 630 150 536 c 2,31,-1
EndSplineSet
EndChar

StartChar: Beta
Encoding: 914 914 203
Width: 546
Flags: HMW
HStem: 0 80 67 0<150 150 289 289> 327 80 413 0<150 150 279 279> 413 234 634 80
VStem: 78 56 78 72<67 67 67 343 413 630> 78 95 150 325<67 587.5 413 587.5 508.5 587.5 508.5 630> 150 361<67 259 160.5 259 160.5 343 160.5 413 160.5 630> 417 58 515 95
LayerCount: 2
Fore
SplineSet
305 0 m 2,0,-1
 78 0 l 1,1,-1
 78 700 l 1,2,-1
 294 700 l 2,3,4
 376 700 376 700 425.5 657 c 128,-1,5
 475 614 475 614 475 525 c 128,-1,6
 475 436 475 436 409 391 c 0,7,8
 408 390 408 390 408 389 c 2,9,-1
 408 388 l 1,10,11
 452 368 452 368 481.5 323.5 c 128,-1,12
 511 279 511 279 511 208 c 0,13,14
 511 145.172413793 511 145.172413793 484.5 94 c 0,15,16
 435.821428571 -3.5527136788e-14 435.821428571 -3.5527136788e-14 305 0 c 2,0,-1
150 413 m 1,17,-1
 279 413 l 2,18,19
 396 413 396 413 396 523 c 0,20,21
 396 630 396 630 277 630 c 2,22,-1
 150 630 l 1,23,-1
 150 413 l 1,17,-1
150 67 m 1,24,-1
 289 67 l 2,25,26
 356 67 356 67 393.5 98 c 128,-1,27
 431 129 431 129 431 203 c 128,-1,28
 431 277 431 277 393.5 310 c 128,-1,29
 356 343 356 343 303 343 c 2,30,-1
 150 343 l 1,31,-1
 150 67 l 1,24,-1
EndSplineSet
EndChar

StartChar: Alpha
Encoding: 913 913 204
Width: 523
Flags: HMW
HStem: 0 21G<15 93 15 15 436 517 436 436> 215 80 245 55 628 86
VStem: -7 663 93 343<0 0>
LayerCount: 2
Fore
SplineSet
517 0 m 1,0,-1
 436 0 l 1,1,-1
 367 226 l 1,2,-1
 159 226 l 1,3,-1
 93 0 l 1,4,-1
 15 0 l 1,5,-1
 221 700 l 1,6,-1
 304 700 l 1,7,-1
 517 0 l 1,0,-1
349 300 m 1,8,-1
 262 584 l 1,9,-1
 178 300 l 1,10,-1
 349 300 l 1,8,-1
EndSplineSet
EndChar

StartChar: alpha
Encoding: 945 945 205
Width: 508
Flags: HMW
HStem: -198 21G -12 75 454 63 454 75
VStem: 153 96 481 85
LayerCount: 2
Fore
SplineSet
223.158163265 506.785714286 m 0,0,1
 298.315789474 506.785714286 298.315789474 506.785714286 373 473 c 1,2,-1
 389 509 l 1,3,-1
 450 486 l 1,4,5
 443 421 443 421 443 389 c 2,6,-1
 443 77 l 1,7,8
 449 49 449 49 473 35 c 1,9,-1
 421 1 l 1,10,11
 417 1 417 1 405.5 3.5 c 128,-1,12
 394 6 394 6 367.5 1.5 c 0,13,14
 289.48384781 -11.7480258435 289.48384781 -11.7480258435 233.241923905 -4.87401292175 c 128,-1,15
 177 2 177 2 148 19 c 128,-1,16
 119 36 119 36 98.5 74 c 128,-1,17
 78 112 78 112 78 169 c 2,18,-1
 78 354 l 2,19,20
 78 423 78 423 109.5 461.5 c 128,-1,21
 141 500 141 500 189 505 c 0,22,23
 206.142857143 506.785714286 206.142857143 506.785714286 223.158163265 506.785714286 c 0,0,1
370 71 m 1,24,-1
 370 406 l 1,25,26
 285.583690987 439.995708155 285.583690987 439.995708155 233.412238207 439.995708155 c 0,27,28
 149 439.995708155 149 439.995708155 149 351 c 2,29,-1
 149 177 l 2,30,31
 149 98 149 98 201.5 73.5 c 0,32,33
 229.161290323 60.5913978495 229.161290323 60.5913978495 272.139784946 60.5913978495 c 128,-1,34
 315.11827957 60.5913978495 315.11827957 60.5913978495 370 71 c 1,24,-1
EndSplineSet
EndChar

StartChar: upsilondieresistonos
Encoding: 944 944 206
Width: 493
Flags: HMW
HStem: -12 75 0 21G 497 20G
VStem: 67 82 158 92 408 85 419 85
LayerCount: 2
Fore
SplineSet
178 541 m 128,-1,1
 163 541 163 541 152.5 552 c 128,-1,2
 142 563 142 563 142 578 c 128,-1,3
 142 593 142 593 152.5 603.5 c 128,-1,4
 163 614 163 614 178 614 c 128,-1,5
 193 614 193 614 203.5 603.5 c 128,-1,6
 214 593 214 593 214 578 c 128,-1,7
 214 563 214 563 203.5 552 c 128,-1,0
 193 541 193 541 178 541 c 128,-1,1
353 541 m 128,-1,9
 338 541 338 541 327 552 c 128,-1,10
 316 563 316 563 316 578 c 128,-1,11
 316 593 316 593 327 603.5 c 128,-1,12
 338 614 338 614 353 614 c 128,-1,13
 368 614 368 614 379 603.5 c 128,-1,14
 390 593 390 593 390 578 c 128,-1,15
 390 563 390 563 379 552 c 128,-1,8
 368 541 368 541 353 541 c 128,-1,9
290 577 m 1,16,-1
 237 577 l 1,17,-1
 287 692 l 2,18,19
 297.818181818 718.272727273 297.818181818 718.272727273 325.665289256 718.272727273 c 0,20,21
 352.810160428 718.272727273 352.810160428 718.272727273 359.5 693 c 0,22,23
 360.806451613 688.064516129 360.806451613 688.064516129 360.806451613 679.85483871 c 128,-1,24
 360.806451613 671.64516129 360.806451613 671.64516129 353 661 c 2,25,-1
 290 577 l 1,16,-1
386 184 m 2,26,-1
 386 501 l 1,27,-1
 458 501 l 1,28,-1
 458 172 l 2,29,30
 458 -10 458 -10 268 -10 c 128,-1,31
 78 -10 78 -10 78 172 c 2,32,-1
 78 501 l 1,33,-1
 150 501 l 1,34,-1
 150 183 l 2,35,36
 150 117 150 117 179 87.5 c 128,-1,37
 208 58 208 58 267.5 58 c 128,-1,38
 327 58 327 58 356.5 88 c 128,-1,39
 386 118 386 118 386 184 c 2,26,-1
EndSplineSet
EndChar

StartChar: iotadieresistonos
Encoding: 912 912 207
Width: 361
Flags: HMW
HStem: 0 21G<165 237 165 165> 497 20G 577 143 610 104
VStem: 161 85
LayerCount: 2
Fore
SplineSet
237 0 m 1,0,-1
 165 0 l 1,1,-1
 165 501 l 1,2,-1
 237 501 l 1,3,-1
 237 0 l 1,0,-1
226 577 m 1,4,-1
 174 577 l 1,5,-1
 223 692 l 1,6,7
 235.363636364 718.272727273 235.363636364 718.272727273 262.066115702 718.272727273 c 0,8,9
 289.810160428 718.272727273 289.810160428 718.272727273 296.5 693 c 0,10,11
 297.727272727 688.363636364 297.727272727 688.363636364 297.727272727 680.136363636 c 128,-1,12
 297.727272727 671.909090909 297.727272727 671.909090909 289 661 c 2,13,-1
 226 577 l 1,4,-1
315.5 552 m 128,-1,15
 305 541 305 541 289.5 541 c 128,-1,16
 274 541 274 541 263.5 552 c 128,-1,17
 253 563 253 563 253 578 c 128,-1,18
 253 593 253 593 263.5 603.5 c 128,-1,19
 274 614 274 614 289.5 614 c 128,-1,20
 305 614 305 614 315.5 603.5 c 128,-1,21
 326 593 326 593 326 578 c 128,-1,14
 326 563 326 563 315.5 552 c 128,-1,15
114 541 m 128,-1,23
 99 541 99 541 88.5 552 c 128,-1,24
 78 563 78 563 78 578 c 128,-1,25
 78 593 78 593 88.5 603.5 c 128,-1,26
 99 614 99 614 114 614 c 128,-1,27
 129 614 129 614 140 603.5 c 128,-1,28
 151 593 151 593 151 578 c 128,-1,29
 151 563 151 563 140 552 c 128,-1,22
 129 541 129 541 114 541 c 128,-1,23
EndSplineSet
EndChar

StartChar: Alphatonos
Encoding: 902 902 208
Width: 619
Flags: HMW
HStem: 0 21G<82 160 82 82 503 584 503 503> 245 55 568 143 569 143
VStem: 138 386 160 343<0 0>
LayerCount: 2
Fore
SplineSet
584 0 m 1,0,-1
 503 0 l 1,1,-1
 434 226 l 1,2,-1
 226 226 l 1,3,-1
 160 0 l 1,4,-1
 82 0 l 1,5,-1
 288 700 l 1,6,-1
 371 700 l 1,7,-1
 584 0 l 1,0,-1
416 300 m 1,8,-1
 329 584 l 1,9,-1
 245 300 l 1,10,-1
 416 300 l 1,8,-1
135 568 m 1,11,-1
 82 568 l 1,12,-1
 131 683 l 1,13,14
 143.363636364 709.272727273 143.363636364 709.272727273 170.066115702 709.272727273 c 0,15,16
 176.636363636 709.272727273 176.636363636 709.272727273 183 707 c 0,17,18
 205.806451613 697.609108159 205.806451613 697.609108159 205.806451613 673.29760666 c 0,19,20
 205.806451613 661.64516129 205.806451613 661.64516129 198 651 c 2,21,-1
 135 568 l 1,11,-1
EndSplineSet
EndChar

StartChar: sterling
Encoding: 163 163 209
Width: 473
Flags: HMW
HStem: 0 80 435 80 694 20G
VStem: 78 360<0 65 65 65> 101 320<303 374 303 374>
LayerCount: 2
Fore
SplineSet
438 0 m 1,0,-1
 78 0 l 1,1,-1
 78 65 l 1,2,3
 131 83 131 83 161.5 126 c 128,-1,4
 192 169 192 169 192 225 c 0,5,6
 192 254 192 254 178 303 c 1,7,-1
 101 303 l 1,8,-1
 101 374 l 1,9,-1
 155 374 l 1,10,11
 125 466 125 466 125 515 c 0,12,13
 125 602 125 602 179.5 655.5 c 128,-1,14
 234 709 234 709 310.5 709 c 0,15,16
 387 709 387 709 427 684 c 1,17,-1
 404 620 l 1,18,19
 364 642 364 642 313 642 c 0,20,21
 262 642 262 642 229 604.5 c 128,-1,22
 196 567 196 567 196 513 c 0,23,24
 196 478 196 478 230 374 c 1,25,-1
 421 374 l 1,26,-1
 421 303 l 1,27,-1
 253 303 l 1,28,29
 265.071428571 256.571428571 265.071428571 256.571428571 265.071428571 225.663265306 c 0,30,31
 265.071428571 129.137362637 265.071428571 129.137362637 194 69 c 1,32,-1
 438 69 l 1,33,-1
 438 0 l 1,0,-1
EndSplineSet
EndChar

StartChar: w_w_w
Encoding: 65541 -1 210
Width: 1900
Flags: HMW
HStem: 0 21G<172 258 172 172 443 529 443 443 766 852 766 766 1037 1123 1037 1037 1366 1452 1366 1366 1637 1723 1637 1637> 481 20G<16 93 93 93 317 388 388 388 608 688 688 688 912 983 983 983 1203 1287 1287 1287 1511 1582 1582 1582 1803 1880 1880 1880>
LayerCount: 2
Fore
SplineSet
1085 92 m 1,0,1
 1162.70149254 366 1162.70149254 366 1203 501 c 1,2,-1
 1287 501 l 1,3,4
 1307 434 1307 434 1347.5 296.5 c 128,-1,5
 1388 159 1388 159 1408 92 c 1,6,7
 1428 169 1428 169 1464.5 315 c 2,8,-1
 1511 501 l 1,9,-1
 1582 501 l 1,10,-1
 1682 95 l 1,11,-1
 1803 501 l 1,12,-1
 1880 501 l 1,13,14
 1827 334 1827 334 1723 0 c 1,15,-1
 1637 0 l 1,16,17
 1620 67 1620 67 1588.5 191 c 128,-1,18
 1557 315 1557 315 1545 364 c 1,19,20
 1514 242 1514 242 1452 0 c 1,21,-1
 1366 0 l 1,22,23
 1325 130 1325 130 1245 390 c 1,24,25
 1203 260 1203 260 1123 0 c 1,26,-1
 1037 0 l 1,27,28
 1020 67 1020 67 988.5 191 c 128,-1,29
 957 315 957 315 945 364 c 1,30,31
 914 242 914 242 852 0 c 1,32,-1
 766 0 l 1,33,34
 746 64 746 64 707 191 c 128,-1,35
 668 318 668 318 648 381 c 1,36,37
 568 127 568 127 529 0 c 1,38,-1
 443 0 l 1,39,40
 426 67 426 67 394.5 191 c 128,-1,41
 363 315 363 315 351 364 c 1,42,43
 320 242 320 242 258 0 c 1,44,-1
 172 0 l 1,45,-1
 16 501 l 1,46,-1
 93 501 l 1,47,48
 113 434 113 434 153.5 296.5 c 128,-1,49
 194 159 194 159 214 92 c 1,50,51
 234 169 234 169 270.5 315 c 2,52,-1
 317 501 l 1,53,-1
 388 501 l 1,54,55
 406 434 406 434 440 296.5 c 128,-1,56
 474 159 474 159 491 92 c 1,57,58
 497 112.5 497 112.5 608 501 c 1,59,-1
 688 501 l 1,60,61
 708 434 708 434 748 296.5 c 128,-1,62
 788 159 788 159 808 92 c 1,63,64
 812.029850746 107 812.029850746 107 912 501 c 1,65,-1
 983 501 l 1,66,67
 1000 434 1000 434 1034 296.5 c 128,-1,68
 1068 159 1068 159 1085 92 c 1,0,1
EndSplineSet
EndChar

StartChar: f_t
Encoding: 65542 -1 211
Width: 525
Flags: HMW
HStem: -13 21G<425 425> 0 21G<78 151 78 78> 433 68<151 233 151 257 378 466>
VStem: 78 73<0 433 501 548 548 549> 305 73<132 433 501 614 614 614>
LayerCount: 2
Fore
SplineSet
446 43 m 1,0,-1
 425 -13 l 1,1,2
 361 -1 361 -1 333 35 c 128,-1,3
 305 71 305 71 305 132 c 2,4,-1
 305 614 l 1,5,6
 269.375 635.875 269.375 635.875 243.53125 635.875 c 128,-1,7
 217.6875 635.875 217.6875 635.875 199.5 628 c 0,8,9
 151 607 151 607 151 549 c 2,10,-1
 151 501 l 1,11,-1
 257 501 l 1,12,-1
 233 433 l 1,13,-1
 151 433 l 1,14,-1
 151 0 l 1,15,-1
 78 0 l 1,16,-1
 78 548 l 2,17,18
 78 617 78 617 120 660 c 0,19,20
 164.579043637 705.640449438 164.579043637 705.640449438 232.120982493 705.640449438 c 128,-1,21
 299.662921348 705.640449438 299.662921348 705.640449438 378 666 c 1,22,-1
 378 501 l 1,23,-1
 490 501 l 1,24,-1
 466 433 l 1,25,-1
 378 433 l 1,26,-1
 378 132 l 2,27,28
 378 61 378 61 446 43 c 1,0,-1
EndSplineSet
EndChar

StartChar: t_t
Encoding: 65543 -1 212
Width: 487
Flags: HMW
HStem: 0 75 442 75
VStem: 49 85 364 85
LayerCount: 2
Fore
SplineSet
420 43 m 1,0,-1
 398 -13 l 1,1,2
 334 -1 334 -1 306.5 35 c 128,-1,3
 279 71 279 71 279 132 c 2,4,-1
 279 434 l 1,5,6
 278 434 278 434 278 433 c 1,7,-1
 117 433 l 1,8,-1
 117 132 l 2,9,10
 117 62 117 62 185 43 c 1,11,12
 173.333333333 8 173.333333333 8 164 -13 c 1,13,14
 100 -1 100 -1 72 35 c 128,-1,15
 44 71 44 71 44 132 c 2,16,-1
 44 700 l 1,17,-1
 117 700 l 1,18,-1
 117 501 l 1,19,-1
 279 501 l 1,20,-1
 279 700 l 1,21,-1
 351 700 l 1,22,-1
 351 501 l 1,23,-1
 464 501 l 1,24,25
 448 457 448 457 440 433 c 1,26,-1
 351 433 l 1,27,-1
 351 132 l 2,28,29
 351 61 351 61 420 43 c 1,0,-1
EndSplineSet
EndChar

StartChar: f_f
Encoding: 64256 64256 213
Width: 554
Flags: HMW
HStem: 0 21G<78 151 78 78 312 384 312 312> 448 53 658 49
VStem: 100 56 335 56
LayerCount: 2
Fore
SplineSet
362 671 m 1,0,1
 399.351648352 700.428571429 399.351648352 700.428571429 444.604395604 700.428571429 c 128,-1,2
 489.857142857 700.428571429 489.857142857 700.428571429 519 685 c 1,3,-1
 496 621 l 1,4,5
 475.770114943 632.126436782 475.770114943 632.126436782 456.781609195 632.126436782 c 128,-1,6
 437.793103448 632.126436782 437.793103448 632.126436782 420 621.5 c 0,7,8
 384 600 384 600 384 544 c 2,9,-1
 384 501 l 1,10,-1
 490 501 l 1,11,-1
 466 433 l 1,12,-1
 384 433 l 1,13,-1
 384 0 l 1,14,-1
 312 0 l 1,15,-1
 312 548 l 2,16,17
 312 580 312 580 321 609 c 1,18,19
 283.625 631.041666667 283.625 631.041666667 247.627604167 631.041666667 c 0,20,21
 208.19047619 631.041666667 208.19047619 631.041666667 179.595238095 606.020833333 c 128,-1,22
 151 581 151 581 151 544 c 2,23,-1
 151 501 l 1,24,-1
 257 501 l 1,25,-1
 233 433 l 1,26,-1
 151 433 l 1,27,-1
 151 0 l 1,28,-1
 78 0 l 1,29,-1
 78 543 l 2,30,31
 78 646 78 646 162 686.5 c 0,32,33
 197.25388601 703.497409326 197.25388601 703.497409326 245.968911917 703.497409326 c 128,-1,34
 294.683937824 703.497409326 294.683937824 703.497409326 362 671 c 1,0,1
EndSplineSet
EndChar

StartChar: f_f_l
Encoding: 64260 64260 214
Width: 643
Flags: HMW
HStem: 0 21G<78 151 78 78 312 384 312 312 536 608 536 536>
VStem: 563 56
LayerCount: 2
Fore
SplineSet
362 671 m 1,0,1
 404.095238095 705.666666667 404.095238095 705.666666667 475.351540616 705.666666667 c 128,-1,2
 546.607843137 705.666666667 546.607843137 705.666666667 608 672 c 1,3,-1
 608 0 l 1,4,-1
 536 0 l 1,5,-1
 536 618 l 1,6,7
 504.211538462 634.173076923 504.211538462 634.173076923 478.360576923 634.173076923 c 128,-1,8
 452.509615385 634.173076923 452.509615385 634.173076923 431.5 624 c 0,9,10
 384 601 384 601 384 550 c 2,11,-1
 384 501 l 1,12,-1
 490 501 l 1,13,14
 474 457 474 457 466 433 c 1,15,-1
 384 433 l 1,16,-1
 384 0 l 1,17,-1
 312 0 l 1,18,-1
 312 548 l 2,19,20
 312 580 312 580 321 609 c 1,21,22
 283.625 631.041666667 283.625 631.041666667 247.627604167 631.041666667 c 0,23,24
 208.19047619 631.041666667 208.19047619 631.041666667 179.595238095 606.020833333 c 128,-1,25
 151 581 151 581 151 544 c 2,26,-1
 151 501 l 1,27,-1
 257 501 l 1,28,29
 241 457 241 457 233 433 c 1,30,-1
 151 433 l 1,31,-1
 151 0 l 1,32,-1
 78 0 l 1,33,-1
 78 494 l 2,34,35
 78 538 78 538 79 560 c 0,36,37
 82 622 82 622 123 661.5 c 0,38,39
 167.35345667 704.230769231 167.35345667 704.230769231 230.06134372 704.230769231 c 128,-1,40
 292.769230769 704.230769231 292.769230769 704.230769231 362 671 c 1,0,1
EndSplineSet
EndChar

StartChar: Hcircumflex
Encoding: 292 292 215
Width: 588
Flags: HMW
HStem: 730 142 825 47
VStem: 78 72<0 343 0 413 413 700> 168 251 175 47 436 72<0 343 343 343 413 700>
LayerCount: 2
Fore
SplineSet
508 0 m 1,0,-1
 436 0 l 1,1,-1
 436 343 l 1,2,-1
 150 343 l 1,3,-1
 150 0 l 1,4,-1
 78 0 l 1,5,-1
 78 700 l 1,6,-1
 150 700 l 1,7,-1
 150 413 l 1,8,-1
 436 413 l 1,9,-1
 436 700 l 1,10,-1
 508 700 l 1,11,-1
 508 0 l 1,0,-1
460 771 m 1,12,-1
 413 732 l 1,13,-1
 317 830 l 1,14,-1
 216 732 l 1,15,-1
 170 771 l 1,16,-1
 318 912 l 1,17,-1
 460 771 l 1,12,-1
EndSplineSet
EndChar

StartChar: Cdotaccent
Encoding: 266 266 216
Width: 434
Flags: HMW
HStem: -12 52 659 51 679 104
VStem: 66 72<183 185 185 504 504 513> 217 82
LayerCount: 2
Fore
SplineSet
138 185 m 2,0,1
 138 59.6074074074 138 59.6074074074 274.696899863 59.6074074074 c 0,2,3
 334.007407407 59.6074074074 334.007407407 59.6074074074 413 87 c 1,4,-1
 427 23 l 1,5,6
 341.745951417 -10.0576923077 341.745951417 -10.0576923077 265.350591716 -10.0576923077 c 0,7,8
 248.615384615 -10.0576923077 248.615384615 -10.0576923077 216.307692308 -7.02884615385 c 128,-1,9
 184 -4 184 -4 147.5 15.5 c 128,-1,10
 111 35 111 35 88.5 77.5 c 128,-1,11
 66 120 66 120 66 183 c 2,12,-1
 66 504 l 2,13,14
 66 580 66 580 87.5 619 c 128,-1,15
 109 658 109 658 153 685 c 1,16,17
 198.161290323 710.290322581 198.161290323 710.290322581 259.638917794 710.290322581 c 0,18,19
 336.529032258 710.290322581 336.529032258 710.290322581 402 677 c 1,20,-1
 381 620 l 1,21,22
 327 640 327 640 285 640 c 128,-1,23
 243 640 243 640 214.5 631.5 c 128,-1,24
 186 623 186 623 162 592.5 c 128,-1,25
 138 562 138 562 138 513 c 2,26,-1
 138 185 l 2,0,1
266 730 m 128,-1,28
 250 730 250 730 237 743 c 128,-1,29
 224 756 224 756 224 772 c 128,-1,30
 224 788 224 788 236.5 800 c 128,-1,31
 249 812 249 812 265.5 812 c 128,-1,32
 282 812 282 812 294 800 c 128,-1,33
 306 788 306 788 306 771.5 c 128,-1,34
 306 755 306 755 294 742.5 c 128,-1,27
 282 730 282 730 266 730 c 128,-1,28
EndSplineSet
EndChar

StartChar: Ccircumflex
Encoding: 264 264 217
Width: 434
Flags: HMW
HStem: -12 52 659 51 730 142 825 47
VStem: 120 251 402 11
LayerCount: 2
Fore
SplineSet
412 771 m 1,0,-1
 365 732 l 1,1,-1
 269 830 l 1,2,-1
 168 732 l 1,3,-1
 122 771 l 1,4,-1
 270 912 l 1,5,-1
 412 771 l 1,0,-1
138 185 m 2,6,7
 138 59.6074074074 138 59.6074074074 274.696899863 59.6074074074 c 0,8,9
 334.007407407 59.6074074074 334.007407407 59.6074074074 413 87 c 1,10,-1
 427 23 l 1,11,12
 341.745951417 -10.0576923077 341.745951417 -10.0576923077 265.350591716 -10.0576923077 c 0,13,14
 248.615384615 -10.0576923077 248.615384615 -10.0576923077 216.307692308 -7.02884615385 c 128,-1,15
 184 -4 184 -4 147.5 15.5 c 128,-1,16
 111 35 111 35 88.5 77.5 c 128,-1,17
 66 120 66 120 66 183 c 2,18,-1
 66 504 l 2,19,20
 66 580 66 580 87.5 619 c 128,-1,21
 109 658 109 658 153 685 c 1,22,23
 198.161290323 710.290322581 198.161290323 710.290322581 259.638917794 710.290322581 c 0,24,25
 336.529032258 710.290322581 336.529032258 710.290322581 402 677 c 1,26,-1
 381 620 l 1,27,28
 327 640 327 640 285 640 c 128,-1,29
 243 640 243 640 214.5 631.5 c 128,-1,30
 186 623 186 623 162 592.5 c 128,-1,31
 138 562 138 562 138 513 c 2,32,-1
 138 185 l 2,6,7
EndSplineSet
EndChar

StartChar: cdotaccent
Encoding: 267 267 218
Width: 435
Flags: HMW
HStem: -12 51 460 69 487 104
VStem: 78 72<180 308 308 314> 216 82
LayerCount: 2
Fore
SplineSet
289.86 57.6 m 0,0,1
 333.4 57.6 333.4 57.6 383 70 c 1,2,-1
 400 6 l 1,3,4
 336 -11.0666666667 336 -11.0666666667 284 -11.0666666667 c 128,-1,5
 232 -11.0666666667 232 -11.0666666667 181.5 5.46666666667 c 0,6,7
 78 39.3518151815 78 39.3518151815 78 180 c 2,8,-1
 78 308 l 2,9,10
 78 379 78 379 106 427 c 0,11,12
 154.239130435 509.695652174 154.239130435 509.695652174 263.506616257 509.695652174 c 0,13,14
 329.913043478 509.695652174 329.913043478 509.695652174 398 478 c 1,15,-1
 378 421 l 1,16,17
 318.355555556 442.511111111 318.355555556 442.511111111 268.271604938 442.511111111 c 0,18,19
 215.495854063 442.511111111 215.495854063 442.511111111 182.747927032 408.755555556 c 128,-1,20
 150 375 150 375 150 314 c 2,21,-1
 150 169 l 2,22,23
 150 57.6 150 57.6 289.86 57.6 c 0,0,1
293 550.5 m 128,-1,25
 281 538 281 538 264.5 538 c 128,-1,26
 248 538 248 538 235.5 551 c 128,-1,27
 223 564 223 564 223 580 c 128,-1,28
 223 596 223 596 235.5 608 c 128,-1,29
 248 620 248 620 265 620 c 128,-1,30
 282 620 282 620 293.5 608 c 128,-1,31
 305 596 305 596 305 579.5 c 128,-1,24
 305 563 305 563 293 550.5 c 128,-1,25
EndSplineSet
EndChar

StartChar: ccircumflex
Encoding: 265 265 219
Width: 436
Flags: HMW
HStem: -12 51 460 69 538 142
VStem: 78 72<180 308 308 314> 110 251
LayerCount: 2
Fore
SplineSet
289.86 57.6 m 0,0,1
 333.4 57.6 333.4 57.6 383 70 c 1,2,-1
 400 6 l 1,3,4
 336 -11.0666666667 336 -11.0666666667 284 -11.0666666667 c 128,-1,5
 232 -11.0666666667 232 -11.0666666667 181.5 5.46666666667 c 0,6,7
 78 39.3518151815 78 39.3518151815 78 180 c 2,8,-1
 78 308 l 2,9,10
 78 379 78 379 106 427 c 0,11,12
 154.239130435 509.695652174 154.239130435 509.695652174 263.506616257 509.695652174 c 0,13,14
 329.913043478 509.695652174 329.913043478 509.695652174 398 478 c 1,15,-1
 378 421 l 1,16,17
 318.355555556 442.511111111 318.355555556 442.511111111 268.271604938 442.511111111 c 0,18,19
 215.495854063 442.511111111 215.495854063 442.511111111 182.747927032 408.755555556 c 128,-1,20
 150 375 150 375 150 314 c 2,21,-1
 150 169 l 2,22,23
 150 57.6 150 57.6 289.86 57.6 c 0,0,1
402 579 m 1,24,-1
 355 540 l 1,25,-1
 259 638 l 1,26,-1
 158 540 l 1,27,-1
 112 579 l 1,28,-1
 260 720 l 1,29,-1
 402 579 l 1,24,-1
EndSplineSet
EndChar

StartChar: Idotaccent
Encoding: 304 304 220
Width: 302
Flags: HMW
HStem: 679 104
VStem: 133 82 143 72<0 632 632 632>
LayerCount: 2
Fore
SplineSet
215 0 m 1,0,-1
 143 0 l 1,1,-1
 143 632 l 1,2,-1
 77 634 l 1,3,-1
 77 700 l 1,4,-1
 215 700 l 1,5,-1
 215 0 l 1,0,-1
182 730 m 128,-1,7
 166 730 166 730 153 743 c 128,-1,8
 140 756 140 756 140 772 c 128,-1,9
 140 788 140 788 152.5 800 c 128,-1,10
 165 812 165 812 181.5 812 c 0,11,12
 198 812 198 812 210 800 c 128,-1,13
 222 788 222 788 222 771.5 c 0,14,15
 222 755 222 755 210 742.5 c 128,-1,6
 198 730 198 730 182 730 c 128,-1,7
EndSplineSet
EndChar

StartChar: Hbar
Encoding: 294 294 221
Width: 685
Flags: HMW
HStem: 375 80
VStem: 78 527<480 550 480 550> 127 72<0 343 0 413 413 480 550 700> 224 47 485 72<0 343 343 343 413 480 550 700>
LayerCount: 2
Fore
SplineSet
557 0 m 1,0,-1
 485 0 l 1,1,-1
 485 343 l 1,2,-1
 199 343 l 1,3,-1
 199 0 l 1,4,-1
 127 0 l 1,5,-1
 127 480 l 1,6,-1
 78 480 l 1,7,-1
 78 550 l 1,8,-1
 127 550 l 1,9,-1
 127 700 l 1,10,-1
 199 700 l 1,11,-1
 199 550 l 1,12,-1
 485 550 l 1,13,-1
 485 700 l 1,14,-1
 557 700 l 1,15,-1
 557 550 l 1,16,-1
 605 550 l 1,17,-1
 605 480 l 1,18,-1
 557 480 l 1,19,-1
 557 0 l 1,0,-1
485 413 m 1,20,-1
 485 480 l 1,21,-1
 199 480 l 1,22,-1
 199 413 l 1,23,-1
 485 413 l 1,20,-1
EndSplineSet
EndChar

StartChar: Gbreve
Encoding: 286 286 222
Width: 537
Flags: HMW
HStem: -10 41 0 21G<416 476 416 416> 659 51 841 0<163 163 219 219 333 333 389 389> 857 20G
VStem: 65 72<189 503 503 512> 219 170<824 841 841 846> 404 72<31 31>
LayerCount: 2
Fore
SplineSet
476 0 m 1,0,-1
 416 0 l 1,1,-1
 404 31 l 1,2,3
 356 -10 356 -10 272 -10 c 128,-1,4
 188 -10 188 -10 126.5 40 c 128,-1,5
 65 90 65 90 65 189 c 2,6,-1
 65 503 l 2,7,8
 65 631 65 631 152 684 c 1,9,10
 197.161290323 709.290322581 197.161290323 709.290322581 258.638917794 709.290322581 c 0,11,12
 335.529032258 709.290322581 335.529032258 709.290322581 401 676 c 1,13,-1
 380 620 l 1,14,15
 326 640 326 640 277 640 c 0,16,17
 137 640 137 640 137 512 c 2,18,-1
 137 187 l 2,19,20
 137 126 137 126 175 93.5 c 128,-1,21
 213 61 213 61 273 61 c 128,-1,22
 333 61 333 61 369.5 94 c 128,-1,23
 406 127 406 127 406 186 c 2,24,-1
 406 230 l 1,25,-1
 343 230 l 1,26,-1
 319 300 l 1,27,-1
 476 300 l 1,28,-1
 476 0 l 1,0,-1
389 846 m 1,29,-1
 389 841 l 2,30,31
 389 794 389 794 355.5 761 c 128,-1,32
 322 728 322 728 276 728 c 128,-1,33
 230 728 230 728 196.5 761 c 128,-1,34
 163 794 163 794 163 841 c 2,35,-1
 163 846 l 1,36,-1
 219 846 l 1,37,-1
 219 841 l 2,38,39
 219 816 219 816 235.5 799.5 c 128,-1,40
 252 783 252 783 276 783 c 128,-1,41
 300 783 300 783 316.5 799.5 c 128,-1,42
 333 816 333 816 333 841 c 2,43,-1
 333 846 l 1,44,-1
 389 846 l 1,29,-1
EndSplineSet
EndChar

StartChar: Jcircumflex
Encoding: 308 308 223
Width: 269
Flags: HMW
HStem: -17 80 841 0<2 2 58 58 172 172 228 228> 857 20G
VStem: 58 170<824 841 841 846> 87 72<127 632 632 632> 287 47
LayerCount: 2
Fore
SplineSet
18 -37 m 1,0,-1
 -2 17 l 1,1,2
 33 17 33 17 60 41.5 c 128,-1,3
 87 66 87 66 87 127 c 2,4,-1
 87 632 l 1,5,-1
 22 634 l 1,6,-1
 22 700 l 1,7,-1
 159 700 l 1,8,-1
 159 124 l 2,9,10
 159 -36 159 -36 18 -37 c 1,0,-1
228 846 m 1,11,-1
 228 841 l 2,12,13
 228 794 228 794 195 761 c 128,-1,14
 162 728 162 728 115 728 c 128,-1,15
 68 728 68 728 35 761 c 128,-1,16
 2 794 2 794 2 841 c 2,17,-1
 2 846 l 1,18,-1
 58 846 l 1,19,-1
 58 841 l 2,20,21
 58 816 58 816 74.5 799.5 c 128,-1,22
 91 783 91 783 115 783 c 128,-1,23
 139 783 139 783 155.5 799.5 c 128,-1,24
 172 816 172 816 172 841 c 2,25,-1
 172 846 l 1,26,-1
 228 846 l 1,11,-1
EndSplineSet
EndChar

StartChar: Zdotaccent
Encoding: 379 379 224
Width: 550
Flags: HMW
HStem: 0 80 634 80 675 104
VStem: 31 487<0 65 65 65> 239 82
LayerCount: 2
Fore
SplineSet
518 0 m 1,0,-1
 31 0 l 1,1,-1
 31 65 l 1,2,-1
 421 631 l 1,3,-1
 44 631 l 1,4,-1
 44 700 l 1,5,-1
 512 700 l 1,6,-1
 512 632 l 1,7,-1
 122 67 l 1,8,-1
 518 67 l 1,9,-1
 518 0 l 1,0,-1
288 726 m 128,-1,11
 272 726 272 726 259 739 c 128,-1,12
 246 752 246 752 246 768 c 128,-1,13
 246 784 246 784 258.5 796 c 128,-1,14
 271 808 271 808 287.5 808 c 0,15,16
 304 808 304 808 316 796 c 128,-1,17
 328 784 328 784 328 767.5 c 0,18,19
 328 751 328 751 316 738.5 c 128,-1,10
 304 726 304 726 288 726 c 128,-1,11
EndSplineSet
EndChar

StartChar: hbar
Encoding: 295 295 225
Width: 543
Flags: HMW
HStem: 0 21G<140 212 140 140 437 509 437 437> 460 49 694 20G
VStem: 78 234<554 624 554 624> 140 56 140 72<0 414 0 481 481 554 624 700> 437 72<0 332 332 346> 454 55
LayerCount: 2
Fore
SplineSet
212 481 m 1,0,1
 256.115384615 509.615384615 256.115384615 509.615384615 319.326923077 509.615384615 c 128,-1,2
 382.538461538 509.615384615 382.538461538 509.615384615 424 491 c 0,3,4
 509 452 509 452 509 346 c 2,5,-1
 509 0 l 1,6,-1
 437 0 l 1,7,-1
 437 332 l 2,8,9
 437 382 437 382 412 410 c 0,10,11
 382.880681818 442.613636364 382.880681818 442.613636364 322.477272727 442.613636364 c 128,-1,12
 262.073863636 442.613636364 262.073863636 442.613636364 212 414 c 1,13,-1
 212 0 l 1,14,-1
 140 0 l 1,15,-1
 140 554 l 1,16,-1
 78 554 l 1,17,-1
 78 624 l 1,18,-1
 140 624 l 1,19,-1
 140 700 l 1,20,-1
 212 700 l 1,21,-1
 212 624 l 1,22,-1
 312 624 l 1,23,-1
 312 554 l 1,24,-1
 212 554 l 1,25,-1
 212 481 l 1,0,1
EndSplineSet
EndChar

StartChar: hcircumflex
Encoding: 293 293 226
Width: 602
Flags: HMW
HStem: 346 21G<542 542> 460 49 694 20G 730 142
VStem: 62 251 245 0<0 0 414 414 481 481 700 700> 470 72<0 332 332 346>
LayerCount: 2
Fore
SplineSet
354 771 m 1,0,-1
 307 732 l 1,1,-1
 211 830 l 1,2,-1
 110 732 l 1,3,-1
 64 771 l 1,4,-1
 212 912 l 1,5,-1
 354 771 l 1,0,-1
245 481 m 1,6,7
 289.115384615 509.615384615 289.115384615 509.615384615 352.326923077 509.615384615 c 128,-1,8
 415.538461538 509.615384615 415.538461538 509.615384615 457 491 c 0,9,10
 542 452 542 452 542 346 c 2,11,-1
 542 0 l 1,12,-1
 470 0 l 1,13,-1
 470 332 l 2,14,15
 470 382 470 382 445 410 c 0,16,17
 415.880681818 442.613636364 415.880681818 442.613636364 355.477272727 442.613636364 c 128,-1,18
 295.073863636 442.613636364 295.073863636 442.613636364 245 414 c 1,19,-1
 245 0 l 1,20,-1
 173 0 l 1,21,-1
 173 700 l 1,22,-1
 245 700 l 1,23,-1
 245 481 l 1,6,7
EndSplineSet
EndChar

StartChar: scedilla
Encoding: 351 351 227
Width: 431
Flags: HMW
HStem: -217 54<201.5 225.5 201.5 229.5> -98 50 454 75
VStem: 36 70<127 130> 48 74 249 82 308 23 325 74<102 192>
LayerCount: 2
Fore
SplineSet
107 -197 m 1,0,-1
 134 -138 l 1,1,2
 171 -163 171 -163 203.5 -163 c 0,3,4
 274 -163 274 -163 274 -122 c 0,5,6
 274 -100 274 -100 253.5 -91 c 0,7,8
 245.47826087 -87.4782608696 245.47826087 -87.4782608696 232.195652174 -87.4782608696 c 128,-1,9
 218.913043478 -87.4782608696 218.913043478 -87.4782608696 197 -96 c 1,10,-1
 160 -113 l 1,11,-1
 138 -78 l 1,12,-1
 188 -13 l 1,13,14
 117 -5 117 -5 77.5 34 c 128,-1,15
 38 73 38 73 36 127 c 1,16,-1
 106 130 l 1,17,18
 110 93 110 93 143 72.5 c 128,-1,19
 176 52 176 52 219 52 c 128,-1,20
 262 52 262 52 293.5 71.5 c 128,-1,21
 325 91 325 91 325 127.5 c 128,-1,22
 325 164 325 164 298 185.5 c 128,-1,23
 271 207 271 207 232 219.5 c 128,-1,24
 193 232 193 232 153.5 246 c 128,-1,25
 114 260 114 260 83.5 289.5 c 0,26,27
 47.2653061224 324.546671127 47.2653061224 324.546671127 47.2653061224 375.120274339 c 128,-1,28
 47.2653061224 425.693877551 47.2653061224 425.693877551 87.6326530612 469.346938776 c 128,-1,29
 128 513 128 513 219 513 c 0,30,31
 251 513 251 513 279 505.5 c 128,-1,32
 307 498 307 498 319 491 c 2,33,-1
 331 484 l 1,34,-1
 308 421 l 1,35,36
 276 446 276 446 224 446 c 128,-1,37
 172 446 172 446 146.741935484 426.35483871 c 128,-1,38
 121.483870968 406.709677419 121.483870968 406.709677419 121.483870968 377.040582726 c 0,39,40
 121.483870968 344.109677419 121.483870968 344.109677419 153.241935484 325.05483871 c 128,-1,41
 185 306 185 306 225 293 c 128,-1,42
 265 280 265 280 304.5 264 c 128,-1,43
 344 248 344 248 371.5 214 c 128,-1,44
 399 180 399 180 399 125.5 c 128,-1,45
 399 71 399 71 358.5 30.5 c 128,-1,46
 318 -10 318 -10 238 -14 c 1,47,-1
 213 -49 l 1,48,49
 227 -42 227 -42 255 -42 c 128,-1,50
 283 -42 283 -42 307 -63 c 128,-1,51
 331 -84 331 -84 331 -128 c 128,-1,52
 331 -172 331 -172 292 -194.5 c 128,-1,53
 253 -217 253 -217 207.5 -217 c 128,-1,54
 162 -217 162 -217 107 -197 c 1,0,-1
EndSplineSet
EndChar

StartChar: gbreve
Encoding: 287 287 228
Width: 490
Flags: HMW
HStem: -64 120 -12 188<78 293.5> 442 15 532 55<266.5 298 266.5 313> 661 20G
VStem: 78 305<190 325 325 330 330 368.5> 169 226<645 650 614 650> 383 72<-58 45 45 45 190 330 330 368.5>
LayerCount: 2
Fore
SplineSet
395 650 m 1,0,-1
 395 645 l 2,1,2
 395 598 395 598 361.5 565 c 128,-1,3
 328 532 328 532 282 532 c 128,-1,4
 236 532 236 532 202.5 565 c 128,-1,5
 169 598 169 598 169 645 c 2,6,-1
 169 650 l 1,7,-1
 225 650 l 1,8,-1
 225 645 l 2,9,10
 225 620 225 620 241.5 603.5 c 128,-1,11
 258 587 258 587 282 587 c 128,-1,12
 306 587 306 587 322.5 603.5 c 128,-1,13
 339 620 339 620 339 645 c 2,14,-1
 339 650 l 1,15,-1
 395 650 l 1,0,-1
333 -210 m 1,16,-1
 315 -154 l 1,17,18
 383 -135 383 -135 383 -58 c 2,19,-1
 383 45 l 1,20,21
 349 -12 349 -12 262.5 -12 c 0,22,23
 176 -12 176 -12 127 36 c 128,-1,24
 78 84 78 84 78 176 c 2,25,-1
 78 325 l 2,26,27
 78 413 78 413 129.5 461.5 c 128,-1,28
 181 510 181 510 266.5 510 c 0,29,30
 352 510 352 510 386 457 c 1,31,-1
 389 501 l 1,32,-1
 455 501 l 1,33,-1
 455 -64 l 2,34,35
 455 -127 455 -127 426.5 -162 c 128,-1,36
 398 -197 398 -197 333 -210 c 1,16,-1
383 190 m 2,37,-1
 383 330 l 2,38,39
 383 385 383 385 349.5 413.5 c 128,-1,40
 316 442 316 442 265.5 442 c 0,41,42
 215 442 215 442 182.5 411.5 c 128,-1,43
 150 381 150 381 150 320 c 2,44,-1
 150 174 l 2,45,46
 150 117 150 117 180 86.5 c 128,-1,47
 210 56 210 56 264 56 c 128,-1,48
 318 56 318 56 350.5 90.5 c 128,-1,49
 383 125 383 125 383 190 c 2,37,-1
EndSplineSet
EndChar

StartChar: jcircumflex
Encoding: 309 309 229
Width: 403
Flags: HMW
HStem: -209 43 -209 56<119 168.5> 457 52 538 142 633 47 654 67
VStem: 48 48 76 251 132 60 194 56
LayerCount: 2
Fore
SplineSet
368 579 m 1,0,-1
 321 540 l 1,1,-1
 225 638 l 1,2,-1
 124 540 l 1,3,-1
 78 579 l 1,4,-1
 226 720 l 1,5,-1
 368 579 l 1,0,-1
192 -50 m 2,6,-1
 192 432 l 1,7,-1
 146 437 l 1,8,-1
 123 501 l 1,9,-1
 265 501 l 1,10,-1
 265 -75 l 1,11,12
 263 -132 263 -132 225 -170.5 c 128,-1,13
 187 -209 187 -209 132 -209 c 1,14,-1
 119 -153 l 1,15,16
 128.153846154 -153 128.153846154 -153 142.576923077 -145.5 c 128,-1,17
 157 -138 157 -138 166.5 -128 c 0,18,19
 192 -101.157894737 192 -101.157894737 192 -50 c 2,6,-1
EndSplineSet
EndChar

StartChar: zdotaccent
Encoding: 380 380 230
Width: 480
Flags: HMW
HStem: 0 75 442 75 484 104
VStem: 87 358 212 82
LayerCount: 2
Fore
SplineSet
445 0 m 1,0,-1
 78 0 l 1,1,-1
 78 66 l 1,2,-1
 333 434 l 1,3,-1
 87 434 l 1,4,-1
 87 501 l 1,5,-1
 427 501 l 1,6,-1
 427 436 l 1,7,-1
 170 67 l 1,8,-1
 445 67 l 1,9,-1
 445 0 l 1,0,-1
289 547.5 m 128,-1,11
 277 535 277 535 260.5 535 c 128,-1,12
 244 535 244 535 231.5 547.5 c 128,-1,13
 219 560 219 560 219 576.5 c 128,-1,14
 219 593 219 593 231.5 605 c 128,-1,15
 244 617 244 617 261 617 c 128,-1,16
 278 617 278 617 289.5 605.5 c 128,-1,17
 301 594 301 594 301 577 c 128,-1,10
 301 560 301 560 289 547.5 c 128,-1,11
EndSplineSet
EndChar

StartChar: Gdotaccent
Encoding: 288 288 231
Width: 566
Flags: HMW
HStem: -17 80 678 104 694 20G
VStem: 74 72 244 82 423 72
LayerCount: 2
Fore
SplineSet
321 741.5 m 128,-1,1
 309 729 309 729 292.5 729 c 128,-1,2
 276 729 276 729 263.5 741.5 c 128,-1,3
 251 754 251 754 251 770.5 c 128,-1,4
 251 787 251 787 263.5 799 c 128,-1,5
 276 811 276 811 293 811 c 128,-1,6
 310 811 310 811 321.5 799.5 c 128,-1,7
 333 788 333 788 333 771 c 128,-1,0
 333 754 333 754 321 741.5 c 128,-1,1
496 0 m 1,8,-1
 436 0 l 1,9,-1
 424 31 l 1,10,11
 376 -10 376 -10 292 -10 c 128,-1,12
 208 -10 208 -10 146.5 40 c 128,-1,13
 85 90 85 90 85 189 c 2,14,-1
 85 503 l 2,15,16
 85 631 85 631 172 684 c 1,17,18
 217.161290323 709.290322581 217.161290323 709.290322581 278.638917794 709.290322581 c 0,19,20
 355.529032258 709.290322581 355.529032258 709.290322581 421 676 c 1,21,-1
 400 620 l 1,22,23
 346 640 346 640 297 640 c 0,24,25
 157 640 157 640 157 512 c 2,26,-1
 157 187 l 2,27,28
 157 126 157 126 195 93.5 c 128,-1,29
 233 61 233 61 293 61 c 128,-1,30
 353 61 353 61 389.5 94 c 128,-1,31
 426 127 426 127 426 186 c 2,32,-1
 426 230 l 1,33,-1
 363 230 l 1,34,-1
 339 300 l 1,35,-1
 496 300 l 1,36,-1
 496 0 l 1,8,-1
EndSplineSet
EndChar

StartChar: Gcircumflex
Encoding: 284 284 232
Width: 537
Flags: HMW
HStem: -10 41 0 21G<416 476 416 416> 659 51 730 142
VStem: 65 72<189 503 503 512> 134 251 404 72<31 31>
LayerCount: 2
Fore
SplineSet
476 0 m 1,0,-1
 416 0 l 1,1,-1
 404 31 l 1,2,3
 356 -10 356 -10 272 -10 c 128,-1,4
 188 -10 188 -10 126.5 40 c 128,-1,5
 65 90 65 90 65 189 c 2,6,-1
 65 503 l 2,7,8
 65 631 65 631 152 684 c 1,9,10
 197.161290323 709.290322581 197.161290323 709.290322581 258.638917794 709.290322581 c 0,11,12
 335.529032258 709.290322581 335.529032258 709.290322581 401 676 c 1,13,-1
 380 620 l 1,14,15
 326 640 326 640 277 640 c 0,16,17
 137 640 137 640 137 512 c 2,18,-1
 137 187 l 2,19,20
 137 126 137 126 175 93.5 c 128,-1,21
 213 61 213 61 273 61 c 128,-1,22
 333 61 333 61 369.5 94 c 128,-1,23
 406 127 406 127 406 186 c 2,24,-1
 406 230 l 1,25,-1
 343 230 l 1,26,-1
 319 300 l 1,27,-1
 476 300 l 1,28,-1
 476 0 l 1,0,-1
426 771 m 1,29,-1
 379 732 l 1,30,-1
 283 830 l 1,31,-1
 182 732 l 1,32,-1
 136 771 l 1,33,-1
 284 912 l 1,34,-1
 426 771 l 1,29,-1
EndSplineSet
EndChar

StartChar: gdotaccent
Encoding: 289 289 233
Width: 490
Flags: HMW
HStem: -64 120 -12 188<78 293.5> 442 15 486 104
VStem: 78 305<190 325 325 330 330 368.5> 231 82 383 72<-58 45 45 45 190 330 330 368.5>
LayerCount: 2
Fore
SplineSet
280 537 m 128,-1,1
 264 537 264 537 251 549.5 c 128,-1,2
 238 562 238 562 238 578.5 c 0,3,4
 238 595 238 595 250.5 607 c 128,-1,5
 263 619 263 619 279.5 619 c 0,6,7
 296 619 296 619 308 607.5 c 128,-1,8
 320 596 320 596 320 579 c 128,-1,9
 320 562 320 562 308 549.5 c 128,-1,0
 296 537 296 537 280 537 c 128,-1,1
333 -210 m 1,10,-1
 315 -154 l 1,11,12
 383 -135 383 -135 383 -58 c 2,13,-1
 383 45 l 1,14,15
 349 -12 349 -12 262.5 -12 c 0,16,17
 176 -12 176 -12 127 36 c 128,-1,18
 78 84 78 84 78 176 c 2,19,-1
 78 325 l 2,20,21
 78 413 78 413 129.5 461.5 c 128,-1,22
 181 510 181 510 266.5 510 c 0,23,24
 352 510 352 510 386 457 c 1,25,-1
 389 501 l 1,26,-1
 455 501 l 1,27,-1
 455 -64 l 2,28,29
 455 -127 455 -127 426.5 -162 c 128,-1,30
 398 -197 398 -197 333 -210 c 1,10,-1
383 190 m 2,31,-1
 383 330 l 2,32,33
 383 385 383 385 349.5 413.5 c 128,-1,34
 316 442 316 442 265.5 442 c 0,35,36
 215 442 215 442 182.5 411.5 c 128,-1,37
 150 381 150 381 150 320 c 2,38,-1
 150 174 l 2,39,40
 150 117 150 117 180 86.5 c 128,-1,41
 210 56 210 56 264 56 c 128,-1,42
 318 56 318 56 350.5 90.5 c 128,-1,43
 383 125 383 125 383 190 c 2,31,-1
EndSplineSet
EndChar

StartChar: gcircumflex
Encoding: 285 285 234
Width: 490
Flags: HMW
HStem: -64 120 -12 188<78 293.5> 442 15 538 142
VStem: 78 305<190 325 325 330 330 368.5> 155 251 383 72<-58 45 45 45 190 330 330 368.5>
LayerCount: 2
Fore
SplineSet
447 579 m 1,0,-1
 400 540 l 1,1,-1
 304 638 l 1,2,-1
 203 540 l 1,3,-1
 157 579 l 1,4,-1
 305 720 l 1,5,-1
 447 579 l 1,0,-1
333 -210 m 1,6,-1
 315 -154 l 1,7,8
 383 -135 383 -135 383 -58 c 2,9,-1
 383 45 l 1,10,11
 349 -12 349 -12 262.5 -12 c 0,12,13
 176 -12 176 -12 127 36 c 128,-1,14
 78 84 78 84 78 176 c 2,15,-1
 78 325 l 2,16,17
 78 413 78 413 129.5 461.5 c 128,-1,18
 181 510 181 510 266.5 510 c 0,19,20
 352 510 352 510 386 457 c 1,21,-1
 389 501 l 1,22,-1
 455 501 l 1,23,-1
 455 -64 l 2,24,25
 455 -127 455 -127 426.5 -162 c 128,-1,26
 398 -197 398 -197 333 -210 c 1,6,-1
383 190 m 2,27,-1
 383 330 l 2,28,29
 383 385 383 385 349.5 413.5 c 128,-1,30
 316 442 316 442 265.5 442 c 0,31,32
 215 442 215 442 182.5 411.5 c 128,-1,33
 150 381 150 381 150 320 c 2,34,-1
 150 174 l 2,35,36
 150 117 150 117 180 86.5 c 128,-1,37
 210 56 210 56 264 56 c 128,-1,38
 318 56 318 56 350.5 90.5 c 128,-1,39
 383 125 383 125 383 190 c 2,27,-1
EndSplineSet
EndChar

StartChar: Ubreve
Encoding: 364 364 235
Width: 566
Flags: HMW
HStem: -17 80 694 20G 837 0<171 171 227 227 341 341 397 397> 853 20G
VStem: 74 72<186 194 194 701> 227 170<820 837 837 842> 423 72<194 701>
LayerCount: 2
Fore
SplineSet
423 194 m 2,0,-1
 423 701 l 1,1,-1
 495 701 l 1,2,-1
 495 186 l 2,3,4
 495 133 495 133 476.5 94 c 128,-1,5
 458 55 458 55 426.5 34 c 128,-1,6
 395 13 395 13 360 3 c 128,-1,7
 325 -7 325 -7 285 -7 c 128,-1,8
 245 -7 245 -7 209.5 3 c 128,-1,9
 174 13 174 13 142.5 34 c 128,-1,10
 111 55 111 55 92.5 94 c 128,-1,11
 74 133 74 133 74 186 c 2,12,-1
 74 701 l 1,13,-1
 146 701 l 1,14,-1
 146 194 l 2,15,16
 146 132 146 132 183.5 96 c 128,-1,17
 221 60 221 60 284.5 60 c 0,18,19
 348 60 348 60 385.5 96 c 128,-1,20
 423 132 423 132 423 194 c 2,0,-1
397 842 m 1,21,-1
 397 837 l 2,22,23
 397 790 397 790 363.5 757 c 128,-1,24
 330 724 330 724 284 724 c 128,-1,25
 238 724 238 724 204.5 757 c 128,-1,26
 171 790 171 790 171 837 c 2,27,-1
 171 842 l 1,28,-1
 227 842 l 1,29,-1
 227 837 l 2,30,31
 227 812 227 812 243.5 795.5 c 128,-1,32
 260 779 260 779 284 779 c 128,-1,33
 308 779 308 779 324.5 795.5 c 128,-1,34
 341 812 341 812 341 837 c 2,35,-1
 341 842 l 1,36,-1
 397 842 l 1,21,-1
EndSplineSet
EndChar

StartChar: Scircumflex
Encoding: 348 348 236
Width: 561
Flags: HMW
HStem: -17 80 651 80 825 47
VStem: 37 75<178 183> 55 76 123 251 404 22 434 78<143 284>
LayerCount: 2
Fore
SplineSet
37 178 m 1,0,-1
 112 183 l 1,1,2
 117 133 117 133 160.5 96 c 128,-1,3
 204 59 204 59 273.5 59 c 128,-1,4
 343 59 343 59 388.5 91.5 c 128,-1,5
 434 124 434 124 434 186 c 0,6,7
 434 232 434 232 406 264.5 c 128,-1,8
 378 297 378 297 336 314 c 128,-1,9
 294 331 294 331 244.5 351 c 128,-1,10
 195 371 195 371 153 390 c 128,-1,11
 111 409 111 409 83 447 c 128,-1,12
 55 485 55 485 55 538 c 0,13,14
 55 608 55 608 113 659 c 128,-1,15
 171 710 171 710 280 710 c 0,16,17
 363 710 363 710 426 680 c 1,18,19
 426 678 426 678 404 612 c 1,20,21
 342 639 342 639 276.5 639 c 128,-1,22
 211 639 211 639 170.987951807 610.843373494 c 128,-1,23
 130.975903614 582.686746988 130.975903614 582.686746988 130.975903614 535.349542749 c 0,24,25
 130.975903614 476.981218994 130.975903614 476.981218994 208 443 c 0,26,27
 242 428 242 428 282.5 413.5 c 128,-1,28
 323 399 323 399 363 381 c 128,-1,29
 403 363 403 363 436.5 340 c 128,-1,30
 470 317 470 317 491 279.5 c 128,-1,31
 512 242 512 242 512 193 c 0,32,33
 512 101 512 101 453.5 45 c 128,-1,34
 395 -11 395 -11 279.5 -11 c 128,-1,35
 164 -11 164 -11 101.5 46.5 c 128,-1,36
 39 104 39 104 37 178 c 1,0,-1
415 771 m 1,37,-1
 368 732 l 1,38,-1
 272 830 l 1,39,-1
 171 732 l 1,40,-1
 125 771 l 1,41,-1
 273 912 l 1,42,-1
 415 771 l 1,37,-1
EndSplineSet
EndChar

StartChar: ubreve
Encoding: 365 365 237
Width: 486
Flags: HMW
HStem: -12 75 57 21G<230 302.5> 497 20G 535 55<254.5 286 254.5 301> 664 20G
VStem: 78 72<172 501> 157 226<648 653 617 653> 382 69<0 37 37 37>
LayerCount: 2
Fore
SplineSet
383 653 m 1,0,-1
 383 648 l 2,1,2
 383 602 383 602 349.5 568.5 c 128,-1,3
 316 535 316 535 270 535 c 128,-1,4
 224 535 224 535 190.5 568.5 c 128,-1,5
 157 602 157 602 157 648 c 2,6,-1
 157 653 l 1,7,-1
 213 653 l 1,8,-1
 213 648 l 2,9,10
 213 623 213 623 229.5 606.5 c 128,-1,11
 246 590 246 590 270 590 c 128,-1,12
 294 590 294 590 310.5 606.5 c 128,-1,13
 327 623 327 623 327 648 c 2,14,-1
 327 653 l 1,15,-1
 383 653 l 1,0,-1
451 0 m 1,16,-1
 382 0 l 1,17,-1
 382 37 l 1,18,19
 339 -11 339 -11 266 -11 c 0,20,21
 78 -11 78 -11 78 172 c 2,22,-1
 78 501 l 1,23,-1
 150 501 l 1,24,-1
 150 172 l 2,25,26
 150 57 150 57 266 57 c 0,27,28
 379 57 379 57 379 173 c 2,29,-1
 379 501 l 1,30,-1
 451 501 l 1,31,-1
 451 0 l 1,16,-1
EndSplineSet
EndChar

StartChar: scircumflex
Encoding: 349 349 238
Width: 476
Flags: HMW
HStem: 454 75 538 142
VStem: 78 70<127 130> 90 74 117 251 350 23 367 74<102 192>
LayerCount: 2
Fore
SplineSet
409 579 m 1,0,-1
 362 540 l 1,1,-1
 266 638 l 1,2,-1
 165 540 l 1,3,-1
 119 579 l 1,4,-1
 267 720 l 1,5,-1
 409 579 l 1,0,-1
78 127 m 1,6,-1
 148 130 l 1,7,8
 152 93 152 93 185 72.5 c 128,-1,9
 218 52 218 52 261 52 c 128,-1,10
 304 52 304 52 335.5 71.5 c 128,-1,11
 367 91 367 91 367 127.5 c 128,-1,12
 367 164 367 164 340 185.5 c 128,-1,13
 313 207 313 207 274 219.5 c 128,-1,14
 235 232 235 232 195.5 246 c 128,-1,15
 156 260 156 260 125.5 289.5 c 0,16,17
 89.2653061224 324.546671127 89.2653061224 324.546671127 89.2653061224 375.120274339 c 128,-1,18
 89.2653061224 425.693877551 89.2653061224 425.693877551 129.632653061 469.346938776 c 128,-1,19
 170 513 170 513 261 513 c 0,20,21
 293 513 293 513 321 505.5 c 128,-1,22
 349 498 349 498 361 491 c 2,23,-1
 373 484 l 1,24,-1
 350 421 l 1,25,26
 318 446 318 446 266 446 c 128,-1,27
 214 446 214 446 188.741935484 426.35483871 c 128,-1,28
 163.483870968 406.709677419 163.483870968 406.709677419 163.483870968 377.040582726 c 0,29,30
 163.483870968 344.109677419 163.483870968 344.109677419 195.241935484 325.05483871 c 128,-1,31
 227 306 227 306 267 293 c 128,-1,32
 307 280 307 280 346.5 264 c 128,-1,33
 386 248 386 248 413.5 214 c 128,-1,34
 441 180 441 180 441 124 c 128,-1,35
 441 68 441 68 396 26.5 c 128,-1,36
 351 -15 351 -15 264.5 -15 c 128,-1,37
 178 -15 178 -15 129 26 c 128,-1,38
 80 67 80 67 78 127 c 1,6,-1
EndSplineSet
EndChar

StartChar: Rcommaaccent
Encoding: 342 342 239
Width: 564
Flags: HMW
HStem: -111 111 300 400<150 319 319 321 321 379>
VStem: 78 72<0 230 300 630> 150 362<0 541 444.5 541 444.5 630 300 541> 241 33
LayerCount: 2
Fore
SplineSet
513 0 m 1,0,-1
 439 0 l 1,1,-1
 360 232 l 1,2,3
 342 230 342 230 328 230 c 2,4,-1
 150 230 l 1,5,-1
 150 0 l 1,6,-1
 78 0 l 1,7,-1
 78 700 l 1,8,-1
 321 700 l 2,9,10
 417 700 417 700 464.5 639 c 128,-1,11
 512 578 512 578 512 479 c 0,12,13
 512 356.243243243 512 356.243243243 474.5 300.5 c 0,14,15
 456 273 456 273 427 255 c 1,16,-1
 513 0 l 1,0,-1
150 300 m 1,17,-1
 319 300 l 2,18,19
 378.5 300 378.5 300 403.5 334 c 0,20,21
 416 351 416 351 423.5 366 c 128,-1,22
 431 381 431 381 434 406 c 0,23,24
 438 439.333333333 438 439.333333333 438 479 c 0,25,26
 438 630 438 630 310 630 c 2,27,-1
 150 630 l 1,28,-1
 150 300 l 1,17,-1
257 -195 m 1,29,-1
 208 -167 l 1,30,31
 251.473684211 -142.157894737 251.473684211 -142.157894737 274 -114 c 1,32,-1
 263 -111 l 1,33,34
 241 -98 241 -98 241.5 -76.5 c 128,-1,35
 242 -55 242 -55 253.47826087 -44.9565217391 c 128,-1,36
 264.956521739 -34.9130434783 264.956521739 -34.9130434783 273.239130435 -34.9130434783 c 0,37,38
 298.107142857 -34.9130434783 298.107142857 -34.9130434783 310.053571429 -49.4565217391 c 128,-1,39
 322 -64 322 -64 322 -79 c 0,40,41
 322 -139 322 -139 257 -195 c 1,29,-1
EndSplineSet
EndChar

StartChar: kgreenlandic
Encoding: 312 312 240
Width: 493
Flags: HMW
HStem: 0 21G<78 150 78 78> 497 20G 694 20G
VStem: 81 92
LayerCount: 2
Fore
SplineSet
456 62 m 1,0,-1
 448 -1 l 1,1,2
 413 -1 413 -1 383 17.5 c 128,-1,3
 353 36 353 36 337.5 54 c 128,-1,4
 322 72 322 72 294 110 c 2,5,-1
 197 243 l 1,6,-1
 150 197 l 1,7,-1
 150 0 l 1,8,-1
 78 0 l 1,9,-1
 78 512 l 1,10,-1
 150 499 l 1,11,-1
 150 292 l 1,12,-1
 342 501 l 1,13,-1
 435 501 l 1,14,-1
 248 297 l 1,15,-1
 367 130 l 1,16,17
 416 64 416 64 456 62 c 1,0,-1
EndSplineSet
EndChar

StartChar: Aogonek
Encoding: 260 260 241
Width: 649
Flags: HMW
HStem: -213 50 0 21G<78 156 78 78 499 518 499 499 579 579 579 580> 280 20G<241 412 412 412>
VStem: 156 343<0 0> 425 68
LayerCount: 2
Fore
SplineSet
573 -121 m 1,0,-1
 614 -163 l 1,1,2
 582 -213 582 -213 513 -213 c 0,3,4
 483 -213 483 -213 452.5 -193.5 c 128,-1,5
 422 -174 422 -174 423 -127 c 1,6,7
 423 -61 423 -61 518 0 c 1,8,-1
 499 0 l 1,9,-1
 430 226 l 1,10,-1
 222 226 l 1,11,-1
 156 0 l 1,12,-1
 78 0 l 1,13,-1
 284 700 l 1,14,-1
 367 700 l 1,15,-1
 580 0 l 1,16,-1
 579 0 l 1,17,18
 480 -82 480 -82 479 -121 c 0,19,20
 478 -139 478 -139 488.5 -149.5 c 128,-1,21
 499 -160 499 -160 516 -160 c 0,22,23
 551 -160 551 -160 573 -121 c 1,0,-1
412 300 m 1,24,-1
 325 584 l 1,25,-1
 241 300 l 1,26,-1
 412 300 l 1,24,-1
EndSplineSet
EndChar

